<?xml version="1.0" encoding="UTF-8" standalone="no"?>
<!DOCTYPE svg PUBLIC "-//W3C//DTD SVG 1.1//EN" "http://www.w3.org/Graphics/SVG/1.1/DTD/svg11.dtd">
<svg width="100%" height="100%" viewBox="0 0 610 109" version="1.1" xmlns="http://www.w3.org/2000/svg" xmlns:xlink="http://www.w3.org/1999/xlink" xml:space="preserve" xmlns:serif="http://www.serif.com/" style="fill-rule:evenodd;clip-rule:evenodd;stroke-linejoin:round;stroke-miterlimit:2;">
    <g transform="matrix(1,0,0,1,-3268,-183)">
        <g transform="matrix(1.344,0,0,0.941333,0,0)">
            <g id="header_logo" transform="matrix(0.99844,0,0,1.00969,873.714,-6.67627)">
                <g transform="matrix(1.98942,0,0,1.98942,-1755.35,-257.87)">
                    <g transform="matrix(1,0,0,1,5.20833,47.8045)">
                        <g transform="matrix(0.962686,0,0,1.37449,1407.77,-50.1646)">
                            <path d="M411.805,184.678L411.805,191.681C411.864,192.627 411.512,193.554 410.84,194.222C409.372,195.411 407.253,195.409 405.788,194.217C405.116,193.551 404.764,192.626 404.822,191.681L404.822,184.678L406.83,184.678L406.83,191.681C406.789,192.174 406.927,192.666 407.218,193.065C407.497,193.372 407.9,193.536 408.314,193.512C408.728,193.54 409.133,193.385 409.422,193.087C409.715,192.68 409.851,192.18 409.805,191.681L409.805,184.678L411.805,184.678Z" style="fill:rgb(0,91,84);fill-rule:nonzero;"/>
                        </g>
                        <g transform="matrix(0.962686,0,0,1.37449,1407.77,-50.1646)">
                            <path d="M420.447,194.967L418.447,194.967L415.302,188.387L415.26,188.402L415.26,194.967L413.247,194.967L413.247,184.677L415.26,184.677L418.405,191.251L418.447,191.235L418.447,184.677L420.447,184.677L420.447,194.967Z" style="fill:rgb(0,91,84);fill-rule:nonzero;"/>
                        </g>
                        <g transform="matrix(0.962686,0,0,1.37449,1407.77,-50.1646)">
                            <rect x="422.122" y="184.677" width="2" height="10.29" style="fill:rgb(0,91,84);"/>
                        </g>
                        <g transform="matrix(0.962686,0,0,1.37449,1407.77,-50.1646)">
                            <path d="M425.791,194.967L425.791,184.678L428.899,184.678C429.907,184.657 430.872,185.098 431.514,185.876C432.226,186.741 432.593,187.84 432.546,188.96L432.546,190.692C432.594,191.811 432.226,192.908 431.514,193.773C430.87,194.548 429.906,194.988 428.899,194.967L425.791,194.967ZM427.804,186.282L427.804,193.363L428.787,193.363C429.321,193.377 429.82,193.095 430.084,192.631C430.413,192.039 430.571,191.367 430.539,190.69L430.539,188.941C430.571,188.268 430.413,187.599 430.084,187.011C429.819,186.548 429.32,186.267 428.787,186.282L427.804,186.282Z" style="fill:rgb(0,91,84);fill-rule:nonzero;"/>
                        </g>
                        <g transform="matrix(0.962686,0,0,1.37449,1407.77,-50.1646)">
                            <path d="M438.404,192.769L435.691,192.769L435.14,194.968L433.111,194.968L436.008,184.678L438.101,184.678L440.991,194.968L438.962,194.968L438.404,192.769ZM436.101,191.165L437.994,191.165L437.069,187.526L437.026,187.526L436.101,191.165Z" style="fill:rgb(0,91,84);fill-rule:nonzero;"/>
                        </g>
                        <g transform="matrix(0.962686,0,0,1.37449,1407.77,-50.1646)">
                            <path d="M441.79,194.967L441.79,184.678L444.898,184.678C445.906,184.657 446.871,185.098 447.513,185.876C448.225,186.741 448.593,187.84 448.545,188.96L448.545,190.692C448.593,191.811 448.225,192.908 447.513,193.773C446.87,194.548 445.905,194.988 444.898,194.967L441.79,194.967ZM443.804,186.282L443.804,193.363L444.787,193.363C445.32,193.377 445.82,193.095 446.083,192.631C446.413,192.039 446.57,191.367 446.539,190.69L446.539,188.941C446.57,188.268 446.413,187.599 446.083,187.011C445.819,186.548 445.319,186.267 444.787,186.282L443.804,186.282Z" style="fill:rgb(0,91,84);fill-rule:nonzero;"/>
                        </g>
                        <g transform="matrix(0.962686,0,0,1.37449,1407.77,-50.1646)">
                            <path d="M455.393,190.451L451.938,190.451L451.938,193.364L456,193.364L456,194.967L449.923,194.967L449.923,184.677L455.987,184.677L455.987,186.283L451.938,186.283L451.938,188.848L455.393,188.848L455.393,190.451Z" style="fill:rgb(0,91,84);fill-rule:nonzero;"/>
                        </g>
                    </g>
                    <g transform="matrix(1,0,0,1,46.875,32.9433)">
                        <g transform="matrix(0.962686,0,0,1.37449,1420.02,-54.5316)">
                            <path d="M404.936,208.957L404.936,198.669L408.045,198.669C409.053,198.647 410.017,199.089 410.659,199.866C411.371,200.732 411.738,201.831 411.691,202.95L411.691,204.682C411.739,205.801 411.371,206.899 410.659,207.763C410.016,208.538 409.052,208.978 408.045,208.957L404.936,208.957ZM406.949,200.272L406.949,207.353L407.932,207.353C408.466,207.367 408.965,207.085 409.229,206.621C409.558,206.029 409.716,205.357 409.684,204.68L409.684,202.932C409.716,202.258 409.558,201.589 409.229,201.001C408.964,200.538 408.465,200.258 407.932,200.272L406.949,200.272Z" style="fill:rgb(0,91,84);fill-rule:nonzero;"/>
                        </g>
                        <g transform="matrix(0.962686,0,0,1.37449,1420.02,-54.5316)">
                            <path d="M417.549,206.759L414.836,206.759L414.285,208.958L412.258,208.958L415.155,198.668L417.246,198.668L420.136,208.958L418.107,208.958L417.549,206.759ZM415.246,205.155L417.141,205.155L416.214,201.516L416.171,201.516L415.246,205.155Z" style="fill:rgb(0,91,84);fill-rule:nonzero;"/>
                        </g>
                        <g transform="matrix(0.962686,0,0,1.37449,1420.02,-54.5316)">
                            <path d="M429.613,204.682L426.122,204.682L426.122,208.957L424.107,208.957L424.107,198.669L430.229,198.669L430.229,200.272L426.122,200.272L426.122,203.078L429.613,203.078L429.613,204.682Z" style="fill:rgb(0,91,84);fill-rule:nonzero;"/>
                        </g>
                        <g transform="matrix(0.962686,0,0,1.37449,1420.02,-54.5316)">
                            <path d="M437.74,205.643L437.762,205.685C437.839,206.61 437.549,207.53 436.956,208.243C436.307,208.857 435.43,209.17 434.539,209.105C433.59,209.15 432.664,208.795 431.988,208.127C431.312,207.367 430.968,206.368 431.033,205.353L431.033,202.279C430.97,201.27 431.301,200.275 431.956,199.505C432.599,198.837 433.5,198.478 434.426,198.52C435.337,198.453 436.236,198.771 436.902,199.395C437.509,200.118 437.819,201.046 437.769,201.989L437.747,202.033L435.811,202.033C435.876,201.528 435.779,201.016 435.534,200.571C435.263,200.246 434.847,200.078 434.426,200.124C434.011,200.105 433.614,200.307 433.386,200.655C433.113,201.144 432.988,201.702 433.027,202.26L433.027,205.351C432.986,205.918 433.12,206.484 433.411,206.972C433.673,207.328 434.098,207.528 434.539,207.501C434.926,207.544 435.309,207.385 435.553,207.081C435.777,206.637 435.864,206.137 435.804,205.643L437.74,205.643Z" style="fill:rgb(0,91,84);fill-rule:nonzero;"/>
                        </g>
                        <g transform="matrix(0.962686,0,0,1.37449,1420.02,-54.5316)">
                            <path d="M444.828,200.272L442.509,200.272L442.509,208.957L440.504,208.957L440.504,200.272L438.199,200.272L438.199,198.669L444.828,198.669L444.828,200.272Z" style="fill:rgb(0,91,84);fill-rule:nonzero;"/>
                        </g>
                    </g>
                </g>
                <g>
                    <g transform="matrix(0.744048,0,0,1.06232,1496.28,7.43626)">
                        <path d="M115.408,206.623C122.078,206.617 127.564,201.127 127.564,194.457C127.564,187.786 122.078,182.296 115.408,182.29L98.167,182.29C91.492,182.29 86,187.782 86,194.457L86,274.41C86,274.414 86,274.417 86,274.421C86,281.096 91.492,286.588 98.167,286.588C104.841,286.588 110.334,281.096 110.334,274.421C110.334,274.417 110.334,274.414 110.334,274.41L110.334,246.601L132.93,246.601C139.601,246.595 145.086,241.104 145.086,234.434C145.086,227.764 139.601,222.273 132.93,222.267L110.334,222.267L110.334,206.623L115.408,206.623Z" style="fill:rgb(0,91,84);fill-rule:nonzero;"/>
                    </g>
                    <g transform="matrix(0.744048,0,0,1.06232,1496.28,7.43626)">
                        <path d="M297.304,239.647C290.584,239.647 286.092,244.777 285.137,251.814C284.361,257.522 280.468,262.244 274.707,262.244C268.986,262.243 264.279,257.535 264.279,251.814L264.279,217.052C264.279,211.331 268.986,206.624 274.707,206.624C274.707,206.624 274.707,206.624 274.707,206.624C280.468,206.624 284.339,211.348 285.137,217.052C286.092,223.882 290.584,229.219 297.304,229.219C297.304,229.219 297.304,229.219 297.304,229.219C303.979,229.219 309.471,223.727 309.471,217.053C309.471,217.053 309.471,217.053 309.471,217.052C309.471,197.982 293.778,182.29 274.708,182.29C255.638,182.29 239.945,197.982 239.945,217.052L239.945,251.814C239.945,270.884 255.638,286.577 274.708,286.577C293.778,286.577 309.471,270.884 309.471,251.814C309.471,251.814 309.471,251.814 309.471,251.814C309.471,245.139 303.979,239.647 297.304,239.647C297.304,239.647 297.304,239.647 297.304,239.647" style="fill:rgb(0,91,84);fill-rule:nonzero;"/>
                    </g>
                    <g transform="matrix(0.744048,0,0,1.06232,1496.28,7.43626)">
                        <path d="M217.769,239.647C211.049,239.647 206.559,244.777 205.603,251.814C204.829,257.522 200.933,262.244 195.174,262.244C195.174,262.244 195.174,262.244 195.174,262.244C189.453,262.244 184.744,257.536 184.744,251.814L184.744,217.052C184.744,211.332 189.452,206.624 195.173,206.624C195.173,206.624 195.174,206.624 195.174,206.624C200.933,206.624 204.805,211.348 205.603,217.052C206.559,223.882 211.049,229.219 217.769,229.219C217.77,229.219 217.77,229.219 217.77,229.219C224.444,229.219 229.936,223.727 229.936,217.053C229.936,217.053 229.936,217.053 229.936,217.052C229.936,197.982 214.244,182.29 195.173,182.29C176.103,182.29 160.411,197.982 160.411,217.052L160.411,251.814C160.411,270.884 176.103,286.577 195.173,286.577C214.244,286.577 229.936,270.884 229.936,251.814C229.936,251.814 229.936,251.814 229.936,251.814C229.936,245.139 224.444,239.647 217.77,239.647C217.77,239.647 217.77,239.647 217.769,239.647" style="fill:rgb(0,91,84);fill-rule:nonzero;"/>
                    </g>
                    <g transform="matrix(0.744048,0,0,1.06232,1496.28,7.43626)">
                        <path d="M322.062,276.255C322.062,282.93 327.554,288.422 334.229,288.422C340.903,288.422 346.395,282.93 346.395,276.255C346.395,269.581 340.903,264.088 334.229,264.088L334.228,264.088C327.554,264.088 322.062,269.58 322.062,276.254C322.062,276.255 322.062,276.255 322.062,276.255Z" style="fill:rgb(48,168,73);fill-rule:nonzero;"/>
                    </g>
                    <g transform="matrix(0.744048,0,0,1.06232,1496.28,7.43626)">
                        <path d="M324.907,184.823L324.81,184.936C324.599,185.196 324.401,185.46 324.213,185.734C324.177,185.788 324.138,185.84 324.103,185.892C323.929,186.153 323.769,186.422 323.617,186.693C323.574,186.771 323.53,186.845 323.489,186.924C323.351,187.182 323.226,187.443 323.11,187.71C323.066,187.809 323.02,187.907 322.978,188.008C322.87,188.27 322.776,188.534 322.688,188.803C322.653,188.911 322.614,189.015 322.582,189.125C322.494,189.411 322.423,189.7 322.358,189.993C322.339,190.082 322.315,190.17 322.297,190.261C322.23,190.604 322.177,190.951 322.138,191.3L322.123,191.42C322.069,191.938 322.049,192.46 322.063,192.981L322.063,248.296C322.063,254.97 327.555,260.463 334.229,260.463C340.904,260.463 346.396,254.97 346.396,248.296L346.396,238.896L368.826,278.575C368.885,278.678 368.956,278.773 369.016,278.876C369.146,279.09 369.278,279.306 369.42,279.511C369.531,279.672 369.649,279.82 369.765,279.973C369.885,280.13 370.003,280.289 370.131,280.439C370.274,280.609 370.428,280.771 370.58,280.933C370.694,281.054 370.807,281.177 370.927,281.294C371.092,281.456 371.264,281.607 371.438,281.758C371.563,281.865 371.686,281.975 371.814,282.078C371.984,282.215 372.158,282.341 372.335,282.467C372.483,282.575 372.634,282.682 372.789,282.783C372.947,282.886 373.109,282.982 373.273,283.076C373.457,283.186 373.642,283.292 373.834,283.392C373.974,283.464 374.118,283.53 374.261,283.597C374.48,283.7 374.699,283.8 374.927,283.889C375.054,283.94 375.183,283.985 375.313,284.031C375.554,284.118 375.797,284.201 376.045,284.272C376.178,284.311 376.311,284.341 376.446,284.375C376.689,284.437 376.932,284.496 377.18,284.542C377.343,284.572 377.509,284.594 377.674,284.618C377.892,284.65 378.111,284.682 378.333,284.702C378.549,284.722 378.767,284.727 378.983,284.736C379.129,284.741 379.273,284.757 379.419,284.757C379.455,284.757 379.487,284.752 379.522,284.752C379.763,284.751 380.004,284.732 380.247,284.715C380.411,284.704 380.574,284.7 380.736,284.683C380.939,284.661 381.141,284.623 381.343,284.591C381.544,284.559 381.746,284.533 381.944,284.491C382.07,284.464 382.197,284.425 382.322,284.393C382.593,284.328 382.863,284.262 383.124,284.177C383.192,284.157 383.256,284.129 383.32,284.107C383.642,283.997 383.961,283.881 384.269,283.746C384.318,283.724 384.367,283.697 384.418,283.675C384.738,283.53 385.053,283.375 385.359,283.204C385.374,283.194 385.391,283.189 385.406,283.181C385.472,283.142 385.53,283.098 385.596,283.059C385.859,282.904 386.119,282.744 386.369,282.57C386.492,282.484 386.606,282.392 386.726,282.302C386.918,282.157 387.111,282.012 387.293,281.857C387.436,281.736 387.571,281.608 387.708,281.479C387.856,281.341 388.004,281.204 388.146,281.058C388.284,280.914 388.418,280.766 388.547,280.616C388.677,280.469 388.805,280.323 388.927,280.171C389.047,280.021 389.158,279.869 389.269,279.714C389.392,279.545 389.514,279.375 389.627,279.198C389.718,279.058 389.802,278.914 389.886,278.771C390.006,278.569 390.122,278.365 390.23,278.156C390.294,278.031 390.353,277.904 390.414,277.778C390.524,277.543 390.63,277.307 390.726,277.066C390.772,276.952 390.812,276.835 390.853,276.719C390.944,276.466 391.031,276.213 391.106,275.953C391.141,275.83 391.17,275.704 391.202,275.581C391.266,275.329 391.326,275.078 391.374,274.823C391.404,274.665 391.423,274.505 391.446,274.345C391.478,274.122 391.512,273.899 391.532,273.673C391.552,273.458 391.558,273.24 391.566,273.022C391.571,272.877 391.588,272.736 391.588,272.589L391.588,192.636C391.588,185.961 386.095,180.468 379.42,180.468C372.745,180.468 367.253,185.961 367.253,192.636L367.253,226.345L344.976,186.939C344.736,186.489 344.467,186.054 344.172,185.637C344.131,185.58 344.089,185.526 344.047,185.47C343.858,185.212 343.664,184.961 343.457,184.718C343.374,184.624 343.288,184.535 343.206,184.442C343.027,184.248 342.848,184.056 342.658,183.873C342.548,183.769 342.437,183.669 342.324,183.57C342.143,183.41 341.961,183.25 341.771,183.099C341.653,183.005 341.531,182.917 341.41,182.828C341.211,182.683 341.01,182.541 340.804,182.408C340.688,182.334 340.57,182.265 340.452,182.194C340.228,182.061 340.002,181.931 339.769,181.811C339.663,181.757 339.555,181.708 339.445,181.656C339.197,181.538 338.948,181.425 338.69,181.324C338.585,181.282 338.477,181.246 338.371,181.207C338.113,181.113 337.853,181.025 337.587,180.948C337.462,180.912 337.336,180.884 337.209,180.852C336.965,180.789 336.718,180.73 336.467,180.683C336.292,180.651 336.116,180.627 335.941,180.604C335.737,180.573 335.535,180.543 335.327,180.524C335.074,180.501 334.821,180.492 334.568,180.486C334.454,180.482 334.344,180.469 334.229,180.469C334.202,180.469 334.177,180.472 334.15,180.472C333.836,180.474 333.523,180.494 333.209,180.519C333.123,180.528 333.032,180.528 332.946,180.536C332.626,180.572 332.305,180.624 331.987,180.683C331.907,180.698 331.828,180.707 331.749,180.723C331.462,180.782 331.177,180.862 330.892,180.943C330.788,180.973 330.68,180.995 330.577,181.029C330.339,181.103 330.106,181.196 329.87,181.287C329.729,181.341 329.582,181.39 329.442,181.449C329.233,181.538 329.029,181.646 328.823,181.747C328.668,181.825 328.511,181.895 328.361,181.978C328.319,182.002 328.275,182.018 328.233,182.042C328.052,182.145 327.885,182.263 327.712,182.373C327.594,182.448 327.474,182.518 327.359,182.595C327.111,182.766 326.877,182.946 326.646,183.13C326.579,183.184 326.508,183.236 326.442,183.29C326.186,183.502 325.945,183.725 325.712,183.954C325.671,183.993 325.631,184.03 325.592,184.069C325.351,184.312 325.125,184.563 324.907,184.823" style="fill:rgb(0,91,84);fill-rule:nonzero;"/>
                    </g>
                    <g transform="matrix(0.744048,0,0,1.06232,1496.28,7.43626)">
                        <path d="M131.192,194.457C131.192,201.131 136.684,206.623 143.358,206.623C150.033,206.623 155.525,201.131 155.525,194.457C155.525,187.782 150.033,182.29 143.358,182.29L143.358,182.29C136.684,182.29 131.192,187.782 131.192,194.456C131.192,194.456 131.192,194.456 131.192,194.457Z" style="fill:rgb(0,173,197);fill-rule:nonzero;"/>
                    </g>
                </g>
            </g>
        </g>
    </g>
</svg>
