<svg xmlns="http://www.w3.org/2000/svg" xmlns:xlink="http://www.w3.org/1999/xlink" xmlns:serif="http://www.serif.com/" width="100%" height="100%" viewBox="0 0 631 143" version="1.1" xml:space="preserve" style="fill-rule:evenodd;clip-rule:evenodd;stroke-linejoin:round;stroke-miterlimit:2;"><g><g transform="matrix(1.28489,0,0,1,0,0)"><rect x="0" y="0" width="491.091" height="143" style="fill:none;"/></g><g id="logo_republicapt.svg" transform="matrix(0.66918,0,0,0.66918,315.5,72.5731)"><g transform="matrix(1,0,0,1,-428.915,-70.866)"><g><g><path d="M43.413,0C14.612,9.289 0,33.786 0,71.575L0,128.885C0,128.885 4.816,92.046 43.413,81.425L43.413,0Z" style="fill:rgb(42,108,67);fill-rule:nonzero;"/><path d="M46.622,10.824C46.622,10.824 68.545,2.511 99.739,0.745C99.739,0.745 99.642,26.831 98.809,48.018C96.176,114.973 36.401,80.573 7.112,116.179C12.989,100.767 32.979,89.801 46.622,87.104L46.622,10.824Z" style="fill:rgb(229,64,64);fill-rule:nonzero;"/><path d="M38.537,106.428C38.537,106.428 6.767,109.01 4.054,127.145C1.915,141.36 38.537,141.732 38.537,141.732L38.537,106.428Z" style="fill:rgb(42,108,67);fill-rule:nonzero;"/><path d="M1.358,53.058C7.936,37.682 19.079,21.951 43.413,12.102L43.413,0C19.63,7.675 5.552,25.739 1.358,53.058Z" style="fill:rgb(110,179,80);fill-rule:nonzero;"/><path d="M44.176,73.668L44.176,81.399C44.176,81.443 44.157,81.488 44.113,81.488L43.484,81.488C43.448,81.488 43.413,81.443 43.413,81.399L43.413,73.615C43.671,73.633 43.927,73.651 44.176,73.668ZM43.118,80.937C34.041,80.36 26.118,75.552 21.278,68.46C21.243,68.407 21.189,68.336 21.153,68.274L21.153,68.265C21.384,68.159 21.614,68.07 21.854,67.99C26.534,74.895 34.216,79.58 43.015,80.21L43.118,80.937ZM19.698,66.313C19.559,66.305 19.476,66.243 19.452,66.198C19.417,66.127 19.114,65.594 19.114,65.594C19.104,65.586 19.104,65.568 19.104,65.559C19.114,65.417 19.194,65.275 19.311,65.133C17.626,61.78 16.579,58.044 16.331,54.113C16.579,53.989 16.819,53.892 17.047,53.821C17.27,57.68 18.272,61.336 19.884,64.645C20.265,64.388 20.765,64.122 21.331,63.873C19.78,60.715 18.841,57.201 18.671,53.51C18.981,53.484 19.23,53.501 19.407,53.519C19.576,57.113 20.507,60.519 22.014,63.589C22.954,63.208 24.015,62.853 25.062,62.56C26.048,62.276 27.058,62.01 28.095,61.78C28.181,62.028 28.28,62.276 28.388,62.516C27.306,62.755 26.261,63.022 25.249,63.323C25.187,63.323 25.134,63.341 25.081,63.359C25.062,63.359 25.062,63.359 25.045,63.368C24.99,63.394 24.948,63.403 24.886,63.421C24.878,63.421 24.868,63.421 24.868,63.43C24.815,63.438 24.761,63.456 24.708,63.474C24.708,63.474 24.7,63.483 24.69,63.483C24.638,63.492 24.581,63.509 24.522,63.518C24.514,63.536 24.505,63.536 24.495,63.536C24.381,63.572 24.265,63.607 24.159,63.651L24.132,63.651C24.079,63.678 24.015,63.687 23.964,63.714L23.955,63.714C23.901,63.731 23.84,63.749 23.786,63.776L23.778,63.776C23.716,63.802 23.663,63.811 23.601,63.838C23.474,63.882 23.361,63.918 23.246,63.962L23.237,63.962C22.944,64.078 22.651,64.175 22.386,64.3C22.138,64.406 21.916,64.495 21.694,64.601C21.668,64.61 21.632,64.627 21.597,64.645L21.586,64.645C21.56,64.654 21.526,64.672 21.491,64.69C21.456,64.707 21.419,64.725 21.384,64.743C21.216,64.823 21.056,64.903 20.905,64.983C20.878,65 20.853,65.018 20.825,65.035L20.817,65.035C20.781,65.044 20.765,65.062 20.737,65.08L20.728,65.08C20.702,65.098 20.675,65.115 20.648,65.124C20.507,65.213 20.382,65.284 20.265,65.364C20.001,65.55 19.798,65.727 19.683,65.896C19.683,65.914 19.671,65.923 19.663,65.932C19.663,65.94 19.655,65.95 19.655,65.958L19.646,65.958C19.612,66.02 19.55,66.127 19.559,66.18C19.567,66.243 19.603,66.278 19.698,66.313ZM20.94,68.114C20.888,68.167 20.781,68.354 21.019,68.505C20.897,68.47 20.755,68.398 20.685,68.283C20.61,68.159 20.365,67.768 20.365,67.768L20.365,67.724C20.382,67.618 20.437,67.511 20.532,67.405C20.542,67.395 20.542,67.378 20.552,67.378C20.552,67.369 20.56,67.369 20.56,67.369C20.692,67.218 20.888,67.05 21.136,66.881C21.153,66.872 21.167,66.855 21.198,66.837L21.204,66.837C21.233,66.819 21.251,66.801 21.27,66.801C21.27,66.801 21.27,66.792 21.278,66.784C21.323,66.757 21.374,66.731 21.419,66.695L21.429,66.695C21.456,66.686 21.474,66.668 21.499,66.651L21.509,66.642C21.535,66.624 21.554,66.606 21.579,66.606L21.586,66.598C21.642,66.562 21.694,66.526 21.757,66.509L21.766,66.499C21.792,66.482 21.819,66.473 21.845,66.456L21.854,66.446C21.968,66.375 22.103,66.305 22.244,66.243C22.351,66.198 22.457,66.145 22.562,66.082C22.776,65.994 23.007,65.896 23.253,65.799C23.335,65.763 23.423,65.727 23.52,65.684C23.565,65.674 23.608,65.647 23.653,65.639C23.653,65.63 23.663,65.63 23.663,65.63C23.761,65.594 23.849,65.559 23.946,65.523L23.955,65.523C23.999,65.506 24.044,65.488 24.088,65.479C24.097,65.47 24.097,65.47 24.114,65.47C24.201,65.435 24.301,65.399 24.395,65.364L24.423,65.364C24.46,65.346 24.505,65.328 24.549,65.32C24.558,65.31 24.571,65.31 24.581,65.31C24.683,65.275 24.777,65.24 24.878,65.213C24.895,65.204 24.903,65.204 24.912,65.195C24.956,65.186 24.99,65.16 25.036,65.16C25.045,65.16 25.062,65.151 25.071,65.142C25.179,65.124 25.276,65.08 25.383,65.054C25.399,65.044 25.417,65.044 25.427,65.044C25.471,65.035 25.507,65.018 25.542,65L25.595,65C25.648,64.974 25.702,64.964 25.755,64.947C26.897,64.619 28.013,64.344 29.141,64.095C29.273,64.344 29.407,64.592 29.549,64.831C28.299,65.08 27.102,65.381 25.938,65.719C24.142,66.206 21.56,67.254 20.94,68.114ZM16.306,53.723C16.252,53.785 16.207,53.829 16.163,53.892C16.109,53.971 15.933,54.193 16.083,54.353C16.02,54.309 15.88,54.238 15.88,54.113L15.88,53.333C15.88,53.333 15.88,53.324 15.886,53.315C15.933,53.164 16.038,53.014 16.189,52.863C16.207,52.845 16.226,52.836 16.252,52.8C16.438,52.632 16.704,52.445 17.015,52.268C17.02,52.259 17.032,52.259 17.041,52.25C17.058,52.232 17.085,52.224 17.112,52.206C17.12,52.197 17.13,52.197 17.138,52.188C17.165,52.179 17.183,52.171 17.207,52.152C17.207,52.152 17.227,52.144 17.235,52.135C17.253,52.126 17.28,52.108 17.307,52.108C17.315,52.099 17.324,52.091 17.333,52.081C17.36,52.073 17.386,52.055 17.413,52.046C17.413,52.037 17.429,52.028 17.44,52.028C17.466,52.011 17.493,52.002 17.52,51.984L17.546,51.984C17.614,51.949 17.688,51.913 17.763,51.869C17.774,51.86 17.794,51.86 17.794,51.851C17.829,51.833 17.856,51.825 17.883,51.815C17.9,51.807 17.909,51.807 17.919,51.798C17.945,51.789 17.97,51.771 17.996,51.753C18.016,51.753 18.032,51.753 18.032,51.745C18.069,51.726 18.096,51.718 18.122,51.709C18.14,51.7 18.149,51.691 18.155,51.691C18.192,51.673 18.229,51.656 18.263,51.646C18.272,51.638 18.282,51.629 18.282,51.629C18.37,51.593 18.459,51.558 18.548,51.522C18.548,51.514 18.556,51.514 18.556,51.514C18.831,51.407 19.114,51.292 19.417,51.185C19.442,51.168 19.476,51.159 19.514,51.142C19.532,51.132 19.559,51.132 19.576,51.123C19.612,51.106 19.646,51.097 19.683,51.079C19.709,51.071 19.718,51.071 19.744,51.071C19.789,51.044 19.843,51.026 19.904,51.008C19.966,50.991 20.019,50.964 20.081,50.946C20.099,50.946 20.108,50.937 20.126,50.937C20.17,50.911 20.214,50.902 20.259,50.884C20.276,50.875 20.302,50.866 20.32,50.858C20.356,50.849 20.392,50.831 20.437,50.822C20.451,50.813 20.479,50.805 20.507,50.795C20.542,50.786 20.577,50.778 20.61,50.76C20.64,50.751 20.666,50.751 20.685,50.742C20.72,50.733 20.765,50.715 20.798,50.706C20.825,50.698 20.853,50.689 20.87,50.68C20.905,50.671 20.94,50.662 20.983,50.644C21.003,50.636 21.038,50.626 21.065,50.626C21.101,50.609 21.136,50.591 21.167,50.591C21.204,50.582 21.225,50.565 21.251,50.565C21.296,50.555 21.331,50.547 21.364,50.538C21.394,50.52 21.419,50.52 21.446,50.512C21.482,50.502 21.517,50.485 21.554,50.467C21.586,50.467 21.614,50.458 21.642,50.449C21.677,50.44 21.722,50.432 21.757,50.414C21.774,50.405 21.81,50.405 21.836,50.387C21.872,50.378 21.916,50.37 21.952,50.36C21.978,50.352 22.014,50.352 22.032,50.343C22.075,50.325 22.118,50.307 22.153,50.307C22.183,50.299 22.218,50.289 22.235,50.28C22.279,50.272 22.333,50.263 22.378,50.245C22.395,50.236 22.421,50.227 22.438,50.227C22.499,50.209 22.554,50.192 22.599,50.183C22.616,50.174 22.634,50.174 22.643,50.174C22.714,50.147 22.784,50.13 22.855,50.112L22.88,50.112C22.944,50.094 23.007,50.077 23.066,50.067C23.087,50.059 23.113,50.05 23.14,50.041C23.175,50.032 23.228,50.014 23.272,50.006C23.308,49.997 23.325,49.988 23.353,49.988C23.405,49.979 23.446,49.97 23.494,49.943C23.52,49.943 23.548,49.943 23.573,49.926C23.618,49.917 23.663,49.908 23.706,49.899C23.743,49.89 23.769,49.881 23.796,49.872C23.84,49.864 23.876,49.854 23.919,49.846C23.955,49.837 23.991,49.828 24.015,49.828C24.062,49.819 24.105,49.801 24.142,49.793C24.177,49.784 24.21,49.784 24.236,49.775C24.274,49.766 24.319,49.748 24.363,49.748C24.395,49.74 24.435,49.73 24.46,49.721C24.505,49.703 24.549,49.703 24.594,49.695C24.629,49.686 24.664,49.677 24.69,49.668C24.735,49.66 24.777,49.651 24.823,49.642C24.851,49.624 24.886,49.624 24.921,49.624C24.964,49.606 25.001,49.606 25.045,49.588C25.081,49.588 25.107,49.588 25.138,49.571C25.187,49.561 25.231,49.553 25.276,49.544C25.312,49.535 25.345,49.526 25.372,49.518C25.427,49.508 25.471,49.508 25.515,49.491C25.542,49.491 25.577,49.473 25.612,49.473C25.657,49.464 25.706,49.455 25.763,49.437C25.79,49.437 25.815,49.429 25.843,49.429C25.923,49.411 25.994,49.393 26.073,49.384C26.384,49.313 26.712,49.26 27.03,49.198L27.03,49.997C26.747,50.059 26.464,50.103 26.188,50.156C23.84,50.626 21.331,51.292 19.372,52.037C19.124,52.135 18.876,52.232 18.645,52.331C18.016,52.597 17.457,52.872 17.032,53.156C16.792,53.306 16.589,53.457 16.419,53.617C16.385,53.652 16.341,53.687 16.306,53.723ZM74.12,53.315L74.12,54.113C74.12,54.238 73.987,54.309 73.931,54.353C74.076,54.193 73.917,53.971 73.845,53.892C73.811,53.829 73.755,53.785 73.704,53.723C73.678,53.705 73.65,53.67 73.624,53.643C73.624,53.634 73.615,53.634 73.606,53.626C73.568,53.59 73.526,53.554 73.491,53.519C73.34,53.404 73.163,53.27 72.977,53.156C72.542,52.872 72.002,52.605 71.381,52.339C71.325,52.312 71.274,52.295 71.222,52.268C71.054,52.197 70.876,52.135 70.698,52.064C70.681,52.055 70.645,52.037 70.645,52.037C68.687,51.292 66.169,50.626 63.829,50.156C63.542,50.112 63.27,50.059 62.995,49.997L62.995,49.198C63.313,49.26 63.624,49.313 63.943,49.384C64.015,49.393 64.095,49.411 64.175,49.429C64.201,49.429 64.219,49.437 64.245,49.437C64.296,49.455 64.351,49.464 64.405,49.473C64.431,49.473 64.468,49.491 64.491,49.491C64.546,49.508 64.591,49.508 64.644,49.518C64.671,49.526 64.704,49.535 64.732,49.544C64.777,49.553 64.821,49.561 64.864,49.571C64.901,49.588 64.927,49.588 64.964,49.588C65.007,49.606 65.05,49.606 65.085,49.624C65.132,49.624 65.158,49.624 65.185,49.642C65.235,49.651 65.27,49.66 65.318,49.668C65.353,49.677 65.389,49.686 65.415,49.695C65.458,49.703 65.503,49.703 65.549,49.721C65.575,49.73 65.617,49.74 65.645,49.748C65.69,49.748 65.733,49.757 65.77,49.775C65.806,49.784 65.839,49.784 65.867,49.793C65.911,49.801 65.956,49.819 65.987,49.828C66.019,49.828 66.053,49.837 66.089,49.846C66.133,49.854 66.169,49.864 66.213,49.872C66.249,49.881 66.275,49.89 66.302,49.899C66.346,49.908 66.391,49.917 66.435,49.935C66.462,49.943 66.497,49.943 66.515,49.943C66.565,49.97 66.62,49.979 66.665,49.988C66.691,49.988 66.718,49.997 66.736,50.006C66.798,50.023 66.851,50.032 66.913,50.059C66.922,50.059 66.94,50.059 66.946,50.067C67.02,50.077 67.091,50.094 67.162,50.112L67.188,50.112C67.25,50.139 67.304,50.147 67.366,50.165C67.392,50.174 67.41,50.183 67.428,50.183C67.481,50.201 67.525,50.209 67.569,50.227C67.597,50.227 67.622,50.236 67.64,50.245C67.685,50.263 67.727,50.272 67.772,50.272C67.8,50.289 67.826,50.299 67.853,50.307C67.887,50.307 67.933,50.325 67.977,50.343C68.003,50.343 68.021,50.352 68.057,50.36C68.093,50.37 68.137,50.378 68.173,50.387C68.198,50.396 68.226,50.405 68.251,50.414C68.288,50.432 68.331,50.44 68.368,50.449C68.394,50.458 68.421,50.467 68.448,50.467C68.481,50.485 68.526,50.502 68.562,50.512C68.589,50.512 68.615,50.52 68.64,50.529C68.687,50.538 68.722,50.555 68.757,50.565C68.784,50.565 68.81,50.582 68.824,50.591C68.872,50.591 68.907,50.609 68.952,50.626C68.979,50.626 69.005,50.636 69.021,50.644C69.067,50.662 69.112,50.671 69.147,50.68C69.165,50.689 69.191,50.698 69.21,50.706C69.254,50.715 69.298,50.733 69.343,50.751C69.352,50.751 69.368,50.751 69.392,50.76C69.439,50.778 69.493,50.786 69.546,50.813C69.556,50.813 69.556,50.822 69.573,50.822C69.688,50.858 69.81,50.902 69.927,50.946C69.937,50.946 69.944,50.946 69.954,50.955C70.007,50.973 70.052,50.991 70.104,50.999C70.122,51.018 70.132,51.018 70.149,51.026C70.185,51.026 70.228,51.053 70.272,51.071C70.291,51.071 70.309,51.071 70.326,51.079C70.362,51.097 70.397,51.106 70.433,51.123C70.459,51.132 70.478,51.132 70.494,51.142C70.525,51.159 70.565,51.168 70.601,51.185C70.885,51.283 71.159,51.39 71.417,51.496C71.435,51.505 71.452,51.514 71.47,51.522C71.497,51.532 71.522,51.54 71.55,51.549C71.567,51.558 71.585,51.567 71.603,51.576C71.629,51.593 71.661,51.602 71.692,51.62C71.709,51.62 71.709,51.62 71.728,51.629C71.763,51.646 71.808,51.665 71.843,51.683C71.851,51.683 71.866,51.691 71.887,51.7C71.904,51.709 71.939,51.718 71.967,51.736C71.976,51.745 71.993,51.753 72.002,51.753C72.037,51.762 72.053,51.78 72.079,51.789C72.091,51.789 72.108,51.807 72.126,51.807C72.153,51.815 72.171,51.833 72.196,51.842C72.205,51.851 72.224,51.851 72.239,51.86C72.266,51.878 72.285,51.886 72.304,51.904C72.321,51.913 72.33,51.913 72.348,51.913C72.374,51.931 72.409,51.949 72.425,51.957C72.435,51.957 72.444,51.966 72.454,51.966C72.489,51.984 72.524,52.002 72.561,52.019C72.569,52.028 72.578,52.028 72.596,52.037C72.613,52.046 72.64,52.064 72.657,52.073C72.675,52.081 72.685,52.091 72.702,52.099C72.72,52.108 72.737,52.118 72.755,52.126C72.764,52.135 72.79,52.144 72.795,52.152C72.817,52.161 72.835,52.171 72.853,52.179C72.87,52.188 72.88,52.197 72.888,52.197C72.915,52.215 72.933,52.224 72.94,52.232C72.96,52.242 72.968,52.25 72.985,52.259C73.296,52.437 73.553,52.623 73.748,52.791C73.767,52.818 73.792,52.836 73.802,52.845C73.97,52.996 74.076,53.164 74.12,53.315ZM74.12,50.839L74.12,51.602C74.12,51.7 74.067,51.762 73.97,51.789C74.085,51.673 73.94,51.487 73.811,51.345C73.782,51.319 73.755,51.292 73.739,51.274C73.713,51.256 73.704,51.23 73.678,51.221C73.499,51.026 73.243,50.831 72.95,50.653L72.94,50.653C72.923,50.636 72.897,50.618 72.87,50.6C72.87,50.6 72.861,50.591 72.853,50.591C72.835,50.582 72.806,50.565 72.781,50.555C72.772,50.547 72.764,50.547 72.764,50.547C72.737,50.529 72.71,50.512 72.685,50.502L72.675,50.494C72.647,50.476 72.62,50.467 72.596,50.449L72.587,50.44C72.561,50.432 72.524,50.405 72.498,50.387L72.489,50.387C72.454,50.37 72.425,50.352 72.401,50.343L72.392,50.333C72.356,50.316 72.33,50.307 72.304,50.289C72.304,50.289 72.294,50.289 72.285,50.28C72.259,50.272 72.228,50.254 72.196,50.236C72.187,50.236 72.187,50.227 72.179,50.227C72.153,50.209 72.116,50.201 72.079,50.183L72.073,50.174C72.044,50.165 72.011,50.147 71.984,50.13L71.976,50.13C71.939,50.112 71.904,50.094 71.866,50.077L71.851,50.077C71.825,50.059 71.789,50.041 71.754,50.023L71.745,50.023C71.709,50.006 71.671,49.988 71.638,49.979L71.629,49.979C71.603,49.953 71.567,49.943 71.522,49.917C71.522,49.917 71.513,49.917 71.513,49.908C71.478,49.908 71.435,49.89 71.408,49.872C71.399,49.872 71.399,49.864 71.399,49.864C71.116,49.748 70.813,49.624 70.503,49.508C70.441,49.491 70.378,49.473 70.326,49.455C70.317,49.447 70.317,49.447 70.309,49.447C70.255,49.429 70.19,49.402 70.14,49.384C70.132,49.384 70.132,49.384 70.132,49.375C70.069,49.358 70.007,49.34 69.944,49.313L69.937,49.313C69.874,49.295 69.81,49.269 69.751,49.242L69.741,49.242C69.688,49.225 69.624,49.198 69.556,49.18C69.493,49.154 69.432,49.136 69.368,49.118L69.352,49.118C69.228,49.074 69.094,49.03 68.97,48.985L68.952,48.985C68.881,48.967 68.819,48.941 68.767,48.932C68.757,48.923 68.749,48.923 68.749,48.923C68.687,48.905 68.615,48.878 68.554,48.861L68.545,48.861C68.481,48.843 68.411,48.825 68.349,48.799L68.341,48.799C68.269,48.781 68.208,48.754 68.145,48.737L68.119,48.737C68.065,48.71 67.995,48.701 67.933,48.675L67.915,48.675C67.782,48.64 67.64,48.586 67.505,48.551L67.489,48.551C67.428,48.533 67.366,48.515 67.295,48.497L67.276,48.497C67.206,48.471 67.144,48.462 67.073,48.435L67.063,48.435C67.002,48.417 66.922,48.391 66.851,48.382C66.78,48.355 66.718,48.347 66.638,48.328C66.638,48.328 66.63,48.328 66.63,48.32C66.555,48.311 66.497,48.285 66.426,48.267L66.406,48.267C66.337,48.248 66.267,48.231 66.204,48.222L66.193,48.213C66.124,48.195 66.053,48.178 65.983,48.169L65.974,48.16C65.903,48.151 65.839,48.134 65.77,48.107L65.752,48.107C65.681,48.089 65.617,48.071 65.549,48.062L65.53,48.062C65.458,48.045 65.389,48.027 65.318,48.009L65.308,48.009C65.244,47.992 65.176,47.982 65.105,47.965C65.097,47.965 65.085,47.956 65.085,47.956C65.025,47.947 64.954,47.929 64.893,47.911C64.893,47.911 64.874,47.903 64.864,47.903C64.795,47.894 64.732,47.876 64.671,47.868L64.661,47.868C64.581,47.849 64.511,47.832 64.44,47.823L64.431,47.823C64.36,47.796 64.296,47.787 64.228,47.779C64.219,47.779 64.21,47.779 64.21,47.769C64.137,47.752 64.076,47.743 64.006,47.734L63.997,47.734C63.924,47.716 63.854,47.708 63.784,47.689C63.527,47.636 63.261,47.592 62.995,47.548L62.995,46.74C63.313,46.793 63.624,46.856 63.935,46.917C66.391,47.388 68.633,47.992 70.388,48.64C70.007,45.889 69.183,43.28 68.003,40.893C67.746,40.379 67.472,39.864 67.188,39.359C67.179,39.359 67.179,39.35 67.179,39.35C67.162,39.341 67.153,39.305 67.144,39.287C67.276,39.287 67.578,39.269 67.985,39.279C69.635,42.198 70.743,45.463 71.177,48.932C71.843,49.198 72.425,49.473 72.888,49.74C72.561,46.057 71.522,42.588 69.909,39.456C70.22,39.509 70.536,39.581 70.858,39.669L70.858,39.661C70.894,39.749 70.938,39.828 70.974,39.917C72.489,43.094 73.429,46.59 73.668,50.272C73.907,50.467 74.067,50.662 74.12,50.839ZM73.678,54.113C73.668,54.247 73.668,54.38 73.65,54.513C73.358,58.23 72.364,61.744 70.796,64.93C70.981,65.328 71.026,65.647 70.902,65.905C70.902,65.905 70.663,66.251 70.548,66.438C70.433,66.606 70.388,66.686 70.19,66.712C70.326,66.677 70.558,66.393 70.459,65.95C70.45,65.887 70.424,65.808 70.397,65.727L70.388,65.727C70.345,65.613 70.282,65.488 70.185,65.364C69.989,65.054 69.724,64.716 69.423,64.361L69.413,64.361C69.392,64.326 69.368,64.308 69.352,64.281L69.343,64.281C69.315,64.237 69.298,64.21 69.271,64.184L69.271,64.175C68.927,63.802 68.545,63.403 68.102,62.986C68.102,62.977 68.093,62.977 68.081,62.977C68.048,62.933 68.003,62.897 67.968,62.853L67.96,62.853C67.826,62.72 67.685,62.596 67.54,62.462C67.534,62.453 67.525,62.453 67.525,62.445C67.481,62.41 67.437,62.365 67.401,62.329C67.392,62.321 67.384,62.321 67.384,62.321C67.242,62.188 67.082,62.055 66.931,61.922C66.922,61.912 66.922,61.904 66.922,61.895C66.869,61.859 66.825,61.815 66.78,61.78C66.771,61.78 66.761,61.762 66.761,61.762C66.603,61.629 66.443,61.495 66.284,61.363C66.275,61.353 66.267,61.345 66.257,61.336C66.22,61.3 66.169,61.256 66.124,61.229C66.115,61.221 66.106,61.211 66.099,61.203C66.044,61.158 65.999,61.123 65.938,61.078L65.938,61.07C65.823,60.981 65.716,60.883 65.61,60.794C65.593,60.786 65.583,60.777 65.575,60.768C65.522,60.732 65.478,60.697 65.431,60.661C65.42,60.644 65.406,60.635 65.397,60.635C65.353,60.591 65.3,60.546 65.244,60.511C65.244,60.511 65.235,60.501 65.229,60.493C65.176,60.448 65.114,60.395 65.05,60.351C64.999,60.307 64.946,60.262 64.893,60.227C64.874,60.209 64.853,60.2 64.849,60.182C64.804,60.156 64.76,60.12 64.715,60.076C64.704,60.076 64.688,60.058 64.671,60.05C64.626,60.014 64.581,59.978 64.528,59.934C64.518,59.916 64.502,59.916 64.491,59.908C64.431,59.863 64.369,59.818 64.315,59.774C64.315,59.765 64.315,59.765 64.308,59.765C64.254,59.721 64.201,59.677 64.137,59.623C64.13,59.615 64.11,59.597 64.086,59.588C64.05,59.561 64.006,59.517 63.962,59.491C63.943,59.481 63.924,59.464 63.909,59.446C63.863,59.411 63.819,59.384 63.774,59.349C63.767,59.331 63.749,59.322 63.729,59.313C63.669,59.268 63.606,59.215 63.554,59.171C63.542,59.171 63.542,59.162 63.536,59.153C63.483,59.118 63.431,59.073 63.367,59.038C63.356,59.029 63.333,59.002 63.323,58.993C63.279,58.958 63.234,58.932 63.188,58.896C63.173,58.878 63.145,58.869 63.128,58.851C63.084,58.825 63.04,58.789 63.001,58.753C62.986,58.736 62.96,58.727 62.942,58.709C62.88,58.665 62.815,58.629 62.765,58.567C62.815,58.257 62.862,57.947 62.89,57.619C65.22,59.331 67.196,60.928 68.606,62.276C69.493,60.2 70.104,57.973 70.415,55.658C70.424,55.613 70.433,55.551 70.433,55.516L70.433,55.507C70.45,55.4 70.459,55.311 70.478,55.214L70.478,55.161C70.485,55.081 70.494,54.992 70.503,54.903C70.512,54.868 70.512,54.815 70.52,54.77C70.525,54.708 70.525,54.637 70.536,54.575C70.536,54.513 70.548,54.459 70.558,54.397L70.558,54.282C70.565,54.229 70.574,54.176 70.574,54.113C70.574,54.069 70.583,54.016 70.583,53.971C70.583,53.927 70.592,53.883 70.592,53.838C70.601,53.732 70.61,53.626 70.618,53.51C70.796,53.501 71.044,53.484 71.354,53.51C71.204,56.802 70.433,59.961 69.174,62.835C69.652,63.323 70.042,63.767 70.335,64.166C71.833,60.998 72.747,57.494 72.95,53.811C73.187,53.883 73.429,53.989 73.678,54.113ZM67.54,70.084C67.481,70.173 67.41,70.253 67.339,70.332L67.328,70.342C67.276,70.413 67.215,70.492 67.153,70.572C62.206,76.546 54.884,80.503 46.632,80.956L46.632,81.399C46.632,81.425 46.622,81.443 46.604,81.461C46.596,81.461 46.578,81.488 46.542,81.488L45.931,81.488C45.886,81.488 45.86,81.443 45.86,81.399L45.86,73.651C46.126,73.651 46.374,73.633 46.632,73.607L46.632,77.85C53.014,77.433 58.767,74.698 63.04,70.466C63.049,70.456 63.058,70.448 63.075,70.439C63.128,70.377 63.188,70.315 63.253,70.253C63.261,70.244 63.27,70.244 63.27,70.235C63.793,69.703 64.296,69.153 64.777,68.567C65.044,68.638 65.3,68.727 65.54,68.807C61.019,74.414 54.263,78.125 46.632,78.586L46.632,80.228C54.884,79.749 62.18,75.703 66.993,69.587C67.269,69.8 67.454,69.977 67.54,70.084ZM68.358,69.348C68.402,69.525 68.385,69.685 68.296,69.783C68.296,69.783 68.065,70.173 67.977,70.297C67.895,70.421 67.746,70.59 67.481,70.608C67.54,70.572 68.003,70.537 67.738,69.836C67.72,69.765 67.685,69.694 67.649,69.623C67.578,69.48 67.481,69.321 67.339,69.126L67.349,69.126C67.091,68.797 66.718,68.372 66.239,67.901C66.071,67.733 65.894,67.564 65.699,67.387C64.591,66.358 63.058,65.088 61.134,63.634C61.258,63.394 61.373,63.137 61.487,62.889C63.749,64.574 65.602,66.082 66.815,67.271C66.913,67.36 67.002,67.458 67.082,67.546C67.091,67.555 67.099,67.555 67.099,67.564C67.116,67.591 67.153,67.609 67.17,67.635C67.179,67.644 67.179,67.644 67.188,67.653C67.206,67.671 67.233,67.688 67.25,67.724C67.259,67.724 67.269,67.733 67.269,67.733C67.286,67.759 67.313,67.786 67.328,67.804C67.339,67.804 67.339,67.812 67.349,67.822C67.366,67.848 67.392,67.866 67.401,67.884C67.41,67.893 67.419,67.901 67.419,67.911C67.445,67.928 67.463,67.946 67.481,67.972C67.481,67.972 67.489,67.981 67.498,67.981C67.525,68.008 67.54,68.035 67.562,68.061L67.562,68.07C67.614,68.123 67.657,68.167 67.689,68.212L67.7,68.23C67.72,68.257 67.738,68.274 67.765,68.301C67.765,68.31 67.765,68.31 67.772,68.31C67.792,68.336 67.8,68.354 67.818,68.372C67.826,68.381 67.826,68.39 67.835,68.398C68.039,68.673 68.19,68.904 68.278,69.117C68.278,69.126 68.288,69.143 68.296,69.162C68.296,69.17 68.305,69.17 68.305,69.17C68.305,69.188 68.313,69.197 68.313,69.206C68.322,69.215 68.322,69.232 68.322,69.232C68.341,69.277 68.349,69.312 68.358,69.348ZM43.413,31.683L43.413,23.042C43.413,22.997 43.448,22.971 43.484,22.971L44.113,22.971C44.157,22.971 44.176,22.997 44.176,23.042L44.176,31.692L43.413,31.683ZM15.88,51.602L15.88,50.858C15.88,50.849 15.88,50.849 15.886,50.839C15.94,50.662 16.101,50.467 16.341,50.272C16.544,47.21 17.227,44.283 18.317,41.55C18.326,41.541 18.331,41.523 18.331,41.506C18.353,41.479 18.361,41.453 18.379,41.417C18.396,41.364 18.415,41.32 18.441,41.267L18.441,41.257C18.477,41.168 18.52,41.062 18.563,40.964C18.574,40.938 18.583,40.911 18.601,40.893C18.724,40.929 18.981,41 19.29,41.133C18.14,43.812 17.386,46.705 17.13,49.74C17.588,49.473 18.176,49.198 18.841,48.932C19.15,46.51 19.771,44.194 20.685,42.029C20.878,42.206 21.065,42.411 21.243,42.623C21.083,43.005 20.94,43.387 20.798,43.786C20.798,43.795 20.79,43.812 20.781,43.831C20.249,45.374 19.857,46.98 19.63,48.63C21.384,47.992 23.626,47.388 26.073,46.917C26.384,46.847 26.712,46.793 27.03,46.74L27.03,47.539C26.757,47.592 26.491,47.636 26.225,47.689C26.153,47.708 26.091,47.716 26.013,47.734L26.003,47.734C25.933,47.743 25.87,47.752 25.808,47.769C25.799,47.779 25.79,47.779 25.782,47.779C25.706,47.787 25.648,47.796 25.586,47.823L25.568,47.823C25.497,47.832 25.427,47.849 25.356,47.868L25.345,47.868C25.276,47.876 25.214,47.894 25.138,47.903C25.134,47.903 25.134,47.911 25.125,47.911C25.062,47.929 24.983,47.947 24.931,47.956C24.921,47.956 24.912,47.965 24.903,47.965C24.841,47.982 24.769,47.992 24.7,48.009L24.69,48.009C24.629,48.027 24.549,48.045 24.478,48.062L24.47,48.062C24.395,48.071 24.327,48.089 24.265,48.107L24.248,48.107C24.177,48.124 24.114,48.151 24.044,48.16L24.035,48.16C23.955,48.178 23.884,48.195 23.813,48.213C23.743,48.231 23.681,48.248 23.601,48.267L23.592,48.267C23.52,48.285 23.459,48.311 23.396,48.32C23.388,48.328 23.379,48.328 23.379,48.328C23.308,48.347 23.237,48.355 23.167,48.382C23.095,48.391 23.024,48.417 22.954,48.435L22.944,48.435C22.868,48.453 22.812,48.471 22.741,48.497L22.721,48.497C22.661,48.506 22.599,48.533 22.528,48.551L22.519,48.551C22.378,48.586 22.235,48.64 22.094,48.675C22.022,48.701 21.952,48.71 21.89,48.737L21.882,48.737C21.81,48.754 21.745,48.781 21.677,48.799L21.668,48.799C21.606,48.825 21.535,48.843 21.474,48.861C21.399,48.878 21.331,48.905 21.27,48.923L21.26,48.923C21.189,48.941 21.127,48.967 21.065,48.985L21.056,48.985C20.924,49.03 20.79,49.065 20.666,49.118L20.657,49.118C20.586,49.136 20.532,49.154 20.462,49.18L20.451,49.18C20.392,49.198 20.339,49.225 20.276,49.242L20.265,49.242C20.144,49.295 20.01,49.331 19.884,49.375C19.884,49.384 19.878,49.384 19.878,49.384C19.824,49.402 19.763,49.42 19.709,49.437L19.698,49.447C19.638,49.464 19.576,49.491 19.522,49.508C19.247,49.606 19,49.703 18.749,49.819C18.714,49.828 18.681,49.846 18.636,49.864C18.636,49.864 18.628,49.864 18.618,49.872C18.583,49.881 18.548,49.908 18.52,49.908C18.513,49.908 18.503,49.917 18.503,49.917C18.423,49.953 18.353,49.988 18.282,50.023L18.272,50.023C18.237,50.041 18.202,50.059 18.155,50.077L18.149,50.077C18.112,50.094 18.077,50.112 18.042,50.13C18.007,50.147 17.97,50.165 17.936,50.183C17.9,50.201 17.865,50.219 17.839,50.227L17.82,50.236C17.794,50.254 17.749,50.272 17.724,50.289L17.714,50.289C17.652,50.325 17.579,50.36 17.52,50.387L17.511,50.387C17.483,50.405 17.448,50.432 17.423,50.449L17.413,50.449C17.351,50.485 17.289,50.52 17.235,50.555C17.196,50.565 17.173,50.591 17.147,50.6L17.138,50.6C17.112,50.626 17.085,50.636 17.047,50.662C16.766,50.849 16.509,51.026 16.331,51.221C16.313,51.23 16.306,51.248 16.286,51.266C16.127,51.425 15.897,51.638 16.03,51.789C15.95,51.762 15.88,51.7 15.88,51.602ZM43.386,23.521C43.343,23.53 43.293,23.539 43.263,23.539C43.293,23.53 43.351,23.53 43.386,23.521ZM70.246,38.383C70.525,38.524 70.732,38.657 70.831,38.773C70.831,38.773 71.177,39.368 71.257,39.509C71.337,39.651 71.239,39.828 71.054,39.891C71.159,39.855 71.274,39.722 70.981,39.545C70.902,39.501 70.813,39.456 70.732,39.412C70.716,39.403 70.708,39.394 70.698,39.394C69.909,38.986 68.767,38.578 67.319,38.151L67.319,38.161C66.974,38.063 66.62,37.965 66.239,37.868L66.239,37.859C65.256,37.611 64.165,37.353 62.995,37.105L62.995,36.315C63.138,36.342 63.287,36.377 63.421,36.412L63.446,36.412C63.483,36.422 63.527,36.43 63.562,36.439C63.58,36.439 63.589,36.448 63.606,36.457C63.634,36.457 63.678,36.466 63.714,36.466C63.718,36.475 63.739,36.475 63.749,36.475C63.793,36.493 63.829,36.493 63.863,36.501C63.882,36.501 63.89,36.511 63.909,36.511C63.943,36.519 63.979,36.528 64.006,36.537C64.032,36.537 64.042,36.546 64.067,36.546C64.095,36.555 64.13,36.564 64.165,36.572C64.183,36.572 64.21,36.572 64.228,36.581C64.254,36.59 64.285,36.599 64.315,36.599C64.36,36.617 64.414,36.625 64.458,36.643C64.468,36.643 64.482,36.643 64.491,36.652C64.538,36.652 64.573,36.661 64.618,36.67C64.626,36.679 64.644,36.679 64.661,36.688C64.697,36.697 64.732,36.697 64.769,36.706C64.786,36.714 64.795,36.724 64.813,36.724C64.849,36.732 64.884,36.732 64.919,36.741C64.936,36.75 64.946,36.75 64.964,36.759C64.999,36.768 65.034,36.777 65.069,36.785C65.085,36.785 65.097,36.785 65.105,36.794C65.149,36.804 65.185,36.812 65.229,36.821C65.235,36.821 65.244,36.821 65.256,36.83C65.3,36.838 65.345,36.848 65.389,36.857L65.406,36.857C65.45,36.883 65.503,36.892 65.557,36.901C65.938,36.998 66.319,37.096 66.684,37.194C66.736,37.211 66.798,37.22 66.843,37.238C66.958,37.265 67.073,37.291 67.179,37.327C67.349,37.38 67.498,37.416 67.657,37.46C68.173,37.62 68.64,37.779 69.067,37.921C69.511,38.081 69.892,38.214 70.185,38.365C70.202,38.373 70.211,38.373 70.237,38.383L70.246,38.383ZM45.86,31.692L45.86,23.042C45.86,23.024 45.868,22.997 45.886,22.989C45.886,22.989 45.903,22.971 45.931,22.971L46.542,22.971C46.596,22.971 46.622,22.997 46.622,23.042L46.622,23.521C55.708,24.036 63.66,28.765 68.562,35.774C68.917,35.942 69.21,36.111 69.432,36.289C69.439,36.289 69.448,36.289 69.458,36.298C69.458,36.298 69.901,37.043 70.024,37.203C70.132,37.344 70.042,37.531 69.901,37.601C69.996,37.531 70.042,37.442 69.759,37.203C69.671,37.131 69.573,37.052 69.466,36.99C69.439,36.972 69.423,36.963 69.402,36.945C69.368,36.928 69.352,36.91 69.315,36.892C68.943,36.67 68.489,36.457 67.985,36.245C67.933,36.218 67.887,36.208 67.845,36.182C67.835,36.182 67.835,36.173 67.826,36.173C67.782,36.155 67.738,36.138 67.685,36.12C67.685,36.12 67.675,36.111 67.667,36.111C67.622,36.093 67.578,36.076 67.525,36.058C67.472,36.049 67.428,36.022 67.374,36.005C67.366,36.005 67.354,35.995 67.349,35.995C67.304,35.978 67.25,35.969 67.196,35.942C67.153,35.925 67.099,35.898 67.046,35.889C67.046,35.889 67.038,35.88 67.028,35.88C66.974,35.863 66.922,35.853 66.878,35.827C66.869,35.818 66.86,35.818 66.851,35.81C66.745,35.783 66.638,35.747 66.532,35.712C66.523,35.712 66.515,35.712 66.505,35.703C66.462,35.694 66.399,35.676 66.346,35.65L66.337,35.65C66.284,35.632 66.22,35.614 66.179,35.596L66.169,35.596C66.106,35.578 66.053,35.56 65.999,35.543C65.987,35.534 65.983,35.534 65.974,35.534C65.921,35.525 65.858,35.499 65.806,35.49C65.743,35.472 65.69,35.454 65.637,35.428L65.617,35.428C65.557,35.41 65.495,35.393 65.442,35.383C65.431,35.375 65.431,35.375 65.42,35.375C64.946,35.233 64.468,35.1 63.97,34.985C63.89,34.966 63.811,34.94 63.718,34.932C63.643,34.905 63.562,34.887 63.483,34.86C63.403,34.851 63.323,34.833 63.243,34.816L63.234,34.816C63.15,34.789 63.075,34.772 63.001,34.753L62.995,34.753L62.995,32.935C63.464,33.378 63.909,33.831 64.343,34.292C65.42,34.576 66.399,34.887 67.224,35.188C62.419,28.924 55.009,24.763 46.622,24.284L46.622,25.899C52.277,26.245 57.437,28.365 61.577,31.71L60.371,31.71C56.489,28.809 51.764,26.963 46.622,26.653L46.622,31.692L45.86,31.692ZM26.818,70.306C30.94,74.467 36.48,77.22 42.65,77.788L42.764,78.542C34.903,77.894 28.013,73.758 23.634,67.706C24.114,67.688 24.46,67.733 24.594,67.751C25.267,68.629 25.985,69.463 26.757,70.253C26.783,70.279 26.801,70.289 26.818,70.306ZM18.122,41.222C18.069,41 18.112,40.778 18.149,40.734L18.513,40.05C18.52,40.033 18.52,40.023 18.52,40.023C18.636,39.944 18.796,39.899 19.009,39.882L19.054,39.882C19.104,39.873 19.159,39.864 19.213,39.864C19.399,39.864 19.612,39.891 19.849,39.917C20.312,39.997 20.86,40.113 21.491,40.308C21.712,40.37 21.952,40.45 22.2,40.529C22.288,40.547 22.368,40.582 22.457,40.609C22.499,40.618 22.546,40.636 22.589,40.654C22.634,40.662 22.679,40.689 22.714,40.698C22.759,40.707 22.802,40.734 22.847,40.734L22.855,40.742C22.9,40.761 22.944,40.778 22.979,40.787L22.989,40.787C23.033,40.805 23.075,40.822 23.113,40.84L23.121,40.84C23.167,40.858 23.21,40.867 23.253,40.885C23.253,40.893 23.263,40.893 23.263,40.893C23.308,40.902 23.353,40.929 23.396,40.938L23.405,40.938C23.446,40.964 23.494,40.982 23.538,40.991L23.548,40.991C23.592,41.018 23.634,41.027 23.681,41.044C23.681,41.044 23.681,41.053 23.688,41.053C23.733,41.062 23.778,41.08 23.813,41.098L23.829,41.098C23.876,41.124 23.919,41.133 23.955,41.16C23.964,41.16 23.973,41.16 23.981,41.168C24.015,41.177 24.062,41.186 24.105,41.204C24.114,41.213 24.114,41.222 24.124,41.222C24.168,41.23 24.21,41.257 24.248,41.257C24.257,41.267 24.265,41.267 24.274,41.275C24.319,41.293 24.354,41.301 24.395,41.32C24.407,41.328 24.417,41.328 24.423,41.337C24.47,41.354 24.505,41.364 24.549,41.381C24.567,41.381 24.571,41.391 24.581,41.391C24.629,41.417 24.664,41.426 24.7,41.444C24.708,41.453 24.727,41.453 24.735,41.453C24.777,41.47 24.815,41.488 24.851,41.497C24.868,41.506 24.878,41.515 24.895,41.515C24.931,41.541 24.964,41.55 25.01,41.559C25.019,41.568 25.027,41.577 25.045,41.577C25.09,41.594 25.125,41.621 25.17,41.63C25.179,41.639 25.187,41.647 25.204,41.647C25.24,41.657 25.284,41.674 25.319,41.692C25.329,41.701 25.345,41.71 25.364,41.71C25.399,41.727 25.436,41.736 25.471,41.754C25.489,41.763 25.507,41.772 25.522,41.781C25.558,41.789 25.595,41.807 25.63,41.826C25.657,41.826 25.666,41.834 25.692,41.843C25.728,41.86 25.763,41.879 25.799,41.887C25.815,41.896 25.835,41.905 25.853,41.914C25.888,41.932 25.923,41.94 25.958,41.958C25.976,41.967 25.994,41.976 26.013,41.994C26.048,42.003 26.091,42.02 26.118,42.029C26.136,42.037 26.162,42.056 26.181,42.056C26.216,42.074 26.251,42.091 26.284,42.1C26.304,42.118 26.321,42.127 26.349,42.136C26.375,42.144 26.411,42.162 26.446,42.18C26.47,42.18 26.491,42.198 26.518,42.206C26.553,42.216 26.589,42.233 26.614,42.251C26.642,42.26 26.665,42.26 26.686,42.277C26.729,42.295 26.765,42.304 26.81,42.331C26.827,42.34 26.837,42.34 26.851,42.357C26.916,42.384 26.97,42.411 27.03,42.419L27.03,43.271C25.019,42.375 23.272,41.674 21.854,41.222C21.614,41.133 21.374,41.062 21.145,41L21.153,41C20.516,40.814 19.957,40.698 19.514,40.636C19.487,40.636 19.466,40.636 19.442,40.627L19.435,40.627C19.417,40.627 19.39,40.618 19.372,40.618L19.302,40.618C19.29,40.618 19.284,40.618 19.284,40.609L19.204,40.609C19.194,40.609 19.177,40.609 19.159,40.601L18.964,40.601C18.884,40.601 18.796,40.601 18.714,40.609C18.441,40.636 18.202,40.761 18.122,41.222ZM42.659,26.697C37.811,27.132 33.36,28.924 29.673,31.683L28.476,31.683C32.456,28.463 37.376,26.395 42.764,25.943L42.659,26.697ZM22.448,35.641C22.466,35.65 22.474,35.65 22.483,35.65C22.474,35.65 22.466,35.65 22.448,35.641ZM20.772,36.404C20.772,36.404 20.781,36.404 20.79,36.395L20.817,36.395C20.825,36.377 20.833,36.377 20.853,36.377L20.888,36.377C20.897,36.369 20.905,36.369 20.905,36.369C20.915,36.369 20.932,36.369 20.94,36.359L20.95,36.359C20.983,36.359 21.019,36.351 21.056,36.342C21.178,36.324 21.323,36.315 21.482,36.315L21.535,36.315C21.659,36.315 21.802,36.324 21.952,36.332C21.978,36.342 22.014,36.342 22.041,36.351L22.05,36.359C22.138,36.369 22.235,36.377 22.333,36.395C22.368,36.395 22.395,36.404 22.438,36.412C22.534,36.43 22.643,36.457 22.749,36.466C22.784,36.475 22.82,36.484 22.855,36.493L22.864,36.493C22.971,36.519 23.087,36.546 23.201,36.572C23.583,36.661 23.999,36.785 24.442,36.928C24.478,36.936 24.522,36.954 24.567,36.963C24.581,36.972 24.594,36.972 24.603,36.972C24.647,36.99 24.683,37.007 24.727,37.017C24.735,37.025 24.743,37.025 24.753,37.034C24.886,37.07 25.019,37.123 25.138,37.167C25.17,37.176 25.187,37.176 25.214,37.185C25.249,37.194 25.284,37.211 25.319,37.22C25.345,37.229 25.364,37.238 25.391,37.256C25.427,37.256 25.462,37.273 25.497,37.291C25.55,37.309 25.612,37.327 25.666,37.344C25.692,37.363 25.728,37.371 25.755,37.38C25.79,37.389 25.825,37.407 25.853,37.416C25.888,37.424 25.911,37.442 25.95,37.451C25.985,37.46 26.02,37.477 26.056,37.495C26.091,37.495 26.109,37.513 26.136,37.521C26.197,37.548 26.269,37.575 26.331,37.601C26.349,37.611 26.357,37.62 26.375,37.62C26.429,37.646 26.479,37.655 26.534,37.682C26.553,37.69 26.57,37.7 26.606,37.708C26.649,37.726 26.703,37.744 26.757,37.761C26.774,37.779 26.792,37.779 26.818,37.788C26.878,37.814 26.96,37.85 27.022,37.877L27.022,36.245C26.783,36.298 26.544,36.342 26.313,36.395C26.109,36.439 25.895,36.493 25.692,36.537C25.63,36.519 25.568,36.493 25.507,36.475C25.479,36.466 25.444,36.457 25.417,36.448C25.391,36.43 25.356,36.422 25.329,36.412C25.303,36.404 25.267,36.395 25.223,36.377C25.204,36.369 25.187,36.359 25.161,36.359C25.125,36.332 25.09,36.332 25.054,36.315C25.027,36.306 25.01,36.298 24.983,36.298C24.514,36.138 24.071,36.005 23.663,35.889L23.643,35.889C23.608,35.889 23.573,35.88 23.538,35.863C23.52,35.863 23.52,35.863 23.513,35.853C23.474,35.853 23.437,35.845 23.396,35.836C23.396,35.836 23.396,35.827 23.388,35.827C23.343,35.81 23.3,35.81 23.263,35.8C23.253,35.8 23.253,35.8 23.246,35.792C23.253,35.8 23.253,35.8 23.263,35.8C23.317,35.783 23.37,35.765 23.423,35.747C23.433,35.747 23.433,35.739 23.433,35.739C23.494,35.72 23.548,35.703 23.601,35.694C23.601,35.694 23.608,35.685 23.618,35.685C23.681,35.659 23.733,35.641 23.796,35.623C23.919,35.587 24.035,35.552 24.168,35.517L24.168,35.507C24.23,35.49 24.292,35.481 24.354,35.454L24.363,35.454C25.17,35.215 26.056,34.985 27.022,34.772L27.022,33.973C27.022,33.973 27.013,33.973 27.004,33.981C27.013,33.973 27.022,33.973 27.022,33.964L27.022,32.944C26.553,33.387 26.091,33.849 25.657,34.31C24.558,34.603 23.583,34.905 22.759,35.224C27.491,29.039 34.761,24.878 43.005,24.293L43.118,23.548C34.228,24.116 26.446,28.738 21.579,35.587C21.167,35.605 20.87,35.694 20.666,35.836C20.666,35.853 20.666,35.863 20.657,35.863L20.239,36.617C20.229,36.625 20.17,36.812 20.205,36.981C20.239,36.724 20.399,36.511 20.772,36.404Z" style="fill:rgb(244,166,52);fill-rule:nonzero;"/><path d="M18.841,48.932C19.15,46.51 19.771,44.194 20.685,42.029C20.214,41.586 19.698,41.31 19.29,41.133C18.14,43.812 17.386,46.705 17.13,49.74C17.588,49.473 18.176,49.198 18.841,48.932ZM69.174,62.835C69.652,63.323 70.042,63.767 70.335,64.166C71.833,60.998 72.747,57.494 72.95,53.811C72.348,53.617 71.808,53.537 71.354,53.51C71.204,56.802 70.433,59.961 69.174,62.835ZM21.331,63.873C19.78,60.715 18.841,57.201 18.671,53.51C18.229,53.528 17.661,53.617 17.047,53.821C17.27,57.68 18.272,61.336 19.884,64.645C20.265,64.388 20.765,64.122 21.331,63.873ZM46.632,78.586L46.632,80.228C54.884,79.749 62.18,75.703 66.993,69.587C66.647,69.339 66.159,69.046 65.54,68.807C61.019,74.414 54.263,78.125 46.632,78.586ZM23.634,67.706C23.147,67.715 22.519,67.786 21.854,67.99C26.534,74.895 34.216,79.58 43.015,80.21L42.764,78.542C34.903,77.894 28.013,73.758 23.634,67.706ZM46.622,25.899C52.277,26.245 57.437,28.365 61.577,31.71L62.995,31.71L62.995,32.935C63.464,33.378 63.909,33.831 64.343,34.292C65.42,34.576 66.399,34.887 67.224,35.188C62.419,28.924 55.009,24.763 46.622,24.284L46.622,25.899ZM69.909,39.456C69.156,39.323 68.481,39.287 67.985,39.279C69.635,42.198 70.743,45.463 71.177,48.932C71.843,49.198 72.425,49.473 72.888,49.74C72.561,46.057 71.522,42.588 69.909,39.456ZM22.759,35.224C27.491,29.039 34.761,24.878 43.005,24.293L42.764,25.943C37.376,26.395 32.456,28.463 28.476,31.683L27.022,31.683L27.022,32.944C26.553,33.387 26.091,33.849 25.657,34.31C24.558,34.603 23.583,34.905 22.759,35.224Z" style="fill:rgb(249,230,41);fill-rule:nonzero;"/><path d="M69.466,36.99C68.154,36.129 65.54,35.33 62.995,34.753L62.995,36.315C66.185,36.981 69.03,37.805 70.272,38.4L69.466,36.99Z" style="fill:rgb(249,230,41);fill-rule:nonzero;"/><path d="M25.692,36.537C26.118,36.439 26.562,36.332 27.022,36.245L27.022,34.772C25.595,35.091 24.31,35.446 23.263,35.8C23.946,35.969 24.761,36.208 25.692,36.537Z" style="fill:rgb(249,230,41);fill-rule:nonzero;"/><path d="M27.03,47.539C26.757,47.592 26.491,47.636 26.225,47.689C22.173,48.471 17.635,49.899 16.331,51.221C16.294,51.266 16.243,51.31 16.189,51.345L16.189,52.863C17.333,51.736 21.243,50.343 26.073,49.384C26.384,49.313 26.712,49.26 27.03,49.198L27.03,47.539Z" style="fill:rgb(249,230,41);"/><path d="M73.678,51.221C72.374,49.899 67.845,48.471 63.784,47.689C63.527,47.636 63.261,47.592 62.995,47.548L62.995,49.198C63.313,49.26 63.624,49.313 63.943,49.384C68.757,50.343 72.647,51.726 73.811,52.854L73.811,51.345C73.755,51.301 73.713,51.256 73.678,51.221Z" style="fill:rgb(249,230,41);"/><path d="M28.388,62.516C27.306,62.755 26.261,63.022 25.249,63.323C22.812,64.015 20.17,65.098 19.663,65.932C19.663,65.94 19.655,65.95 19.646,65.958L20.532,67.405C21.073,66.739 22.892,65.763 25.755,64.947C26.897,64.619 28.013,64.344 29.141,64.095C28.856,63.589 28.609,63.057 28.388,62.516Z" style="fill:rgb(249,230,41);"/><rect x="44.176" y="23.362" width="1.684" height="8.33" style="fill:rgb(249,230,41);"/><path d="M44.981,73.686C44.716,73.686 44.439,73.678 44.176,73.668L44.176,81.23L45.86,81.23L45.86,73.651C45.562,73.678 45.274,73.686 44.981,73.686Z" style="fill:rgb(249,230,41);"/><path d="M70.185,65.364C69.077,63.625 66.193,61.15 62.765,58.567C62.525,60.076 62.081,61.522 61.487,62.889C65.3,65.727 67.942,68.061 68.322,69.232L70.459,65.95C70.433,65.781 70.345,65.586 70.185,65.364Z" style="fill:rgb(249,230,41);"/><path d="M27.022,37.877C24.522,36.857 22.661,36.332 21.535,36.315L21.482,36.315C21.189,36.315 20.958,36.351 20.772,36.404L19,39.882C19.062,39.882 19.142,39.864 19.213,39.864C20.586,39.864 23.396,40.814 27.03,42.419L27.022,37.877Z" style="fill:rgb(249,230,41);"/><path d="M67.772,69.942C67.772,69.924 67.765,69.915 67.765,69.889C67.755,69.871 67.746,69.844 67.738,69.836C67.72,69.765 67.685,69.694 67.649,69.623C67.41,69.126 66.728,68.336 65.699,67.387C65.69,67.378 65.681,67.369 65.681,67.36C65.681,67.36 65.663,67.36 65.663,67.351L65.663,67.36C64.564,66.322 63.04,65.08 61.134,63.634C60.256,65.408 59.085,67.023 57.702,68.407C56.089,70.013 54.166,71.327 52.03,72.248C54.796,72 57.428,71.645 59.548,71.202C60.31,71.087 61.594,70.812 63.04,70.466C63.643,69.862 64.228,69.232 64.777,68.567C66.364,68.957 67.304,69.809 67.54,70.084C67.41,70.253 67.269,70.421 67.122,70.608L67.328,70.608C67.392,70.608 67.445,70.608 67.505,70.59C67.604,70.555 67.922,70.492 67.782,69.951C67.772,69.951 67.772,69.951 67.772,69.942ZM73.94,54.016L73.931,54.016L73.931,54.007C73.931,54.007 73.931,53.998 73.925,53.989C73.917,53.989 73.917,53.989 73.917,53.98L73.907,53.971L73.907,53.953L73.891,53.953L73.891,53.945L73.882,53.936L73.882,53.927L73.872,53.918L73.872,53.91L73.854,53.91C73.854,53.91 73.854,53.892 73.845,53.892C73.837,53.883 73.827,53.874 73.819,53.856C73.792,53.829 73.755,53.785 73.722,53.75C73.668,53.678 73.595,53.617 73.519,53.546C73.02,53.129 72.214,52.685 71.222,52.268C71.044,52.188 70.841,52.118 70.645,52.037L70.645,52.339C68.057,53.146 64.936,53.75 62.995,54.087L62.995,55.728C62.995,56.234 62.966,56.74 62.925,57.237C65.858,56.775 68.454,56.199 70.415,55.658C70.512,54.948 70.574,54.229 70.618,53.51C71.159,53.466 72.374,53.466 73.678,54.113C73.668,54.247 73.668,54.38 73.65,54.513C73.774,54.451 73.872,54.389 73.952,54.335C74.015,54.229 73.987,54.122 73.952,54.034C73.952,54.034 73.94,54.034 73.94,54.016ZM69.958,66.722L70.042,66.722C70.104,66.722 70.165,66.722 70.211,66.704C70.345,66.651 70.548,66.367 70.459,65.95L69.958,66.722ZM69.937,37.575C70.007,37.513 70.016,37.416 69.759,37.203C69.671,37.131 69.573,37.052 69.466,36.99L69.821,37.62C69.865,37.611 69.901,37.601 69.937,37.575ZM73.97,51.789C74.085,51.673 73.94,51.487 73.811,51.345L73.811,51.815C73.872,51.815 73.94,51.807 73.987,51.789L73.97,51.789ZM62.995,38.826L62.995,42.091C64.946,41.701 66.657,41.275 68.003,40.893C67.738,40.343 67.445,39.811 67.144,39.287C67.525,39.296 69.057,39.163 70.858,39.669L70.858,39.661C70.894,39.749 70.938,39.828 70.974,39.917C70.991,39.917 71.009,39.899 71.026,39.899C71.044,39.899 71.062,39.891 71.079,39.882C71.169,39.838 71.267,39.714 70.981,39.545C70.902,39.501 70.823,39.456 70.732,39.412C69.751,38.897 68.216,38.383 66.239,37.868C66.267,37.903 66.292,37.948 66.319,37.992C65.389,38.267 64.28,38.569 62.995,38.826Z" style="fill:rgb(41,41,41);fill-rule:nonzero;"/><path d="M19.646,65.958C19.612,66.02 19.55,66.127 19.559,66.18C19.567,66.243 19.603,66.278 19.698,66.313C19.671,66.313 19.655,66.305 19.638,66.305C19.718,66.322 19.798,66.322 19.878,66.322L19.646,65.958ZM32.314,68.354C32.252,68.291 32.198,68.239 32.138,68.177C29.425,67.768 26.649,67.245 23.778,66.588C23.743,66.553 23.716,66.518 23.688,66.482C22.395,66.988 21.349,67.555 20.94,68.114C20.888,68.167 20.781,68.354 21.019,68.505L21.003,68.505C21.145,68.567 21.287,68.62 21.411,68.673C21.323,68.531 21.243,68.407 21.153,68.265C22.741,67.529 24.274,67.706 24.594,67.751C25.276,68.664 26.02,69.517 26.818,70.306C29.921,71.087 33.679,71.744 37.802,72.142C35.763,71.228 33.901,69.924 32.314,68.354ZM43.118,80.937C43.218,80.946 43.305,80.956 43.413,80.964L43.413,77.859C43.155,77.84 42.907,77.814 42.65,77.788L43.118,80.937ZM27.03,55.693L27.03,54.087C25.09,53.75 21.968,53.146 19.381,52.339L19.381,52.037C19.079,52.152 18.806,52.268 18.537,52.384C18.3,52.481 18.069,52.587 17.856,52.685C17.848,52.694 17.839,52.703 17.839,52.703C17.82,52.711 17.812,52.711 17.794,52.721C17.207,53.014 16.739,53.324 16.419,53.617C16.366,53.652 16.322,53.705 16.286,53.741C16.252,53.785 16.226,53.821 16.189,53.856C16.181,53.874 16.172,53.883 16.163,53.892L16.154,53.91L16.145,53.91L16.145,53.918L16.136,53.918C16.136,53.918 16.136,53.927 16.127,53.936L16.127,53.953L16.109,53.953L16.109,53.971L16.101,53.98L16.093,53.98L16.093,53.989L16.083,53.998L16.083,54.016L16.072,54.016L16.072,54.034L16.061,54.034L16.061,54.051C16.057,54.06 16.057,54.069 16.057,54.069L16.048,54.078L16.048,54.096L16.038,54.104L16.038,54.113C16.03,54.122 16.03,54.122 16.03,54.131L16.03,54.149L16.02,54.149L16.02,54.256L16.03,54.264L16.03,54.282L16.038,54.282L16.048,54.3L16.048,54.309L16.057,54.309C16.057,54.317 16.057,54.317 16.061,54.327L16.061,54.344C16.145,54.397 16.243,54.459 16.358,54.513C16.349,54.38 16.341,54.247 16.331,54.113C17.652,53.466 18.876,53.466 19.407,53.519C19.442,54.238 19.505,54.948 19.603,55.658C21.56,56.207 24.159,56.775 27.102,57.237C27.046,56.731 27.03,56.216 27.03,55.693ZM18.282,41.647C18.388,41.391 18.485,41.142 18.601,40.893C18.955,40.982 20.302,41.399 21.243,42.623C21.019,43.147 20.825,43.671 20.657,44.212C21.659,45.081 22.962,46.075 24.567,47.228C25.062,47.113 25.558,47.016 26.073,46.917C26.384,46.847 26.712,46.793 27.03,46.74L27.03,43.271C25.099,42.411 23.396,41.727 22.014,41.267L22.005,41.267C21.987,41.257 21.961,41.257 21.94,41.248C21.925,41.24 21.899,41.23 21.872,41.222L21.854,41.222C20.6,40.814 19.63,40.601 18.964,40.601C18.884,40.601 18.796,40.601 18.714,40.609C18.698,40.609 18.688,40.609 18.681,40.618L18.628,40.618C18.618,40.618 18.601,40.627 18.583,40.627L18.583,40.636C18.37,40.689 18.192,40.831 18.122,41.222C18.112,41.186 18.112,41.168 18.112,41.142C18.112,41.177 18.112,41.204 18.122,41.248C18.155,41.364 18.21,41.497 18.282,41.647ZM43.413,23.521C43.305,23.539 43.218,23.539 43.118,23.539L42.65,26.715C42.907,26.67 43.155,26.653 43.413,26.635L43.413,23.521ZM16.189,51.815L16.189,51.345C16.057,51.496 15.923,51.673 16.03,51.789C16.072,51.807 16.127,51.815 16.189,51.815ZM20.302,37.318C20.259,37.203 20.224,37.087 20.214,36.972C20.239,36.724 20.399,36.511 20.772,36.404L20.302,37.318Z" style="fill:rgb(41,41,41);fill-rule:nonzero;"/><path d="M44.92,73.934C34.052,73.934 26.757,64.716 26.757,56.109L26.757,31.586L63.093,31.586L63.093,56.109C63.093,64.716 55.797,73.934 44.92,73.934Z" style="fill:rgb(254,254,254);fill-rule:nonzero;"/><path d="M55.009,56.109C55.009,60.271 51.187,65.834 44.92,65.834C38.653,65.834 34.851,60.271 34.851,56.109L34.851,39.678L55.009,39.678L55.009,56.109ZM27.972,32.802L27.972,56.109C27.972,64.122 34.778,72.709 44.92,72.709C55.071,72.709 61.878,64.122 61.878,56.109L61.878,32.802L27.972,32.802Z" style="fill:rgb(229,64,64);fill-rule:nonzero;"/><path d="M30.45,38.143C30.497,36.848 31.489,36.546 31.499,36.546C31.508,36.546 32.491,36.848 32.536,38.143L30.45,38.143ZM33.706,38.143L33.636,38.143L33.474,36.599C33.687,36.572 33.839,36.412 33.839,36.218C33.839,35.995 33.659,35.836 33.449,35.836L33.405,35.836L33.36,35.135L33.529,35.135C33.564,35.135 33.6,35.109 33.6,35.064L33.6,34.576L33.369,34.576L33.369,34.825L33.06,34.825L33.06,34.576L32.802,34.576L32.802,34.825L32.491,34.825L32.491,34.576L32.27,34.576L32.27,35.055C32.27,35.091 32.306,35.135 32.339,35.135L32.51,35.135L32.474,35.836L32.039,35.836L31.958,34.346L32.084,34.346C32.128,34.346 32.153,34.328 32.153,34.274L32.153,33.786L31.925,33.786L31.925,34.017L31.612,34.017L31.612,33.786L31.375,33.786L31.375,34.017L31.056,34.017L31.056,33.786L30.833,33.786L30.833,34.274C30.833,34.301 30.86,34.337 30.905,34.346L31.018,34.346L30.94,35.836L30.507,35.836L30.462,35.135L30.63,35.135C30.663,35.135 30.71,35.109 30.71,35.064L30.71,34.576L30.488,34.576L30.488,34.825L30.161,34.825L30.161,34.576L29.921,34.576L29.921,34.825L29.593,34.825L29.593,34.576L29.371,34.576L29.371,35.055C29.371,35.091 29.407,35.135 29.46,35.135L29.61,35.135L29.575,35.836L29.54,35.836C29.327,35.836 29.147,35.995 29.147,36.218C29.147,36.412 29.307,36.572 29.503,36.59L29.353,38.143L29.282,38.143C29.079,38.143 28.901,38.32 28.901,38.524C28.901,38.729 29.079,38.897 29.282,38.897L33.706,38.897C33.919,38.897 34.097,38.729 34.097,38.524C34.097,38.32 33.919,38.143 33.706,38.143Z" style="fill:rgb(249,230,41);"/><path d="M43.937,38.143C43.989,36.848 44.974,36.546 44.981,36.546C44.991,36.546 45.975,36.848 46.036,38.143L43.937,38.143ZM47.208,38.143L47.11,38.143L46.968,36.599C47.181,36.572 47.322,36.412 47.322,36.218C47.322,35.995 47.145,35.836 46.941,35.836L46.888,35.836L46.844,35.135L47.02,35.135C47.057,35.135 47.081,35.109 47.081,35.064L47.081,34.576L46.87,34.576L46.87,34.825L46.533,34.825L46.533,34.576L46.303,34.576L46.303,34.825L45.975,34.825L45.975,34.576L45.761,34.576L45.761,35.055C45.761,35.091 45.807,35.135 45.833,35.135L46.001,35.135L45.956,35.836L45.532,35.836L45.452,34.346L45.562,34.346C45.603,34.346 45.647,34.328 45.647,34.274L45.647,33.786L45.425,33.786L45.425,34.017L45.098,34.017L45.098,33.786L44.867,33.786L44.867,34.017L44.539,34.017L44.539,33.786L44.317,33.786L44.317,34.274C44.317,34.301 44.353,34.337 44.397,34.346L44.52,34.346L44.439,35.836L44.007,35.836L43.954,35.135L44.113,35.135C44.149,35.135 44.202,35.109 44.202,35.064L44.202,34.576L43.963,34.576L43.963,34.825L43.644,34.825L43.644,34.576L43.422,34.576L43.422,34.825L43.085,34.825L43.085,34.576L42.872,34.576L42.872,35.055C42.872,35.091 42.907,35.135 42.943,35.135L43.112,35.135L43.067,35.836L43.032,35.836C42.819,35.836 42.642,35.995 42.642,36.218C42.642,36.412 42.802,36.572 42.996,36.59L42.837,38.143L42.784,38.143C42.562,38.143 42.402,38.32 42.402,38.524C42.402,38.729 42.562,38.897 42.784,38.897L47.208,38.897C47.411,38.897 47.579,38.729 47.579,38.524C47.579,38.32 47.411,38.143 47.208,38.143Z" style="fill:rgb(249,230,41);"/><path d="M57.302,38.143C57.349,36.848 58.342,36.546 58.342,36.546L58.358,36.546C58.358,36.546 59.343,36.848 59.404,38.143L57.302,38.143ZM60.566,38.143L60.495,38.143L60.336,36.599C60.54,36.572 60.69,36.412 60.69,36.218C60.69,35.995 60.511,35.836 60.301,35.836L60.256,35.836L60.221,35.135L60.38,35.135C60.415,35.135 60.45,35.109 60.45,35.064L60.45,34.576L60.229,34.576L60.229,34.825L59.901,34.825L59.901,34.576L59.662,34.576L59.662,34.825L59.343,34.825L59.343,34.576L59.121,34.576L59.121,35.055C59.121,35.091 59.157,35.135 59.201,35.135L59.36,35.135L59.325,35.836L58.908,35.836L58.809,34.346L58.935,34.346C58.979,34.346 59.015,34.328 59.015,34.274L59.015,33.786L58.794,33.786L58.794,34.017L58.463,34.017L58.463,33.786L58.235,33.786L58.235,34.017L57.907,34.017L57.907,33.786L57.683,33.786L57.683,34.274C57.683,34.301 57.72,34.337 57.766,34.346L57.88,34.346L57.8,35.836L57.357,35.836L57.329,35.135L57.487,35.135C57.515,35.135 57.569,35.109 57.569,35.064L57.569,34.576L57.329,34.576L57.329,34.825L57.011,34.825L57.011,34.576L56.781,34.576L56.781,34.825L56.453,34.825L56.453,34.576L56.231,34.576L56.231,35.055C56.231,35.091 56.267,35.135 56.303,35.135L56.472,35.135L56.427,35.836L56.392,35.836C56.179,35.836 56.007,35.995 56.007,36.218C56.007,36.412 56.151,36.572 56.353,36.59L56.214,38.143L56.134,38.143C55.931,38.143 55.762,38.32 55.762,38.524C55.762,38.729 55.931,38.897 56.134,38.897L60.566,38.897C60.788,38.897 60.948,38.729 60.948,38.524C60.948,38.32 60.788,38.143 60.566,38.143Z" style="fill:rgb(249,230,41);"/><path d="M30.45,52.064C30.497,50.768 31.489,50.467 31.499,50.467C31.508,50.467 32.491,50.768 32.536,52.064L30.45,52.064ZM33.706,52.064L33.636,52.064L33.474,50.512C33.687,50.502 33.839,50.343 33.839,50.139C33.839,49.917 33.659,49.748 33.449,49.748L33.405,49.748L33.36,49.065L33.529,49.065C33.564,49.065 33.6,49.038 33.6,48.985L33.6,48.497L33.369,48.497L33.369,48.746L33.06,48.746L33.06,48.497L32.802,48.497L32.802,48.746L32.491,48.746L32.491,48.497L32.27,48.497L32.27,48.985C32.27,49.021 32.306,49.065 32.339,49.065L32.51,49.065L32.474,49.748L32.039,49.748L31.958,48.267L32.084,48.267C32.128,48.267 32.153,48.24 32.153,48.195L32.153,47.708L31.925,47.708L31.925,47.947L31.612,47.947L31.612,47.708L31.375,47.708L31.375,47.947L31.056,47.947L31.056,47.708L30.833,47.708L30.833,48.187C30.833,48.222 30.86,48.258 30.905,48.267L31.018,48.267L30.94,49.748L30.507,49.748L30.462,49.065L30.63,49.065C30.663,49.065 30.71,49.038 30.71,48.985L30.71,48.497L30.488,48.497L30.488,48.746L30.161,48.746L30.161,48.497L29.921,48.497L29.921,48.746L29.593,48.746L29.593,48.497L29.371,48.497L29.371,48.985C29.371,49.021 29.407,49.065 29.46,49.065L29.61,49.065L29.575,49.748L29.54,49.748C29.327,49.748 29.147,49.917 29.147,50.139C29.147,50.333 29.307,50.485 29.503,50.512L29.353,52.064L29.282,52.064C29.079,52.064 28.901,52.224 28.901,52.445C28.901,52.65 29.079,52.8 29.282,52.8L33.706,52.8C33.919,52.8 34.097,52.65 34.097,52.445C34.097,52.224 33.919,52.064 33.706,52.064Z" style="fill:rgb(249,230,41);"/><path d="M57.302,52.064C57.349,50.768 58.342,50.467 58.342,50.467L58.358,50.467C58.358,50.467 59.343,50.768 59.404,52.064L57.302,52.064ZM60.566,52.064L60.495,52.064L60.336,50.512C60.54,50.502 60.69,50.343 60.69,50.139C60.69,49.917 60.511,49.748 60.301,49.748L60.256,49.748L60.221,49.065L60.38,49.065C60.415,49.065 60.45,49.038 60.45,48.985L60.45,48.497L60.229,48.497L60.229,48.746L59.901,48.746L59.901,48.497L59.662,48.497L59.662,48.746L59.343,48.746L59.343,48.497L59.121,48.497L59.121,48.985C59.121,49.021 59.157,49.065 59.201,49.065L59.36,49.065L59.325,49.748L58.908,49.748L58.809,48.267L58.935,48.267C58.979,48.267 59.015,48.24 59.015,48.195L59.015,47.708L58.794,47.708L58.794,47.947L58.463,47.947L58.463,47.708L58.235,47.708L58.235,47.947L57.907,47.947L57.907,47.708L57.683,47.708L57.683,48.187C57.683,48.222 57.72,48.258 57.766,48.267L57.88,48.267L57.8,49.748L57.357,49.748L57.329,49.065L57.487,49.065C57.515,49.065 57.569,49.038 57.569,48.985L57.569,48.497L57.329,48.497L57.329,48.746L57.011,48.746L57.011,48.497L56.781,48.497L56.781,48.746L56.453,48.746L56.453,48.497L56.231,48.497L56.231,48.985C56.231,49.021 56.267,49.065 56.303,49.065L56.472,49.065L56.427,49.748L56.392,49.748C56.179,49.748 56.007,49.917 56.007,50.139C56.007,50.333 56.151,50.485 56.353,50.512L56.214,52.064L56.134,52.064C55.931,52.064 55.762,52.224 55.762,52.445C55.762,52.65 55.931,52.8 56.134,52.8L60.566,52.8C60.788,52.8 60.948,52.65 60.948,52.445C60.948,52.224 60.788,52.064 60.566,52.064Z" style="fill:rgb(249,230,41);"/><path d="M35.329,66.526C34.449,65.568 34.947,64.663 34.947,64.654C34.966,64.654 35.868,64.14 36.817,65.035L35.329,66.526ZM37.631,64.201L37.58,64.264L36.392,63.279C36.517,63.119 36.517,62.906 36.366,62.755C36.215,62.613 35.956,62.613 35.817,62.755L35.78,62.8L35.275,62.348L35.302,62.321L35.391,62.223C35.418,62.206 35.426,62.161 35.391,62.117L35.054,61.77L34.894,61.922L35.062,62.117L34.832,62.348L34.664,62.161L34.486,62.321L34.664,62.498L34.423,62.729L34.274,62.56L34.104,62.72L34.433,63.057C34.468,63.083 34.521,63.083 34.558,63.057L34.635,62.977L34.673,62.933L35.125,63.438L34.821,63.731L33.706,62.755L33.812,62.685C33.839,62.649 33.846,62.596 33.812,62.569L33.474,62.223L33.299,62.383L33.474,62.56L33.245,62.782L33.077,62.613L32.906,62.782L33.077,62.942L32.847,63.19L32.678,63.013L32.514,63.172L32.855,63.509C32.882,63.536 32.933,63.536 32.971,63.509L33.06,63.421L34.041,64.53L33.741,64.84L33.219,64.397L33.245,64.361L33.335,64.281C33.36,64.247 33.369,64.201 33.343,64.166L32.989,63.82L32.837,63.98L33.006,64.14L32.784,64.388L32.616,64.201L32.438,64.379L32.616,64.548L32.395,64.769L32.218,64.61L32.057,64.761L32.395,65.107C32.421,65.124 32.474,65.133 32.51,65.107L32.598,65.009L32.624,64.991L33.077,65.488L33.06,65.523C32.899,65.684 32.899,65.932 33.06,66.065C33.201,66.206 33.423,66.206 33.582,66.1L34.558,67.289L34.504,67.351C34.353,67.485 34.353,67.733 34.504,67.884C34.664,68.035 34.903,68.035 35.054,67.884L38.183,64.751C38.325,64.601 38.325,64.361 38.183,64.22C38.023,64.051 37.774,64.051 37.631,64.201Z" style="fill:rgb(249,230,41);"/><path d="M53.253,65.035C54.21,64.14 55.104,64.654 55.114,64.654C55.124,64.663 55.6,65.568 54.733,66.526L53.253,65.035ZM51.888,64.22C51.746,64.361 51.746,64.601 51.888,64.751L55.017,67.884C55.159,68.035 55.405,68.035 55.567,67.884C55.708,67.733 55.708,67.485 55.567,67.351L55.505,67.289L56.497,66.1C56.647,66.206 56.879,66.206 57.011,66.065C57.171,65.932 57.171,65.684 57.011,65.523L56.994,65.488L57.437,64.991L57.478,65.009L57.562,65.107C57.597,65.133 57.649,65.124 57.675,65.107L58.014,64.761L57.853,64.61L57.683,64.769L57.454,64.548L57.614,64.379L57.454,64.201L57.286,64.388L57.056,64.14L57.224,63.98L57.073,63.82L56.728,64.166C56.692,64.201 56.702,64.247 56.728,64.281L56.815,64.361L56.843,64.397L56.319,64.84L56.028,64.53L57.011,63.421L57.101,63.509C57.135,63.536 57.188,63.536 57.207,63.509L57.544,63.172L57.393,63.013L57.224,63.19L56.994,62.942L57.162,62.782L56.994,62.613L56.834,62.782L56.586,62.56L56.761,62.383L56.603,62.223L56.258,62.569C56.223,62.596 56.241,62.649 56.267,62.685L56.353,62.755L55.238,63.731L54.945,63.438L55.397,62.933L55.425,62.977L55.505,63.057C55.54,63.083 55.6,63.083 55.61,63.057L55.966,62.72L55.797,62.56L55.626,62.729L55.405,62.498L55.576,62.321L55.405,62.161L55.238,62.348L55.009,62.117L55.185,61.922L55.017,61.77L54.681,62.117C54.64,62.161 54.651,62.206 54.681,62.223L54.76,62.321L54.796,62.348L54.298,62.8L54.255,62.755C54.103,62.613 53.856,62.613 53.703,62.755C53.555,62.906 53.555,63.119 53.679,63.279L52.481,64.264L52.437,64.201C52.286,64.051 52.048,64.051 51.888,64.22Z" style="fill:rgb(249,230,41);"/><path d="M46.161,60.732C45.921,60.732 45.735,60.945 45.735,61.167C45.735,61.434 45.921,61.629 46.161,61.629C46.4,61.629 46.604,61.434 46.604,61.167C46.604,60.945 46.4,60.732 46.161,60.732Z" style="fill:rgb(254,254,254);"/><path d="M43.741,60.75C43.52,60.75 43.305,60.945 43.305,61.185C43.305,61.434 43.52,61.629 43.741,61.629C44.007,61.629 44.193,61.434 44.193,61.185C44.193,60.945 44.007,60.75 43.741,60.75Z" style="fill:rgb(254,254,254);"/><path d="M44.92,47.743C45.886,47.743 47.163,46.944 47.163,45.356L47.163,42.162L42.687,42.162L42.687,45.356C42.687,46.944 43.963,47.743 44.92,47.743Z" style="fill:rgb(47,82,133);fill-rule:nonzero;"/><path d="M44.29,43.422C44.29,43.138 44.052,42.907 43.776,42.907C43.5,42.907 43.271,43.138 43.271,43.422C43.271,43.706 43.5,43.937 43.776,43.937C44.052,43.937 44.29,43.706 44.29,43.422Z" style="fill:rgb(254,254,254);"/><path d="M45.435,44.576C45.435,44.291 45.202,44.061 44.92,44.061C44.645,44.061 44.423,44.291 44.423,44.576C44.423,44.851 44.645,45.081 44.92,45.081C45.202,45.081 45.435,44.851 45.435,44.576Z" style="fill:rgb(254,254,254);"/><path d="M46.578,45.711C46.578,45.427 46.348,45.205 46.073,45.205C45.789,45.205 45.558,45.427 45.558,45.711C45.558,45.995 45.789,46.226 46.073,46.226C46.348,46.226 46.578,45.995 46.578,45.711Z" style="fill:rgb(254,254,254);"/><path d="M46.073,43.937C46.348,43.937 46.578,43.706 46.578,43.422C46.578,43.138 46.348,42.907 46.073,42.907C45.789,42.907 45.558,43.138 45.558,43.422C45.558,43.706 45.789,43.937 46.073,43.937Z" style="fill:rgb(254,254,254);"/><path d="M43.776,46.226C44.052,46.226 44.29,45.995 44.29,45.711C44.29,45.427 44.052,45.205 43.776,45.205C43.5,45.205 43.271,45.427 43.271,45.711C43.271,45.995 43.5,46.226 43.776,46.226Z" style="fill:rgb(254,254,254);"/><path d="M44.92,55.471C45.886,55.471 47.163,54.672 47.163,53.084L47.163,49.881L42.687,49.881L42.687,53.084C42.687,54.672 43.963,55.471 44.92,55.471Z" style="fill:rgb(47,82,133);fill-rule:nonzero;"/><path d="M44.29,51.15C44.29,50.866 44.052,50.636 43.776,50.636C43.5,50.636 43.271,50.866 43.271,51.15C43.271,51.434 43.5,51.656 43.776,51.656C44.052,51.656 44.29,51.434 44.29,51.15Z" style="fill:rgb(254,254,254);"/><path d="M45.435,52.295C45.435,52.011 45.202,51.789 44.92,51.789C44.645,51.789 44.423,52.011 44.423,52.295C44.423,52.578 44.645,52.791 44.92,52.791C45.202,52.791 45.435,52.578 45.435,52.295Z" style="fill:rgb(254,254,254);"/><path d="M46.578,53.448C46.578,53.164 46.348,52.934 46.073,52.934C45.789,52.934 45.558,53.164 45.558,53.448C45.558,53.723 45.789,53.953 46.073,53.953C46.348,53.953 46.578,53.723 46.578,53.448Z" style="fill:rgb(254,254,254);"/><path d="M46.073,51.656C46.348,51.656 46.578,51.434 46.578,51.15C46.578,50.866 46.348,50.636 46.073,50.636C45.789,50.636 45.558,50.866 45.558,51.15C45.558,51.434 45.789,51.656 46.073,51.656Z" style="fill:rgb(254,254,254);"/><path d="M43.776,53.953C44.052,53.953 44.29,53.723 44.29,53.448C44.29,53.164 44.052,52.934 43.776,52.934C43.5,52.934 43.271,53.164 43.271,53.448C43.271,53.723 43.5,53.953 43.776,53.953Z" style="fill:rgb(254,254,254);"/><path d="M38.75,55.471C39.715,55.471 40.983,54.672 40.983,53.084L40.983,49.881L36.507,49.881L36.507,53.084C36.507,54.672 37.774,55.471 38.75,55.471Z" style="fill:rgb(47,82,133);fill-rule:nonzero;"/><path d="M38.103,51.15C38.103,50.866 37.882,50.636 37.599,50.636C37.323,50.636 37.09,50.866 37.09,51.15C37.09,51.434 37.323,51.656 37.599,51.656C37.882,51.656 38.103,51.434 38.103,51.15Z" style="fill:rgb(254,254,254);"/><path d="M39.255,52.295C39.255,52.011 39.025,51.789 38.75,51.789C38.467,51.789 38.236,52.011 38.236,52.295C38.236,52.578 38.467,52.791 38.75,52.791C39.025,52.791 39.255,52.578 39.255,52.295Z" style="fill:rgb(254,254,254);"/><path d="M40.399,53.448C40.399,53.164 40.178,52.934 39.89,52.934C39.61,52.934 39.38,53.164 39.38,53.448C39.38,53.723 39.61,53.953 39.89,53.953C40.178,53.953 40.399,53.723 40.399,53.448Z" style="fill:rgb(254,254,254);"/><path d="M39.89,51.656C40.178,51.656 40.399,51.434 40.399,51.15C40.399,50.866 40.178,50.636 39.89,50.636C39.61,50.636 39.38,50.866 39.38,51.15C39.38,51.434 39.61,51.656 39.89,51.656Z" style="fill:rgb(254,254,254);"/><path d="M37.599,53.953C37.882,53.953 38.103,53.723 38.103,53.448C38.103,53.164 37.882,52.934 37.599,52.934C37.323,52.934 37.09,53.164 37.09,53.448C37.09,53.723 37.323,53.953 37.599,53.953Z" style="fill:rgb(254,254,254);"/><path d="M51.099,55.471C52.064,55.471 53.351,54.672 53.351,53.084L53.351,49.881L48.874,49.881L48.874,53.084C48.874,54.672 50.133,55.471 51.099,55.471Z" style="fill:rgb(47,82,133);fill-rule:nonzero;"/><path d="M50.46,51.15C50.46,50.866 50.239,50.636 49.953,50.636C49.681,50.636 49.45,50.866 49.45,51.15C49.45,51.434 49.681,51.656 49.953,51.656C50.239,51.656 50.46,51.434 50.46,51.15Z" style="fill:rgb(254,254,254);"/><path d="M51.613,52.295C51.613,52.011 51.383,51.789 51.099,51.789C50.824,51.789 50.593,52.011 50.593,52.295C50.593,52.578 50.824,52.791 51.099,52.791C51.383,52.791 51.613,52.578 51.613,52.295Z" style="fill:rgb(254,254,254);"/><path d="M52.754,53.448C52.754,53.164 52.535,52.934 52.251,52.934C51.968,52.934 51.737,53.164 51.737,53.448C51.737,53.723 51.968,53.953 52.251,53.953C52.535,53.953 52.754,53.723 52.754,53.448Z" style="fill:rgb(254,254,254);"/><path d="M52.251,51.656C52.535,51.656 52.754,51.434 52.754,51.15C52.754,50.866 52.535,50.636 52.251,50.636C51.968,50.636 51.737,50.866 51.737,51.15C51.737,51.434 51.968,51.656 52.251,51.656Z" style="fill:rgb(254,254,254);"/><path d="M49.953,53.953C50.239,53.953 50.46,53.723 50.46,53.448C50.46,53.164 50.239,52.934 49.953,52.934C49.681,52.934 49.45,53.164 49.45,53.448C49.45,53.723 49.681,53.953 49.953,53.953Z" style="fill:rgb(254,254,254);"/><path d="M44.92,63.199C45.886,63.199 47.163,62.392 47.163,60.812L47.163,57.619L42.687,57.619L42.687,60.812C42.687,62.392 43.963,63.199 44.92,63.199Z" style="fill:rgb(47,82,133);fill-rule:nonzero;"/><path d="M44.29,58.878C44.29,58.603 44.052,58.372 43.776,58.372C43.5,58.372 43.271,58.603 43.271,58.878C43.271,59.153 43.5,59.384 43.776,59.384C44.052,59.384 44.29,59.153 44.29,58.878Z" style="fill:rgb(254,254,254);"/><path d="M45.435,60.032C45.435,59.747 45.202,59.517 44.92,59.517C44.645,59.517 44.423,59.747 44.423,60.032C44.423,60.307 44.645,60.537 44.92,60.537C45.202,60.537 45.435,60.307 45.435,60.032Z" style="fill:rgb(254,254,254);"/><path d="M46.578,61.167C46.578,60.883 46.348,60.661 46.073,60.661C45.789,60.661 45.558,60.883 45.558,61.167C45.558,61.451 45.789,61.682 46.073,61.682C46.348,61.682 46.578,61.451 46.578,61.167Z" style="fill:rgb(254,254,254);"/><path d="M46.073,59.384C46.348,59.384 46.578,59.153 46.578,58.878C46.578,58.603 46.348,58.372 46.073,58.372C45.789,58.372 45.558,58.603 45.558,58.878C45.558,59.153 45.789,59.384 46.073,59.384Z" style="fill:rgb(254,254,254);"/><path d="M43.776,61.682C44.052,61.682 44.29,61.451 44.29,61.167C44.29,60.883 44.052,60.661 43.776,60.661C43.5,60.661 43.271,60.883 43.271,61.167C43.271,61.451 43.5,61.682 43.776,61.682Z" style="fill:rgb(254,254,254);"/><path d="M148.009,25.314C146.833,25.314 145.713,25.37 144.817,25.427L144.817,37.411C145.377,37.467 146.441,37.522 147.785,37.522C152.713,37.522 155.681,35.002 155.681,31.25C155.681,27.106 153.105,25.314 148.009,25.314ZM156.017,58.354L145.769,42.002L144.817,42.002L144.817,53.93C146.105,54.043 147.449,54.267 148.681,54.602L148.681,58.354L133.897,58.354L133.897,54.658C135.353,54.322 137.089,54.043 138.769,53.93L138.769,24.978C137.089,24.867 135.353,24.586 133.897,24.25L133.897,20.555L138.265,20.555C139.721,20.555 144.257,20.331 148.849,20.331C156.689,20.331 162.065,23.075 162.065,30.578C162.065,36.29 157.921,40.042 152.097,40.938C152.881,41.891 153.665,43.011 154.337,44.075L160.889,53.875C162.065,54.043 163.465,54.267 164.921,54.547L164.921,58.354L156.017,58.354Z" style="fill:rgb(71,71,71);fill-rule:nonzero;"/><path d="M167.441,58.354L167.441,54.658C168.897,54.322 170.633,54.043 172.313,53.93L172.313,24.978C170.633,24.867 168.897,24.586 167.441,24.25L167.441,20.555L192.473,20.555L192.473,29.626L188.049,29.626C187.769,28.058 187.489,26.547 187.377,25.37L178.361,25.37L178.361,36.683L185.585,36.683C185.753,35.451 185.977,34.274 186.313,33.21L190.121,33.21L190.121,44.635L186.313,44.635C185.977,43.57 185.697,42.283 185.585,41.162L178.361,41.162L178.361,53.427L187.433,53.427C187.545,52.082 187.825,50.57 188.161,48.946L192.585,48.946L192.585,58.354L167.441,58.354Z" style="fill:rgb(71,71,71);fill-rule:nonzero;"/><path d="M211.344,25.314C210.168,25.314 209.216,25.314 208.208,25.427L208.208,39.259C209.104,39.37 210,39.482 210.896,39.482C215.993,39.427 219.352,36.626 219.352,32.203C219.352,27.891 216.832,25.314 211.344,25.314ZM211.008,44.522C210.168,44.522 209.161,44.522 208.208,44.411L208.208,53.93C209.889,54.043 211.624,54.322 213.08,54.658L213.08,58.354L197.288,58.354L197.288,54.658C198.745,54.322 200.48,54.043 202.161,53.93L202.161,24.978C200.48,24.867 198.745,24.586 197.288,24.25L197.288,20.555L201.544,20.555C203.336,20.555 207.984,20.331 211.792,20.331C220.752,20.331 225.68,24.699 225.68,31.699C225.68,39.035 219.856,44.522 211.008,44.522Z" style="fill:rgb(71,71,71);fill-rule:nonzero;"/><path d="M245.672,17.867L243.432,14.451L252.224,8.29L254.912,12.379L245.672,17.867ZM261.464,24.978L261.464,43.907C261.464,53.986 256.144,58.914 246.176,58.914C234.304,58.914 231.784,52.419 231.784,45.475L231.784,24.978C230.496,24.81 229.208,24.586 228.088,24.307L228.088,20.555L242.144,20.555L242.144,24.307C240.8,24.643 239.288,24.867 237.888,24.978L237.888,45.026C237.888,50.066 239.512,53.875 246.568,53.875C252.672,53.875 255.472,51.299 255.472,44.243L255.472,24.978C254.072,24.867 252.504,24.643 251.216,24.307L251.216,20.555L265.16,20.555L265.16,24.307C263.984,24.586 262.752,24.81 261.464,24.978Z" style="fill:rgb(71,71,71);fill-rule:nonzero;"/><path d="M283.304,41.162C282.687,41.162 280.727,41.162 279.888,41.219L279.888,53.259C280.84,53.427 282.352,53.538 284.311,53.538C289.855,53.538 292.487,50.851 292.487,47.043C292.487,42.73 288.623,41.162 283.304,41.162ZM284.647,25.259C282.968,25.259 281.344,25.314 279.888,25.37L279.888,36.571C280.84,36.626 281.903,36.626 283.136,36.626C288.791,36.626 291.76,34.331 291.76,30.522C291.76,27.442 290.079,25.259 284.647,25.259ZM284.087,58.522C281.791,58.522 277.983,58.354 273.84,58.354L268.968,58.354L268.968,54.658C270.424,54.322 272.159,54.043 273.84,53.93L273.84,24.978C272.159,24.867 270.424,24.586 268.968,24.25L268.968,20.555L273.672,20.555C276.527,20.555 281.119,20.387 285.655,20.387C293.888,20.387 298.143,23.746 298.143,29.571C298.143,33.435 295.567,36.851 291.703,38.194L291.703,38.307C296.631,39.259 298.928,43.011 298.928,46.93C298.928,51.858 295.68,58.522 284.087,58.522Z" style="fill:rgb(71,71,71);fill-rule:nonzero;"/><path d="M303.351,58.354L303.351,54.658C304.807,54.322 306.543,54.043 308.223,53.93L308.223,24.978C306.543,24.867 304.807,24.586 303.351,24.25L303.351,20.555L319.143,20.555L319.143,24.25C317.686,24.586 315.951,24.867 314.27,24.978L314.27,53.314L322.839,53.314C323.007,51.914 323.287,50.179 323.623,48.442L327.99,48.442L327.99,58.354L303.351,58.354Z" style="fill:rgb(71,71,71);fill-rule:nonzero;"/><path d="M330.174,58.354L330.174,54.658C331.63,54.322 333.366,54.043 335.046,53.93L335.046,24.978C333.366,24.867 331.63,24.586 330.174,24.25L330.174,20.555L345.966,20.555L345.966,24.25C344.51,24.586 342.773,24.867 341.094,24.978L341.094,53.93C342.773,54.043 344.51,54.322 345.966,54.658L345.966,58.354L330.174,58.354Z" style="fill:rgb(71,71,71);fill-rule:nonzero;"/><path d="M372.958,31.195C372.622,29.347 372.454,27.779 372.286,26.267C370.605,25.819 369.094,25.706 367.47,25.706C360.134,25.706 356.55,31.475 356.55,39.539C356.55,48.162 360.134,53.259 368.981,53.259C371.838,53.259 375.029,52.587 377.437,51.522L377.83,57.122C374.75,58.186 371.222,58.858 367.582,58.858C355.71,58.858 349.773,52.026 349.773,40.546C349.773,28.562 355.766,20.162 368.702,20.162C371.558,20.162 374.582,20.555 377.494,21.226L377.494,31.195L372.958,31.195Z" style="fill:rgb(71,71,71);fill-rule:nonzero;"/><path d="M401.182,32.427C400.453,30.467 399.949,28.675 399.502,26.602L399.39,26.602C398.997,28.562 398.382,30.578 397.653,32.595L393.565,43.851L405.382,43.851L401.182,32.427ZM404.653,58.354L404.653,54.658C405.941,54.379 407.51,54.099 408.909,53.986L406.949,48.667L391.998,48.667L390.094,53.986C391.493,54.099 393.061,54.379 394.35,54.658L394.35,58.354L380.741,58.354L380.741,54.658C381.693,54.379 382.981,54.154 383.989,54.043L396.029,20.555L403.365,20.555L415.573,54.043C416.581,54.154 417.869,54.379 418.821,54.658L418.821,58.354L404.653,58.354Z" style="fill:rgb(71,71,71);fill-rule:nonzero;"/><path d="M147.953,75.314C146.777,75.314 145.825,75.314 144.817,75.427L144.817,89.259C145.713,89.37 146.609,89.482 147.505,89.482C152.601,89.427 155.961,86.627 155.961,82.202C155.961,77.891 153.441,75.314 147.953,75.314ZM147.617,94.522C146.777,94.522 145.769,94.522 144.817,94.41L144.817,103.931C146.497,104.043 148.233,104.322 149.689,104.658L149.689,108.354L133.897,108.354L133.897,104.658C135.353,104.322 137.089,104.043 138.769,103.931L138.769,74.978C137.089,74.866 135.353,74.587 133.897,74.251L133.897,70.555L138.153,70.555C139.945,70.555 144.593,70.331 148.401,70.331C157.361,70.331 162.289,74.698 162.289,81.698C162.289,89.034 156.465,94.522 147.617,94.522Z" style="fill:rgb(71,71,71);fill-rule:nonzero;"/><path d="M182.953,75.371C177.128,75.371 171.865,80.074 171.865,89.146C171.865,97.715 175.393,103.482 182.841,103.482C188.44,103.482 194.04,99.003 194.04,89.595C194.04,80.467 190.009,75.371 182.953,75.371ZM182.393,108.914C170.913,108.914 165.369,101.467 165.369,89.875C165.369,77.331 173.544,69.995 183.513,69.995C193.705,69.995 200.537,76.322 200.537,88.978C200.537,101.522 192.416,108.914 182.393,108.914Z" style="fill:rgb(71,71,71);fill-rule:nonzero;"/><path d="M218.232,75.314C217.057,75.314 215.936,75.371 215.04,75.427L215.04,87.41C215.601,87.467 216.664,87.522 218.008,87.522C222.936,87.522 225.904,85.003 225.904,81.251C225.904,77.106 223.329,75.314 218.232,75.314ZM226.24,108.354L215.993,92.003L215.04,92.003L215.04,103.931C216.329,104.043 217.672,104.266 218.904,104.602L218.904,108.354L204.121,108.354L204.121,104.658C205.577,104.322 207.312,104.043 208.993,103.931L208.993,74.978C207.312,74.866 205.577,74.587 204.121,74.251L204.121,70.555L208.489,70.555C209.944,70.555 214.48,70.331 219.072,70.331C226.913,70.331 232.288,73.074 232.288,80.578C232.288,86.291 228.144,90.043 222.32,90.938C223.104,91.891 223.889,93.011 224.56,94.074L231.112,103.875C232.288,104.043 233.688,104.266 235.144,104.547L235.144,108.354L226.24,108.354Z" style="fill:rgb(71,71,71);fill-rule:nonzero;"/><path d="M262.92,80.522C262.584,78.562 262.248,76.938 262.136,75.539L255.304,75.539L255.304,103.931C256.984,104.043 258.72,104.322 260.176,104.658L260.176,108.354L244.329,108.354L244.329,104.658C245.785,104.322 247.52,104.043 249.201,103.931L249.201,75.539L242.312,75.539C242.201,76.938 241.92,78.562 241.584,80.522L237.216,80.522L237.216,70.555L267.289,70.555L267.289,80.522L262.92,80.522Z" style="fill:rgb(71,71,71);fill-rule:nonzero;"/><path d="M303.128,74.978L303.128,93.906C303.128,103.986 297.808,108.914 287.84,108.914C275.968,108.914 273.448,102.419 273.448,95.475L273.448,74.978C272.16,74.81 270.872,74.587 269.752,74.307L269.752,70.555L283.808,70.555L283.808,74.307C282.464,74.643 280.952,74.866 279.552,74.978L279.552,95.026C279.552,100.066 281.176,103.875 288.232,103.875C294.336,103.875 297.136,101.299 297.136,94.242L297.136,74.978C295.736,74.866 294.168,74.643 292.88,74.307L292.88,70.555L306.824,70.555L306.824,74.307C305.648,74.587 304.416,74.81 303.128,74.978Z" style="fill:rgb(71,71,71);fill-rule:nonzero;"/><path d="M342.048,93.234L342.048,106.618C338.296,108.074 333.647,108.914 329.336,108.914C317.632,108.914 310.464,101.914 310.464,90.267C310.464,78.45 318.304,70.051 331.071,70.051C334.544,70.051 337.96,70.555 341.432,71.394L341.432,80.858L336.895,80.858C336.504,79.123 336.336,77.555 336.168,76.043C334.319,75.595 332.416,75.314 330.624,75.314C323.063,75.314 317.016,80.186 317.016,89.65C317.016,98.387 322,103.482 330.12,103.482C332.304,103.482 334.208,103.146 335.943,102.587L335.943,93.291C334.264,93.179 332.527,92.898 331.184,92.562L331.184,88.866L345.464,88.866L345.464,92.618C344.399,92.898 343.224,93.066 342.048,93.234Z" style="fill:rgb(71,71,71);fill-rule:nonzero;"/><path d="M381.751,74.978L381.751,93.906C381.751,103.986 376.431,108.914 366.463,108.914C354.591,108.914 352.071,102.419 352.071,95.475L352.071,74.978C350.783,74.81 349.495,74.587 348.375,74.307L348.375,70.555L362.431,70.555L362.431,74.307C361.087,74.643 359.575,74.866 358.175,74.978L358.175,95.026C358.175,100.066 359.799,103.875 366.854,103.875C372.959,103.875 375.759,101.299 375.759,94.242L375.759,74.978C374.358,74.866 372.791,74.643 371.503,74.307L371.503,70.555L385.447,70.555L385.447,74.307C384.27,74.587 383.039,74.81 381.751,74.978Z" style="fill:rgb(71,71,71);fill-rule:nonzero;"/><path d="M389.255,108.354L389.255,104.658C390.711,104.322 392.447,104.043 394.127,103.931L394.127,74.978C392.447,74.866 390.711,74.587 389.255,74.251L389.255,70.555L414.287,70.555L414.287,79.627L409.862,79.627C409.583,78.059 409.303,76.547 409.19,75.371L400.175,75.371L400.175,86.683L407.398,86.683C407.566,85.45 407.791,84.274 408.127,83.211L411.935,83.211L411.935,94.635L408.127,94.635C407.791,93.57 407.511,92.282 407.398,91.162L400.175,91.162L400.175,103.427L409.247,103.427C409.358,102.082 409.639,100.57 409.975,98.946L414.398,98.946L414.398,108.354L389.255,108.354Z" style="fill:rgb(71,71,71);fill-rule:nonzero;"/><path d="M429.183,108.914C426.215,108.914 423.303,108.578 420.894,107.963L420.894,98.498L425.374,98.498C425.654,100.234 425.935,101.858 426.047,103.259C427.055,103.482 428.343,103.65 429.406,103.65C433.719,103.65 437.078,101.914 437.078,97.826C437.078,89.875 420.223,93.347 420.223,81.026C420.223,74.53 425.263,69.995 433.942,69.995C436.631,69.995 438.982,70.274 441.502,70.778L441.502,79.906L437.022,79.906C436.686,78.282 436.463,76.658 436.351,75.314C435.734,75.203 434.614,75.034 433.719,75.034C428.958,75.034 426.606,77.219 426.606,80.354C426.606,87.915 443.518,85.114 443.518,96.931C443.518,103.875 438.03,108.914 429.183,108.914Z" style="fill:rgb(71,71,71);fill-rule:nonzero;"/><path d="M465.918,82.427C465.189,80.467 464.685,78.675 464.238,76.602L464.126,76.602C463.733,78.562 463.118,80.578 462.39,82.595L458.302,93.851L470.118,93.851L465.918,82.427ZM469.39,108.354L469.39,104.658C470.678,104.379 472.246,104.099 473.645,103.986L471.685,98.667L456.734,98.667L454.83,103.986C456.229,104.099 457.798,104.379 459.086,104.658L459.086,108.354L445.477,108.354L445.477,104.658C446.43,104.379 447.718,104.154 448.726,104.043L460.766,70.555L468.102,70.555L480.31,104.043C481.317,104.154 482.605,104.379 483.558,104.658L483.558,108.354L469.39,108.354Z" style="fill:rgb(71,71,71);fill-rule:nonzero;"/><path d="M597.745,63.261C591.138,63.261 589.01,58.893 589.01,54.189C589.01,48.197 592.145,43.969 598.474,43.969C599.817,43.969 601.273,44.165 602.505,44.529L602.001,47.861C600.853,47.441 599.565,47.217 598.277,47.217C594.749,47.217 593.014,49.877 593.014,53.573C593.014,57.661 594.722,59.957 598.529,59.957C599.678,59.957 601.133,59.649 602.113,59.173L602.673,62.393C601.273,62.925 599.509,63.261 597.745,63.261Z" style="fill:rgb(71,71,71);fill-rule:nonzero;"/><rect x="605.753" y="44.137" width="3.64" height="18.9" style="fill:rgb(71,71,71);fill-rule:nonzero;"/><path d="M622.16,43.017L618.324,41.337L614.545,43.017L613.732,41.281L618.352,38.845L623,41.225L622.16,43.017ZM613.312,63.037L613.312,44.137L623.589,44.137L623.589,47.189L616.952,47.189L616.952,51.837L623.253,51.837L623.253,54.805L616.952,54.805L616.952,59.929L623.589,59.929L623.589,63.037L613.312,63.037Z" style="fill:rgb(71,71,71);fill-rule:nonzero;"/><path d="M638.064,63.037L632.52,53.489C631.708,52.061 631.036,50.661 630.477,49.429C630.588,51.053 630.644,54.021 630.644,56.289L630.644,63.037L627.116,63.037L627.116,44.137L631.849,44.137L637.112,53.153C637.98,54.609 638.736,56.177 639.436,57.605C639.296,55.701 639.24,52.341 639.24,50.017L639.24,44.137L642.768,44.137L642.768,63.037L638.064,63.037Z" style="fill:rgb(71,71,71);fill-rule:nonzero;"/><path d="M654.527,63.261C647.92,63.261 645.792,58.893 645.792,54.189C645.792,48.197 648.928,43.969 655.256,43.969C656.6,43.969 658.056,44.165 659.287,44.529L658.783,47.861C657.636,47.441 656.348,47.217 655.06,47.217C651.531,47.217 649.796,49.877 649.796,53.573C649.796,57.661 651.504,59.957 655.311,59.957C656.46,59.957 657.915,59.649 658.895,59.173L659.455,62.393C658.056,62.925 656.291,63.261 654.527,63.261Z" style="fill:rgb(71,71,71);fill-rule:nonzero;"/><rect x="662.535" y="44.137" width="3.64" height="18.9" style="fill:rgb(71,71,71);fill-rule:nonzero;"/><path d="M677.486,50.913C677.15,49.989 676.898,49.121 676.703,48.309L676.675,48.309C676.451,49.121 676.227,49.989 675.919,50.913L674.043,56.289L679.362,56.289L677.486,50.913ZM681.602,63.037L680.287,59.173L673.146,59.173L671.831,63.037L668.163,63.037L674.77,44.137L678.887,44.137L685.635,63.037L681.602,63.037Z" style="fill:rgb(71,71,71);fill-rule:nonzero;"/><path d="M687.902,67.881L686.418,66.565C688.35,64.521 688.462,63.317 687.566,62.281C686.53,61.021 687.286,58.865 689.246,58.865C691.878,58.865 693.11,63.317 687.902,67.881Z" style="fill:rgb(71,71,71);fill-rule:nonzero;"/><path d="M707.949,47.245L707.949,63.037L704.31,63.037L704.31,47.245L699.409,47.245L699.409,44.137L712.85,44.137L712.85,47.245L707.949,47.245Z" style="fill:rgb(71,71,71);fill-rule:nonzero;"/><path d="M715.229,63.037L715.229,44.137L725.506,44.137L725.506,47.189L718.869,47.189L718.869,51.837L725.17,51.837L725.17,54.805L718.869,54.805L718.869,59.929L725.506,59.929L725.506,63.037L715.229,63.037Z" style="fill:rgb(71,71,71);fill-rule:nonzero;"/><path d="M736.873,63.261C730.266,63.261 728.138,58.893 728.138,54.189C728.138,48.197 731.273,43.969 737.602,43.969C738.945,43.969 740.401,44.165 741.633,44.529L741.129,47.861C739.981,47.441 738.693,47.217 737.405,47.217C733.877,47.217 732.142,49.877 732.142,53.573C732.142,57.661 733.85,59.957 737.657,59.957C738.806,59.957 740.261,59.649 741.241,59.173L741.801,62.393C740.401,62.925 738.637,63.261 736.873,63.261Z" style="fill:rgb(71,71,71);fill-rule:nonzero;"/><path d="M755.829,63.037L750.285,53.489C749.473,52.061 748.801,50.661 748.241,49.429C748.352,51.053 748.409,54.021 748.409,56.289L748.409,63.037L744.881,63.037L744.881,44.137L749.613,44.137L754.877,53.153C755.745,54.609 756.501,56.177 757.201,57.605C757.06,55.701 757.005,52.341 757.005,50.017L757.005,44.137L760.533,44.137L760.533,63.037L755.829,63.037Z" style="fill:rgb(71,71,71);fill-rule:nonzero;"/><path d="M772.32,47.105C769.716,47.105 767.309,49.177 767.309,53.433C767.309,57.437 768.876,60.041 772.264,60.041C774.728,60.041 777.36,58.137 777.36,53.601C777.36,49.401 775.568,47.105 772.32,47.105ZM772.012,63.345C766.244,63.345 763.416,59.677 763.416,53.825C763.416,47.581 767.588,43.829 772.656,43.829C777.696,43.829 781.252,46.853 781.252,53.321C781.252,59.565 777.136,63.345 772.012,63.345Z" style="fill:rgb(71,71,71);fill-rule:nonzero;"/><path d="M784.136,63.037L784.136,44.137L787.775,44.137L787.775,59.845L793.908,59.845L793.908,63.037L784.136,63.037Z" style="fill:rgb(71,71,71);fill-rule:nonzero;"/><path d="M804.016,47.105C801.411,47.105 799.004,49.177 799.004,53.433C799.004,57.437 800.571,60.041 803.959,60.041C806.424,60.041 809.056,58.137 809.056,53.601C809.056,49.401 807.264,47.105 804.016,47.105ZM803.707,63.345C797.939,63.345 795.111,59.677 795.111,53.825C795.111,47.581 799.283,43.829 804.352,43.829C809.392,43.829 812.947,46.853 812.947,53.321C812.947,59.565 808.831,63.345 803.707,63.345Z" style="fill:rgb(71,71,71);fill-rule:nonzero;"/><path d="M824.427,63.317C818.435,63.317 814.879,59.789 814.879,54.021C814.879,48.085 818.911,43.857 825.379,43.857C827.339,43.857 829.215,44.193 830.727,44.669L829.999,47.973C828.571,47.413 826.947,47.105 825.155,47.105C821.459,47.105 818.827,49.457 818.827,53.685C818.827,57.689 821.011,60.041 824.847,60.041C825.743,60.041 826.527,59.929 827.255,59.705L827.255,53.125L830.894,53.125L830.894,62.141C829.018,62.897 826.695,63.317 824.427,63.317Z" style="fill:rgb(71,71,71);fill-rule:nonzero;"/><rect x="834.73" y="44.137" width="3.64" height="18.9" style="fill:rgb(71,71,71);fill-rule:nonzero;"/><path d="M849.682,50.913C849.346,49.989 849.094,49.121 848.898,48.309L848.87,48.309C848.646,49.121 848.422,49.989 848.114,50.913L846.238,56.289L851.558,56.289L849.682,50.913ZM853.798,63.037L852.482,59.173L845.342,59.173L844.026,63.037L840.358,63.037L846.966,44.137L851.082,44.137L857.83,63.037L853.798,63.037Z" style="fill:rgb(71,71,71);fill-rule:nonzero;"/><path d="M589.905,87.037L589.905,68.137L600.182,68.137L600.182,71.189L593.545,71.189L593.545,75.837L599.846,75.837L599.846,78.805L593.545,78.805L593.545,83.929L600.182,83.929L600.182,87.037L589.905,87.037Z" style="fill:rgb(71,71,71);fill-rule:nonzero;"/><path d="M609.812,87.037L609.812,68.137L620.089,68.137L620.089,71.189L613.452,71.189L613.452,75.837L619.753,75.837L619.753,78.805L613.452,78.805L613.452,83.929L620.089,83.929L620.089,87.037L609.812,87.037Z" style="fill:rgb(71,71,71);fill-rule:nonzero;"/><path d="M634.564,87.037L629.02,77.489C628.208,76.061 627.536,74.661 626.977,73.429C627.088,75.053 627.144,78.021 627.144,80.289L627.144,87.037L623.616,87.037L623.616,68.137L628.349,68.137L633.612,77.153C634.48,78.609 635.236,80.177 635.936,81.605C635.796,79.701 635.74,76.341 635.74,74.017L635.74,68.137L639.268,68.137L639.268,87.037L634.564,87.037Z" style="fill:rgb(71,71,71);fill-rule:nonzero;"/><path d="M646.995,87.345C645.315,87.345 643.888,87.177 642.628,86.841L643.019,83.341C644.252,83.845 645.623,84.153 647.136,84.153C648.844,84.153 650.3,83.453 650.3,81.689C650.3,78.077 642.348,79.729 642.348,73.513C642.348,70.153 644.924,67.829 649.487,67.829C650.523,67.829 651.84,67.969 652.903,68.193L652.567,71.385C651.531,71.049 650.439,70.853 649.319,70.853C647.191,70.853 646.212,71.777 646.212,73.121C646.212,76.509 654.304,75.249 654.304,81.241C654.304,84.741 651.363,87.345 646.995,87.345Z" style="fill:rgb(71,71,71);fill-rule:nonzero;"/><rect x="657.271" y="68.137" width="3.64" height="18.9" style="fill:rgb(71,71,71);fill-rule:nonzero;"/><path d="M675.779,87.037L670.235,77.489C669.423,76.061 668.751,74.661 668.191,73.429C668.303,75.053 668.359,78.021 668.359,80.289L668.359,87.037L664.831,87.037L664.831,68.137L669.563,68.137L674.827,77.153C675.695,78.609 676.451,80.177 677.151,81.605C677.011,79.701 676.955,76.341 676.955,74.017L676.955,68.137L680.483,68.137L680.483,87.037L675.779,87.037Z" style="fill:rgb(71,71,71);fill-rule:nonzero;"/><path d="M692.27,71.105C689.666,71.105 687.259,73.177 687.259,77.433C687.259,81.437 688.826,84.041 692.214,84.041C694.679,84.041 697.31,82.137 697.31,77.601C697.31,73.401 695.518,71.105 692.27,71.105ZM691.962,87.345C686.194,87.345 683.366,83.677 683.366,77.825C683.366,71.581 687.538,67.829 692.606,67.829C697.646,67.829 701.202,70.853 701.202,77.321C701.202,83.565 697.086,87.345 691.962,87.345Z" style="fill:rgb(71,71,71);fill-rule:nonzero;"/><path d="M713.997,87.345C712.317,87.345 710.89,87.177 709.63,86.841L710.021,83.341C711.254,83.845 712.625,84.153 714.138,84.153C715.846,84.153 717.302,83.453 717.302,81.689C717.302,78.077 709.35,79.729 709.35,73.513C709.35,70.153 711.926,67.829 716.489,67.829C717.525,67.829 718.842,67.969 719.905,68.193L719.569,71.385C718.533,71.049 717.441,70.853 716.321,70.853C714.193,70.853 713.214,71.777 713.214,73.121C713.214,76.509 721.306,75.249 721.306,81.241C721.306,84.741 718.365,87.345 713.997,87.345Z" style="fill:rgb(71,71,71);fill-rule:nonzero;"/><path d="M731.581,87.345C725.617,87.345 724.273,84.097 724.273,80.485L724.273,68.137L727.913,68.137L727.913,80.261C727.913,82.641 728.697,84.321 731.833,84.321C734.634,84.321 735.81,83.145 735.81,79.925L735.81,68.137L739.422,68.137L739.422,79.701C739.422,84.853 736.565,87.345 731.581,87.345Z" style="fill:rgb(71,71,71);fill-rule:nonzero;"/><path d="M748.269,70.993C747.822,70.993 747.401,70.993 746.981,71.021L746.981,77.321C747.346,77.377 747.71,77.405 748.046,77.405C750.286,77.377 751.826,76.145 751.826,74.101C751.826,72.197 750.733,70.993 748.269,70.993ZM748.214,80.429C747.878,80.429 747.43,80.429 746.981,80.373L746.981,87.037L743.342,87.037L743.342,68.137C744.882,68.053 746.561,68.025 748.41,68.025C753.058,68.025 755.605,70.181 755.605,73.877C755.605,77.545 752.806,80.429 748.214,80.429Z" style="fill:rgb(71,71,71);fill-rule:nonzero;"/><path d="M758.21,87.037L758.21,68.137L768.486,68.137L768.486,71.189L761.85,71.189L761.85,75.837L768.15,75.837L768.15,78.805L761.85,78.805L761.85,83.929L768.486,83.929L768.486,87.037L758.21,87.037Z" style="fill:rgb(71,71,71);fill-rule:nonzero;"/><path d="M777.082,70.993C776.55,70.993 776.018,71.021 775.653,71.077L775.653,76.537C775.905,76.565 776.41,76.593 776.97,76.593C779.153,76.593 780.498,75.473 780.498,73.709C780.498,71.889 779.378,70.993 777.082,70.993ZM781.058,87.037L775.962,79.225L775.653,79.225L775.653,87.037L772.014,87.037L772.014,68.137C773.498,68.053 775.262,68.025 777.445,68.025C781.617,68.025 784.306,69.481 784.306,73.345C784.306,76.145 782.29,78.161 779.657,78.609C780.162,79.309 780.722,80.009 781.17,80.681L785.565,87.037L781.058,87.037Z" style="fill:rgb(71,71,71);fill-rule:nonzero;"/><rect x="787.89" y="68.137" width="3.639" height="18.9" style="fill:rgb(71,71,71);fill-rule:nonzero;"/><path d="M803.317,71.105C800.713,71.105 798.306,73.177 798.306,77.433C798.306,81.437 799.873,84.041 803.261,84.041C805.726,84.041 808.357,82.137 808.357,77.601C808.357,73.401 806.565,71.105 803.317,71.105ZM803.009,87.345C797.241,87.345 794.413,83.677 794.413,77.825C794.413,71.581 798.585,67.829 803.653,67.829C808.693,67.829 812.249,70.853 812.249,77.321C812.249,83.565 808.133,87.345 803.009,87.345Z" style="fill:rgb(71,71,71);fill-rule:nonzero;"/><path d="M820.201,70.993C819.669,70.993 819.137,71.021 818.772,71.077L818.772,76.537C819.024,76.565 819.529,76.593 820.089,76.593C822.272,76.593 823.617,75.473 823.617,73.709C823.617,71.889 822.497,70.993 820.201,70.993ZM824.177,87.037L819.081,79.225L818.772,79.225L818.772,87.037L815.133,87.037L815.133,68.137C816.617,68.053 818.381,68.025 820.564,68.025C824.736,68.025 827.425,69.481 827.425,73.345C827.425,76.145 825.409,78.161 822.776,78.609C823.281,79.309 823.841,80.009 824.289,80.681L828.685,87.037L824.177,87.037Z" style="fill:rgb(71,71,71);fill-rule:nonzero;"/><rect x="533.78" y="0" width="3.932" height="141.732" style="fill:rgb(71,71,71);fill-rule:nonzero;"/></g></g></g></g></g></svg>