<svg xmlns="http://www.w3.org/2000/svg" xmlns:xlink="http://www.w3.org/1999/xlink" style="isolation:isolate" viewBox="0 0 755.433 304.724" width="755.433pt" height="304.724pt"><defs><clipPath id="_clipPath_3aPojTUjya5KxUqSzMHne6zws7Dbpp2W"><rect width="755.433" height="304.724"/></clipPath></defs><g clip-path="url(#_clipPath_3aPojTUjya5KxUqSzMHne6zws7Dbpp2W)"><g><path d=" M 665.152 4.875 L 665.152 19.176 C 665.152 21.42 664.497 23.149 663.176 24.362 C 661.866 25.575 660.148 26.187 658.022 26.187 C 655.896 26.187 654.178 25.575 652.869 24.351 C 651.548 23.127 650.893 21.409 650.893 19.176 L 650.893 4.875 L 654.994 4.875 L 654.994 19.176 C 654.994 20.454 655.252 21.399 655.789 22 C 656.315 22.612 657.056 22.913 658.022 22.913 C 659.01 22.913 659.772 22.623 660.288 22.043 C 660.803 21.474 661.061 20.507 661.061 19.176 L 661.061 4.875 L 665.152 4.875 Z " fill="rgb(255,255,255)"/><path d=" M 682.792 25.887 L 678.712 25.887 L 672.292 12.455 L 672.206 12.476 L 672.206 25.887 L 668.093 25.887 L 668.093 4.875 L 672.206 4.875 L 678.626 18.296 L 678.712 18.263 L 678.712 4.875 L 682.792 4.875 L 682.792 25.887 Z " fill="rgb(255,255,255)"/><path d=" M 690.297 25.887 L 686.217 25.887 L 686.217 4.875 L 690.297 4.875 L 690.297 25.887 Z " fill="rgb(255,255,255)"/><path d=" M 697.813 8.149 L 697.813 22.612 L 699.821 22.612 C 700.959 22.612 701.84 22.107 702.462 21.12 C 703.085 20.121 703.396 18.8 703.396 17.147 L 703.396 13.582 C 703.396 11.95 703.085 10.63 702.462 9.642 C 701.84 8.643 700.959 8.149 699.821 8.149 L 697.813 8.149 Z M 693.701 25.887 L 693.701 4.875 L 700.047 4.875 C 702.205 4.875 703.987 5.691 705.383 7.323 C 706.789 8.955 707.498 11.048 707.498 13.625 L 707.498 17.158 C 707.498 19.724 706.789 21.817 705.383 23.449 C 703.987 25.071 702.205 25.887 700.047 25.887 L 693.701 25.887 Z " fill="rgb(255,255,255)"/><path d=" M 714.745 18.124 L 718.621 18.124 L 716.732 10.694 L 716.635 10.694 L 714.745 18.124 Z M 719.448 21.399 L 713.919 21.399 L 712.791 25.887 L 708.647 25.887 L 714.563 4.875 L 718.836 4.875 L 724.731 25.887 L 720.597 25.887 L 719.448 21.399 Z " fill="rgb(255,255,255)"/><path d=" M 730.475 8.149 L 730.475 22.612 L 732.483 22.612 C 733.632 22.612 734.512 22.107 735.135 21.12 C 735.747 20.121 736.058 18.8 736.058 17.147 L 736.058 13.582 C 736.058 11.95 735.747 10.63 735.135 9.642 C 734.512 8.643 733.632 8.149 732.483 8.149 L 730.475 8.149 Z M 726.363 25.887 L 726.363 4.875 L 732.708 4.875 C 734.866 4.875 736.649 5.691 738.055 7.323 C 739.451 8.955 740.16 11.048 740.16 13.625 L 740.16 17.158 C 740.16 19.724 739.451 21.817 738.055 23.449 C 736.649 25.071 734.866 25.887 732.708 25.887 L 726.363 25.887 Z " fill="rgb(255,255,255)"/><path d=" M 754.139 16.664 L 747.085 16.664 L 747.085 22.612 L 755.374 22.612 L 755.374 25.887 L 742.973 25.887 L 742.973 4.875 L 755.352 4.875 L 755.352 8.149 L 747.085 8.149 L 747.085 13.389 L 754.139 13.389 L 754.139 16.664 Z " fill="rgb(255,255,255)"/><path d=" M 655.241 36.709 L 655.241 51.172 L 657.249 51.172 C 658.387 51.172 659.268 50.678 659.89 49.68 C 660.513 48.681 660.825 47.361 660.825 45.718 L 660.825 42.142 C 660.825 40.51 660.513 39.19 659.89 38.202 C 659.268 37.214 658.387 36.709 657.249 36.709 L 655.241 36.709 Z M 651.129 54.447 L 651.129 33.445 L 657.475 33.445 C 659.622 33.445 661.404 34.261 662.811 35.883 C 664.217 37.515 664.915 39.608 664.915 42.185 L 664.915 45.718 C 664.915 48.284 664.217 50.378 662.811 52.01 C 661.404 53.631 659.622 54.447 657.475 54.447 L 651.129 54.447 Z " fill="rgb(255,255,255)"/><path d=" M 672.174 46.684 L 676.039 46.684 L 674.149 39.254 L 674.063 39.254 L 672.174 46.684 Z M 676.876 49.959 L 671.336 49.959 L 670.209 54.447 L 666.075 54.447 L 671.991 33.435 L 676.254 33.435 L 682.159 54.447 L 678.014 54.447 L 676.876 49.959 Z " fill="rgb(255,255,255)"/><path d=" M 701.507 45.718 L 694.377 45.718 L 694.377 54.447 L 690.265 54.447 L 690.265 33.445 L 702.763 33.445 L 702.763 36.709 L 694.377 36.709 L 694.377 42.443 L 701.507 42.443 L 701.507 45.718 Z " fill="rgb(255,255,255)"/><path d=" M 718.095 47.683 L 718.138 47.769 C 718.16 50.077 717.612 51.816 716.496 52.987 C 715.379 54.168 713.736 54.748 711.567 54.748 C 709.388 54.748 707.648 54.082 706.349 52.75 C 705.061 51.419 704.406 49.529 704.406 47.092 L 704.406 40.811 C 704.406 38.374 705.039 36.495 706.285 35.153 C 707.541 33.811 709.227 33.134 711.331 33.134 C 713.564 33.134 715.25 33.735 716.388 34.927 C 717.526 36.119 718.117 37.891 718.16 40.22 L 718.106 40.306 L 714.155 40.306 C 714.219 38.932 714.026 37.934 713.597 37.322 C 713.167 36.709 712.415 36.409 711.331 36.409 C 710.408 36.409 709.699 36.774 709.205 37.493 C 708.722 38.213 708.475 39.308 708.475 40.779 L 708.475 47.081 C 708.475 48.563 708.733 49.669 709.259 50.388 C 709.785 51.108 710.558 51.473 711.567 51.473 C 712.555 51.473 713.242 51.183 713.629 50.614 C 714.026 50.045 714.198 49.068 714.144 47.683 L 718.095 47.683 Z " fill="rgb(255,255,255)"/><path d=" M 732.569 36.709 L 727.834 36.709 L 727.834 54.447 L 723.743 54.447 L 723.743 36.709 L 719.04 36.709 L 719.04 33.445 L 732.569 33.445 L 732.569 36.709 Z " fill="rgb(255,255,255)"/><path d=" M 60.041 49.68 C 73.752 49.68 84.875 38.556 84.875 24.845 C 84.875 11.123 73.752 0 60.041 0 L 24.834 0 C 11.123 0 0 11.123 0 24.845 L 0 188.068 C 0 201.789 11.123 212.913 24.834 212.913 C 38.556 212.913 49.68 201.789 49.68 188.068 L 49.68 131.302 L 95.805 131.302 C 109.527 131.302 120.651 120.178 120.651 106.456 C 120.651 92.735 109.527 81.622 95.805 81.622 L 49.68 81.622 L 49.68 49.68 L 60.041 49.68 Z " fill="rgb(255,255,255)"/><path d=" M 431.388 117.097 C 417.666 117.097 408.497 127.576 406.553 141.942 C 404.975 153.592 397.019 163.233 385.262 163.233 C 373.505 163.233 363.971 153.699 363.971 141.942 L 363.971 70.971 C 363.971 59.214 373.505 49.68 385.262 49.68 C 397.019 49.68 404.921 59.321 406.553 70.971 C 408.497 84.918 417.666 95.816 431.388 95.816 C 445.109 95.816 456.233 84.693 456.233 70.971 C 456.233 31.781 424.452 0 385.262 0 C 346.061 0 314.291 31.781 314.291 70.971 L 314.291 141.942 C 314.291 181.142 346.061 212.913 385.262 212.913 C 424.452 212.913 456.233 181.142 456.233 141.942 C 456.233 128.22 445.109 117.097 431.388 117.097 Z " fill="rgb(255,255,255)"/><path d=" M 269.013 117.097 C 255.302 117.097 246.122 127.576 244.179 141.942 C 242.59 153.592 234.644 163.233 222.888 163.233 C 211.131 163.233 201.596 153.699 201.596 141.942 L 201.596 70.971 C 201.596 59.214 211.131 49.68 222.888 49.68 C 234.644 49.68 242.547 59.321 244.179 70.971 C 246.122 84.918 255.302 95.816 269.013 95.816 C 282.735 95.816 293.858 84.693 293.858 70.971 C 293.858 31.781 262.077 0 222.888 0 C 183.687 0 151.917 31.781 151.917 70.971 L 151.917 141.942 C 151.917 181.142 183.687 212.913 222.888 212.913 C 262.077 212.913 293.858 181.142 293.858 141.942 C 293.858 128.22 282.735 117.097 269.013 117.097 Z " fill="rgb(255,255,255)"/><path d=" M 487.708 8.735 C 487.644 8.809 487.569 8.883 487.504 8.967 C 487.075 9.484 486.678 10.011 486.291 10.56 C 486.216 10.666 486.141 10.771 486.066 10.887 C 485.711 11.404 485.389 11.942 485.067 12.48 C 484.981 12.638 484.895 12.797 484.809 12.944 C 484.53 13.461 484.272 13.989 484.036 14.527 C 483.95 14.727 483.854 14.917 483.768 15.128 C 483.542 15.645 483.349 16.183 483.177 16.721 C 483.102 16.932 483.027 17.143 482.963 17.364 C 482.78 17.934 482.63 18.525 482.501 19.105 C 482.458 19.284 482.415 19.464 482.383 19.643 C 482.243 20.329 482.136 21.025 482.05 21.721 C 482.05 21.806 482.028 21.89 482.018 21.964 C 481.91 23.008 481.867 24.053 481.9 25.097 L 481.9 135.134 C 481.9 148.616 493.023 159.535 506.734 159.535 C 520.456 159.535 531.579 148.616 531.579 135.134 L 531.579 117.205 L 577.372 200.455 C 577.49 200.666 577.63 200.856 577.759 201.057 C 578.027 201.489 578.296 201.922 578.585 202.333 C 578.811 202.66 579.047 202.956 579.283 203.262 C 579.53 203.578 579.777 203.895 580.035 204.2 C 580.325 204.538 580.636 204.865 580.948 205.192 C 581.184 205.435 581.42 205.677 581.656 205.909 C 582 206.237 582.354 206.542 582.698 206.838 C 582.955 207.059 583.202 207.281 583.471 207.481 C 583.814 207.756 584.169 208.009 584.534 208.262 C 584.834 208.484 585.146 208.695 585.457 208.895 C 585.779 209.106 586.112 209.296 586.445 209.486 C 586.821 209.707 587.197 209.918 587.594 210.119 C 587.884 210.266 588.174 210.393 588.463 210.53 C 588.914 210.741 589.365 210.942 589.827 211.121 C 590.085 211.216 590.342 211.311 590.611 211.406 C 591.105 211.575 591.599 211.743 592.103 211.88 C 592.382 211.965 592.651 212.028 592.93 212.091 C 593.424 212.218 593.918 212.334 594.422 212.429 C 594.755 212.492 595.099 212.535 595.432 212.577 C 595.883 212.64 596.323 212.714 596.774 212.746 C 597.214 212.788 597.665 212.798 598.105 212.819 C 598.406 212.83 598.696 212.862 598.996 212.862 C 599.072 212.862 599.136 212.851 599.2 212.851 C 599.694 212.851 600.188 212.809 600.682 212.777 C 601.015 212.756 601.359 212.746 601.681 212.714 C 602.099 212.672 602.507 212.587 602.926 212.524 C 603.334 212.461 603.753 212.408 604.15 212.324 C 604.408 212.271 604.665 212.197 604.923 212.134 C 605.471 211.997 606.029 211.87 606.566 211.701 C 606.695 211.659 606.824 211.596 606.963 211.553 C 607.618 211.342 608.262 211.1 608.896 210.826 C 609.003 210.783 609.1 210.731 609.196 210.688 C 609.851 210.393 610.496 210.087 611.118 209.749 C 611.151 209.728 611.183 209.718 611.215 209.697 C 611.355 209.623 611.473 209.528 611.602 209.454 C 612.138 209.138 612.675 208.821 613.18 208.473 C 613.438 208.304 613.663 208.114 613.91 207.935 C 614.307 207.64 614.694 207.355 615.07 207.038 C 615.37 206.796 615.639 206.542 615.918 206.279 C 616.218 206.004 616.53 205.73 616.809 205.435 C 617.099 205.15 617.367 204.855 617.636 204.549 C 617.893 204.253 618.162 203.968 618.409 203.662 C 618.645 203.357 618.881 203.051 619.107 202.745 C 619.354 202.407 619.6 202.059 619.837 201.711 C 620.019 201.426 620.191 201.141 620.363 200.856 C 620.61 200.445 620.846 200.033 621.071 199.622 C 621.2 199.369 621.318 199.116 621.437 198.862 C 621.662 198.388 621.877 197.924 622.081 197.428 C 622.167 197.206 622.253 196.964 622.338 196.731 C 622.521 196.225 622.703 195.719 622.854 195.202 C 622.929 194.949 622.983 194.706 623.047 194.453 C 623.176 193.946 623.305 193.451 623.401 192.934 C 623.466 192.617 623.498 192.29 623.552 191.974 C 623.616 191.531 623.691 191.077 623.723 190.623 C 623.766 190.191 623.777 189.758 623.788 189.326 C 623.799 189.03 623.842 188.745 623.842 188.45 L 623.842 24.401 C 623.842 10.929 612.718 0 598.996 0 C 585.275 0 574.162 10.929 574.162 24.401 L 574.151 24.401 L 574.151 92.023 L 528.68 12.976 C 528.186 12.069 527.639 11.204 527.038 10.37 C 526.952 10.254 526.866 10.149 526.78 10.033 C 526.393 9.516 525.996 9.009 525.577 8.524 C 525.406 8.334 525.234 8.155 525.062 7.965 C 524.697 7.585 524.332 7.195 523.945 6.826 C 523.72 6.615 523.494 6.425 523.269 6.224 C 522.893 5.897 522.528 5.581 522.142 5.275 C 521.895 5.095 521.648 4.916 521.401 4.737 C 520.993 4.441 520.585 4.157 520.155 3.893 C 519.919 3.745 519.683 3.597 519.447 3.46 C 518.985 3.196 518.523 2.933 518.051 2.701 C 517.825 2.585 517.611 2.49 517.385 2.384 C 516.88 2.142 516.365 1.92 515.839 1.72 C 515.624 1.635 515.41 1.561 515.195 1.477 C 514.669 1.287 514.132 1.118 513.595 0.96 C 513.337 0.886 513.08 0.833 512.822 0.77 C 512.317 0.644 511.823 0.527 511.308 0.433 C 510.954 0.369 510.589 0.316 510.234 0.274 C 509.816 0.211 509.397 0.148 508.978 0.116 C 508.463 0.063 507.947 0.042 507.432 0.032 C 507.196 0.032 506.97 0 506.734 0 C 506.68 0 506.627 0.011 506.573 0.011 C 505.94 0.011 505.295 0.053 504.662 0.105 C 504.479 0.116 504.297 0.116 504.114 0.137 C 503.459 0.211 502.804 0.306 502.16 0.433 C 501.999 0.464 501.838 0.475 501.677 0.506 C 501.086 0.633 500.507 0.791 499.927 0.949 C 499.712 1.013 499.497 1.055 499.283 1.118 C 498.8 1.276 498.316 1.456 497.844 1.646 C 497.543 1.751 497.253 1.846 496.964 1.973 C 496.534 2.142 496.115 2.363 495.697 2.564 C 495.385 2.722 495.063 2.859 494.762 3.028 C 494.666 3.07 494.58 3.112 494.494 3.154 C 494.129 3.365 493.785 3.597 493.431 3.819 C 493.195 3.967 492.948 4.114 492.712 4.273 C 492.207 4.61 491.724 4.969 491.251 5.338 C 491.123 5.444 490.972 5.549 490.844 5.665 C 490.317 6.087 489.823 6.53 489.351 6.994 C 489.265 7.068 489.179 7.142 489.104 7.226 C 488.61 7.712 488.149 8.218 487.708 8.735 Z " fill="rgb(255,255,255)"/><path d=" M 481.889 188.068 L 481.889 188.068 C 481.889 201.789 493.013 212.913 506.724 212.913 C 520.445 212.913 531.569 201.789 531.569 188.068 L 531.569 188.068 L 531.569 188.068 C 531.569 174.346 520.445 163.233 506.724 163.233 C 493.013 163.233 481.889 174.346 481.889 188.068 Z " fill="rgb(48,168,73)"/><path d=" M 92.262 24.845 L 92.262 24.845 C 92.262 38.556 103.386 49.68 117.097 49.68 C 130.819 49.68 141.942 38.556 141.942 24.845 L 141.942 24.845 L 141.942 24.845 C 141.942 11.123 130.819 0 117.097 0 C 103.386 0 92.262 11.123 92.262 24.845 Z " fill="rgb(0,173,197)"/><path d=" M 19.895 268.24 L 12.058 268.24 L 12.058 295.533 L 7.795 295.533 L 7.795 268.24 L 0 268.24 L 0 265.008 L 19.895 265.008 L 19.895 268.24 Z " fill="rgb(255,255,255)"/><path d=" M 31.47 275.659 C 30.235 275.659 29.247 276.261 28.517 277.463 C 27.766 278.666 27.358 280.19 27.272 282.026 L 35.26 282.026 L 35.26 281.167 C 35.26 279.546 34.938 278.226 34.294 277.206 C 33.649 276.175 32.705 275.659 31.47 275.659 Z M 31.942 295.974 C 29.247 295.974 27.089 295.029 25.468 293.161 C 23.847 291.292 23.041 288.887 23.041 285.978 L 23.041 282.66 C 23.041 279.697 23.836 277.248 25.414 275.327 C 27.003 273.394 29.022 272.428 31.47 272.428 C 34.036 272.428 36.012 273.308 37.397 275.058 C 38.782 276.819 39.469 279.17 39.469 282.134 L 39.469 285.076 L 27.272 285.076 L 27.272 285.978 C 27.272 287.932 27.701 289.542 28.56 290.82 C 29.419 292.098 30.643 292.742 32.221 292.742 C 33.392 292.742 34.401 292.559 35.239 292.184 C 36.076 291.818 36.871 291.271 37.633 290.562 L 38.964 293.204 C 38.256 294.009 37.3 294.675 36.097 295.19 C 34.895 295.705 33.51 295.974 31.942 295.974 Z " fill="rgb(255,255,255)"/><path d=" M 53.91 292.742 C 54.973 292.742 55.864 292.334 56.594 291.518 C 57.324 290.691 57.689 289.607 57.689 288.232 L 61.501 288.232 L 61.544 288.361 C 61.598 290.498 60.878 292.302 59.375 293.762 C 57.872 295.233 56.047 295.974 53.91 295.974 C 51.086 295.974 48.928 295.018 47.425 293.096 C 45.922 291.185 45.17 288.748 45.17 285.784 L 45.17 282.66 C 45.17 279.697 45.922 277.248 47.425 275.327 C 48.928 273.394 51.086 272.428 53.889 272.428 C 56.186 272.428 58.044 273.201 59.482 274.725 C 60.91 276.261 61.608 278.236 61.565 280.663 L 61.501 280.792 L 57.689 280.792 C 57.689 279.278 57.335 278.032 56.648 277.087 C 55.961 276.132 55.037 275.659 53.889 275.659 C 52.267 275.659 51.118 276.314 50.442 277.635 C 49.766 278.956 49.433 280.62 49.433 282.628 L 49.433 285.763 C 49.433 287.814 49.766 289.489 50.442 290.788 C 51.118 292.087 52.278 292.742 53.91 292.742 Z " fill="rgb(255,255,255)"/><path d=" M 71.98 272.846 L 72.216 276.207 C 72.85 275.015 73.644 274.092 74.6 273.426 C 75.566 272.76 76.662 272.428 77.875 272.428 C 79.861 272.428 81.397 273.168 82.502 274.629 C 83.608 276.1 84.167 278.376 84.167 281.468 L 84.167 295.523 L 79.904 295.523 L 79.904 281.5 C 79.904 279.396 79.603 277.903 79.013 277.044 C 78.401 276.175 77.499 275.745 76.286 275.745 C 75.416 275.745 74.643 276.014 73.977 276.551 C 73.301 277.087 72.764 277.818 72.345 278.741 L 72.345 295.523 L 68.083 295.523 L 68.083 272.846 L 71.98 272.846 Z " fill="rgb(255,255,255)"/><path d=" M 95.193 285.634 C 95.193 287.717 95.569 289.413 96.321 290.745 C 97.083 292.076 98.232 292.742 99.778 292.742 C 101.292 292.742 102.419 292.076 103.182 290.745 C 103.944 289.413 104.331 287.717 104.331 285.634 L 104.331 282.746 C 104.331 280.695 103.944 279.009 103.182 277.667 C 102.419 276.325 101.281 275.659 99.757 275.659 C 98.221 275.659 97.083 276.325 96.321 277.656 C 95.569 278.988 95.193 280.684 95.193 282.746 L 95.193 285.634 Z M 90.931 282.767 C 90.931 279.761 91.725 277.291 93.293 275.348 C 94.861 273.405 97.019 272.428 99.757 272.428 C 102.484 272.428 104.642 273.394 106.22 275.337 C 107.799 277.27 108.582 279.75 108.582 282.767 L 108.582 285.655 C 108.582 288.694 107.799 291.164 106.22 293.085 C 104.653 295.007 102.505 295.963 99.778 295.963 C 97.029 295.963 94.861 295.007 93.293 293.085 C 91.725 291.164 90.931 288.694 90.931 285.655 L 90.931 282.767 Z " fill="rgb(255,255,255)"/><path d=" M 119.953 295.533 L 115.69 295.533 L 115.69 262.829 L 119.953 262.829 L 119.953 295.533 Z " fill="rgb(255,255,255)"/><path d=" M 131.312 285.634 C 131.312 287.717 131.688 289.413 132.44 290.745 C 133.191 292.076 134.351 292.742 135.897 292.742 C 137.4 292.742 138.549 292.076 139.301 290.745 C 140.063 289.413 140.45 287.717 140.45 285.634 L 140.45 282.746 C 140.45 280.695 140.063 279.009 139.301 277.667 C 138.549 276.325 137.4 275.659 135.876 275.659 C 134.34 275.659 133.191 276.325 132.44 277.656 C 131.688 278.988 131.312 280.684 131.312 282.746 L 131.312 285.634 Z M 127.05 282.767 C 127.05 279.761 127.844 277.291 129.412 275.348 C 130.98 273.405 133.138 272.428 135.876 272.428 C 138.603 272.428 140.75 273.394 142.339 275.337 C 143.907 277.27 144.701 279.75 144.701 282.767 L 144.701 285.655 C 144.701 288.694 143.918 291.164 142.35 293.085 C 140.772 295.007 138.624 295.963 135.897 295.963 C 133.148 295.963 130.98 295.007 129.412 293.085 C 127.844 291.164 127.05 288.694 127.05 285.655 L 127.05 282.767 Z " fill="rgb(255,255,255)"/><path d=" M 154.998 286.074 C 154.998 288.082 155.352 289.693 156.04 290.884 C 156.737 292.076 157.843 292.677 159.336 292.677 C 160.259 292.677 161.043 292.441 161.698 291.969 C 162.342 291.486 162.868 290.82 163.276 289.95 L 163.276 278.655 C 162.857 277.764 162.331 277.055 161.687 276.529 C 161.043 276.003 160.27 275.745 159.379 275.745 C 157.897 275.745 156.791 276.443 156.072 277.839 C 155.352 279.235 154.998 281.049 154.998 283.283 L 154.998 286.074 Z M 150.746 283.283 C 150.746 280.029 151.412 277.41 152.743 275.412 C 154.075 273.426 155.932 272.428 158.305 272.428 C 159.454 272.428 160.463 272.696 161.322 273.233 C 162.192 273.77 162.933 274.554 163.545 275.574 L 163.867 272.846 L 167.528 272.846 L 167.528 295.426 C 167.528 298.336 166.766 300.601 165.22 302.233 C 163.673 303.876 161.515 304.692 158.745 304.692 C 157.8 304.692 156.78 304.542 155.696 304.252 C 154.612 303.951 153.645 303.554 152.797 303.06 L 153.699 299.871 C 154.408 300.301 155.191 300.633 156.04 300.891 C 156.898 301.127 157.79 301.256 158.713 301.256 C 160.259 301.256 161.408 300.752 162.16 299.764 C 162.9 298.776 163.276 297.316 163.276 295.405 L 163.276 293.354 C 162.675 294.213 161.956 294.868 161.129 295.308 C 160.291 295.748 159.346 295.974 158.273 295.974 C 155.911 295.974 154.064 295.061 152.733 293.257 C 151.401 291.443 150.746 289.048 150.746 286.074 L 150.746 283.283 Z " fill="rgb(255,255,255)"/><path d=" M 179.693 295.533 L 175.43 295.533 L 175.43 272.846 L 179.693 272.846 L 179.693 295.533 Z M 179.693 266.898 L 175.43 266.898 L 175.43 262.829 L 179.693 262.829 L 179.693 266.898 Z " fill="rgb(255,255,255)"/><path d=" M 194.048 292.742 C 195.036 292.742 195.949 292.441 196.765 291.851 C 197.581 291.271 198.171 290.53 198.558 289.639 L 198.558 284.99 L 195.326 284.99 C 194.027 284.99 193.017 285.409 192.298 286.235 C 191.579 287.073 191.214 288.104 191.214 289.306 C 191.214 290.337 191.461 291.164 191.954 291.797 C 192.438 292.42 193.136 292.742 194.048 292.742 Z M 199.18 295.533 C 199.03 295.018 198.901 294.503 198.805 294.009 C 198.708 293.515 198.644 293.01 198.611 292.506 C 197.989 293.526 197.194 294.363 196.249 295.007 C 195.294 295.652 194.241 295.974 193.082 295.974 C 191.171 295.974 189.668 295.362 188.583 294.159 C 187.509 292.946 186.962 291.325 186.962 289.306 C 186.962 287.137 187.703 285.43 189.174 284.195 C 190.655 282.961 192.717 282.349 195.39 282.349 L 198.558 282.349 L 198.558 280.029 C 198.558 278.655 198.246 277.581 197.634 276.819 C 197.012 276.046 196.142 275.659 195.015 275.659 C 193.995 275.659 193.168 276.003 192.545 276.701 C 191.922 277.388 191.622 278.269 191.622 279.299 L 187.574 279.278 L 187.509 279.16 C 187.434 277.41 188.132 275.842 189.603 274.478 C 191.074 273.115 192.964 272.428 195.283 272.428 C 197.527 272.428 199.331 273.093 200.727 274.414 C 202.112 275.735 202.809 277.614 202.809 280.062 L 202.809 290.584 C 202.809 291.464 202.863 292.312 202.96 293.128 C 203.067 293.944 203.239 294.75 203.486 295.533 L 199.18 295.533 Z " fill="rgb(255,255,255)"/><path d=" M 235.095 283.293 C 235.095 281.06 234.73 279.256 233.989 277.85 C 233.259 276.443 232.164 275.745 230.715 275.745 C 229.802 275.745 229.029 276.003 228.385 276.518 C 227.741 277.034 227.225 277.742 226.839 278.634 L 226.839 290.101 C 227.215 290.949 227.719 291.604 228.363 292.065 C 229.008 292.516 229.802 292.742 230.736 292.742 C 232.207 292.742 233.302 292.13 234.022 290.906 C 234.741 289.682 235.095 288.071 235.095 286.074 L 235.095 283.293 Z M 239.347 286.074 C 239.347 289.07 238.692 291.464 237.382 293.268 C 236.062 295.061 234.236 295.963 231.907 295.963 C 230.801 295.963 229.834 295.748 228.997 295.319 C 228.159 294.889 227.44 294.245 226.839 293.408 L 226.839 304.252 L 222.576 304.252 L 222.576 272.846 L 226.377 272.846 L 226.645 275.445 C 227.247 274.489 227.988 273.738 228.846 273.211 C 229.716 272.696 230.715 272.428 231.874 272.428 C 234.226 272.428 236.062 273.426 237.382 275.412 C 238.692 277.388 239.347 280.019 239.347 283.293 L 239.347 286.074 Z " fill="rgb(255,255,255)"/><path d=" M 252.64 292.742 C 253.638 292.742 254.54 292.441 255.356 291.851 C 256.172 291.271 256.773 290.53 257.149 289.639 L 257.149 284.99 L 253.917 284.99 C 252.618 284.99 251.609 285.409 250.889 286.235 C 250.17 287.073 249.816 288.104 249.816 289.306 C 249.816 290.337 250.052 291.164 250.546 291.797 C 251.029 292.42 251.738 292.742 252.64 292.742 Z M 257.782 295.533 C 257.621 295.018 257.503 294.503 257.396 294.009 C 257.299 293.515 257.235 293.01 257.213 292.506 C 256.58 293.526 255.796 294.363 254.841 295.007 C 253.896 295.652 252.833 295.974 251.673 295.974 C 249.762 295.974 248.27 295.362 247.185 294.159 C 246.101 292.946 245.553 291.325 245.553 289.306 C 245.553 287.137 246.294 285.43 247.765 284.195 C 249.247 282.961 251.308 282.349 253.982 282.349 L 257.149 282.349 L 257.149 280.029 C 257.149 278.655 256.838 277.581 256.226 276.819 C 255.614 276.046 254.733 275.659 253.606 275.659 C 252.586 275.659 251.77 276.003 251.147 276.701 C 250.524 277.388 250.213 278.269 250.213 279.299 L 246.165 279.278 L 246.101 279.16 C 246.036 277.41 246.734 275.842 248.194 274.478 C 249.665 273.115 251.566 272.428 253.874 272.428 C 256.118 272.428 257.922 273.093 259.318 274.414 C 260.703 275.735 261.401 277.614 261.401 280.062 L 261.401 290.584 C 261.401 291.464 261.454 292.312 261.562 293.128 C 261.669 293.944 261.841 294.75 262.077 295.533 L 257.782 295.533 Z " fill="rgb(255,255,255)"/><path d=" M 278.795 276.432 L 276.808 276.325 C 275.928 276.325 275.198 276.594 274.618 277.13 C 274.038 277.656 273.598 278.408 273.287 279.364 L 273.287 295.523 L 269.035 295.523 L 269.035 272.846 L 272.911 272.846 L 273.222 276.261 C 273.705 275.069 274.317 274.124 275.09 273.448 C 275.863 272.771 276.744 272.428 277.753 272.428 C 278.032 272.428 278.322 272.449 278.612 272.503 C 278.902 272.556 279.138 272.61 279.299 272.685 L 278.795 276.432 Z " fill="rgb(255,255,255)"/><path d=" M 291.507 292.742 C 292.495 292.742 293.397 292.441 294.224 291.851 C 295.04 291.271 295.63 290.53 296.017 289.639 L 296.017 284.99 L 292.785 284.99 C 291.486 284.99 290.476 285.409 289.757 286.235 C 289.038 287.073 288.673 288.104 288.673 289.306 C 288.673 290.337 288.92 291.164 289.413 291.797 C 289.897 292.42 290.594 292.742 291.507 292.742 Z M 296.639 295.533 C 296.489 295.018 296.36 294.503 296.264 294.009 C 296.167 293.515 296.103 293.01 296.07 292.506 C 295.448 293.526 294.664 294.363 293.708 295.007 C 292.753 295.652 291.7 295.974 290.541 295.974 C 288.63 295.974 287.126 295.362 286.042 294.159 C 284.968 292.946 284.421 291.325 284.421 289.306 C 284.421 287.137 285.162 285.43 286.633 284.195 C 288.104 282.961 290.176 282.349 292.849 282.349 L 296.017 282.349 L 296.017 280.029 C 296.017 278.655 295.705 277.581 295.093 276.819 C 294.481 276.046 293.601 275.659 292.473 275.659 C 291.453 275.659 290.627 276.003 290.004 276.701 C 289.381 277.388 289.07 278.269 289.07 279.299 L 285.033 279.278 L 284.968 279.16 C 284.893 277.41 285.591 275.842 287.062 274.478 C 288.533 273.115 290.423 272.428 292.742 272.428 C 294.975 272.428 296.79 273.093 298.185 274.414 C 299.571 275.735 300.268 277.614 300.268 280.062 L 300.268 290.584 C 300.268 291.464 300.322 292.312 300.429 293.128 C 300.526 293.944 300.698 294.75 300.934 295.533 L 296.639 295.533 Z " fill="rgb(255,255,255)"/><path d=" M 323.46 285.634 C 323.46 287.717 323.836 289.413 324.588 290.745 C 325.339 292.076 326.488 292.742 328.045 292.742 C 329.548 292.742 330.686 292.076 331.448 290.745 C 332.211 289.413 332.597 287.717 332.597 285.634 L 332.597 282.746 C 332.597 280.695 332.211 279.009 331.448 277.667 C 330.686 276.325 329.548 275.659 328.023 275.659 C 326.488 275.659 325.339 276.325 324.588 277.656 C 323.836 278.988 323.46 280.684 323.46 282.746 L 323.46 285.634 Z M 319.198 282.767 C 319.198 279.761 319.981 277.291 321.56 275.348 C 323.127 273.405 325.285 272.428 328.023 272.428 C 330.751 272.428 332.898 273.394 334.476 275.337 C 336.055 277.27 336.849 279.75 336.849 282.767 L 336.849 285.655 C 336.849 288.694 336.065 291.164 334.487 293.085 C 332.919 295.007 330.772 295.963 328.045 295.963 C 325.296 295.963 323.127 295.007 321.56 293.085 C 319.981 291.164 319.198 288.694 319.198 285.655 L 319.198 282.767 Z " fill="rgb(255,255,255)"/><path d=" M 374.385 286.267 L 374.46 286.386 C 374.439 289.435 373.634 291.797 372.023 293.461 C 370.413 295.136 368.147 295.974 365.205 295.974 C 362.22 295.974 359.826 294.964 358.044 292.946 C 356.251 290.938 355.36 288.136 355.36 284.528 L 355.36 276.057 C 355.36 272.449 356.24 269.636 358.012 267.607 C 359.783 265.588 362.135 264.568 365.087 264.568 C 368.072 264.568 370.37 265.384 371.98 267.027 C 373.591 268.659 374.407 271.043 374.46 274.188 L 374.385 274.317 L 370.37 274.317 C 370.327 272.084 369.887 270.431 369.049 269.378 C 368.212 268.326 366.891 267.8 365.087 267.8 C 363.337 267.8 361.984 268.509 361.018 269.915 C 360.052 271.332 359.568 273.351 359.568 275.971 L 359.568 284.507 C 359.568 287.169 360.062 289.209 361.05 290.616 C 362.038 292.033 363.423 292.742 365.205 292.742 C 366.977 292.742 368.255 292.226 369.081 291.206 C 369.897 290.176 370.316 288.522 370.348 286.267 L 374.385 286.267 Z " fill="rgb(255,255,255)"/><path d=" M 384.746 285.634 C 384.746 287.717 385.122 289.413 385.885 290.745 C 386.636 292.076 387.785 292.742 389.342 292.742 C 390.845 292.742 391.983 292.076 392.745 290.745 C 393.508 289.413 393.884 287.717 393.884 285.634 L 393.884 282.746 C 393.884 280.695 393.508 279.009 392.745 277.667 C 391.983 276.325 390.845 275.659 389.32 275.659 C 387.785 275.659 386.636 276.325 385.885 277.656 C 385.122 278.988 384.746 280.684 384.746 282.746 L 384.746 285.634 Z M 380.495 282.767 C 380.495 279.761 381.278 277.291 382.857 275.348 C 384.424 273.405 386.582 272.428 389.32 272.428 C 392.048 272.428 394.195 273.394 395.773 275.337 C 397.352 277.27 398.146 279.75 398.146 282.767 L 398.146 285.655 C 398.146 288.694 397.352 291.164 395.784 293.085 C 394.216 295.007 392.069 295.963 389.342 295.963 C 386.582 295.963 384.424 295.007 382.857 293.085 C 381.278 291.164 380.495 288.694 380.495 285.655 L 380.495 282.767 Z " fill="rgb(255,255,255)"/><path d=" M 408.829 272.846 L 409.066 276.207 C 409.699 275.015 410.494 274.092 411.449 273.426 C 412.415 272.76 413.5 272.428 414.724 272.428 C 416.71 272.428 418.246 273.168 419.351 274.629 C 420.457 276.1 421.005 278.376 421.005 281.468 L 421.005 295.523 L 416.753 295.523 L 416.753 281.5 C 416.753 279.396 416.453 277.903 415.851 277.044 C 415.25 276.175 414.348 275.745 413.135 275.745 C 412.265 275.745 411.492 276.014 410.826 276.551 C 410.15 277.087 409.602 277.818 409.194 278.741 L 409.194 295.523 L 404.932 295.523 L 404.932 272.846 L 408.829 272.846 Z " fill="rgb(255,255,255)"/><path d=" M 432.816 275.885 C 433.449 274.8 434.222 273.952 435.145 273.34 C 436.058 272.739 437.089 272.428 438.227 272.428 C 440.256 272.428 441.845 273.19 442.983 274.693 C 444.111 276.207 444.68 278.526 444.68 281.651 L 444.68 295.533 L 440.417 295.533 L 440.417 281.608 C 440.417 279.525 440.117 278.032 439.515 277.12 C 438.903 276.196 438.002 275.745 436.799 275.745 C 435.929 275.745 435.156 275.992 434.48 276.486 C 433.803 276.98 433.245 277.667 432.816 278.526 L 432.816 295.533 L 428.564 295.533 L 428.564 262.829 L 432.816 262.829 L 432.816 275.885 Z " fill="rgb(255,255,255)"/><path d=" M 459.98 275.659 C 458.756 275.659 457.768 276.261 457.027 277.463 C 456.286 278.666 455.878 280.19 455.793 282.026 L 463.77 282.026 L 463.77 281.167 C 463.77 279.546 463.459 278.226 462.815 277.206 C 462.17 276.175 461.225 275.659 459.98 275.659 Z M 460.463 295.974 C 457.768 295.974 455.61 295.029 453.989 293.161 C 452.368 291.292 451.551 288.887 451.551 285.978 L 451.551 282.66 C 451.551 279.697 452.346 277.248 453.935 275.327 C 455.524 273.394 457.532 272.428 459.98 272.428 C 462.557 272.428 464.532 273.308 465.917 275.058 C 467.292 276.819 467.99 279.17 467.99 282.134 L 467.99 285.076 L 455.793 285.076 L 455.793 285.978 C 455.793 287.932 456.222 289.542 457.081 290.82 C 457.94 292.098 459.153 292.742 460.732 292.742 C 461.913 292.742 462.922 292.559 463.759 292.184 C 464.586 291.818 465.391 291.271 466.143 290.562 L 467.485 293.204 C 466.776 294.009 465.821 294.675 464.618 295.19 C 463.416 295.705 462.031 295.974 460.463 295.974 Z " fill="rgb(255,255,255)"/><path d=" M 482.431 292.742 C 483.494 292.742 484.385 292.334 485.115 291.518 C 485.845 290.691 486.21 289.607 486.21 288.232 L 490.022 288.232 L 490.065 288.361 C 490.118 290.498 489.399 292.302 487.896 293.762 C 486.393 295.233 484.568 295.974 482.431 295.974 C 479.607 295.974 477.449 295.018 475.946 293.096 C 474.443 291.185 473.691 288.748 473.691 285.784 L 473.691 282.66 C 473.691 279.697 474.443 277.248 475.946 275.327 C 477.449 273.394 479.607 272.428 482.409 272.428 C 484.707 272.428 486.565 273.201 488.003 274.725 C 489.431 276.261 490.118 278.236 490.086 280.663 L 490.022 280.792 L 486.21 280.792 C 486.21 279.278 485.867 278.032 485.169 277.087 C 484.482 276.132 483.558 275.659 482.409 275.659 C 480.788 275.659 479.639 276.314 478.963 277.635 C 478.286 278.956 477.943 280.62 477.943 282.628 L 477.943 285.763 C 477.943 287.814 478.286 289.489 478.963 290.788 C 479.639 292.087 480.799 292.742 482.431 292.742 Z " fill="rgb(255,255,255)"/><path d=" M 501.167 295.533 L 496.915 295.533 L 496.915 272.846 L 501.167 272.846 L 501.167 295.533 Z M 501.167 266.898 L 496.915 266.898 L 496.915 262.829 L 501.167 262.829 L 501.167 266.898 Z " fill="rgb(255,255,255)"/><path d=" M 512.999 272.846 L 513.224 275.928 C 513.847 274.811 514.62 273.952 515.576 273.34 C 516.521 272.739 517.637 272.428 518.904 272.428 C 520.15 272.428 521.223 272.782 522.114 273.469 C 523.006 274.156 523.682 275.208 524.144 276.626 C 524.734 275.305 525.518 274.285 526.495 273.544 C 527.472 272.803 528.632 272.428 529.974 272.428 C 531.896 272.428 533.42 273.222 534.526 274.811 C 535.643 276.4 536.201 278.805 536.201 282.048 L 536.201 295.523 L 531.939 295.523 L 531.939 282.026 C 531.939 279.707 531.66 278.086 531.08 277.141 C 530.511 276.207 529.663 275.745 528.546 275.745 C 527.58 275.745 526.774 276.11 526.13 276.84 C 525.475 277.581 525.003 278.548 524.713 279.772 C 524.702 279.654 524.702 279.836 524.734 280.298 C 524.756 280.77 524.777 281.114 524.777 281.318 L 524.777 295.523 L 520.536 295.523 L 520.536 282.026 C 520.536 279.782 520.246 278.172 519.666 277.195 C 519.076 276.228 518.228 275.745 517.1 275.745 C 516.209 275.745 515.447 275.992 514.813 276.486 C 514.191 276.98 513.707 277.667 513.353 278.548 L 513.353 295.523 L 509.123 295.523 L 509.123 272.846 L 512.999 272.846 Z " fill="rgb(255,255,255)"/><path d=" M 551.587 275.659 C 550.363 275.659 549.375 276.261 548.635 277.463 C 547.894 278.666 547.486 280.19 547.4 282.026 L 555.377 282.026 L 555.377 281.167 C 555.377 279.546 555.055 278.226 554.422 277.206 C 553.778 276.175 552.833 275.659 551.587 275.659 Z M 552.07 295.974 C 549.375 295.974 547.217 295.029 545.596 293.161 C 543.975 291.292 543.159 288.887 543.159 285.978 L 543.159 282.66 C 543.159 279.697 543.953 277.248 545.542 275.327 C 547.131 273.394 549.139 272.428 551.587 272.428 C 554.164 272.428 556.14 273.308 557.525 275.058 C 558.899 276.819 559.597 279.17 559.597 282.134 L 559.597 285.076 L 547.4 285.076 L 547.4 285.978 C 547.4 287.932 547.829 289.542 548.688 290.82 C 549.547 292.098 550.761 292.742 552.339 292.742 C 553.52 292.742 554.518 292.559 555.356 292.184 C 556.193 291.818 556.988 291.271 557.75 290.562 L 559.092 293.204 C 558.373 294.009 557.417 294.675 556.215 295.19 C 555.012 295.705 553.638 295.974 552.07 295.974 Z " fill="rgb(255,255,255)"/><path d=" M 570.012 272.846 L 570.237 276.207 C 570.871 275.015 571.665 274.092 572.632 273.426 C 573.598 272.76 574.682 272.428 575.896 272.428 C 577.882 272.428 579.428 273.168 580.534 274.629 C 581.64 276.1 582.187 278.376 582.187 281.468 L 582.187 295.523 L 577.936 295.523 L 577.936 281.5 C 577.936 279.396 577.635 277.903 577.034 277.044 C 576.433 276.175 575.531 275.745 574.307 275.745 C 573.448 275.745 572.675 276.014 571.998 276.551 C 571.332 277.087 570.785 277.818 570.366 278.741 L 570.366 295.523 L 566.114 295.523 L 566.114 272.846 L 570.012 272.846 Z " fill="rgb(255,255,255)"/><path d=" M 595.233 267.209 L 595.233 272.846 L 598.776 272.846 L 598.776 275.896 L 595.233 275.896 L 595.233 289.381 C 595.233 290.562 595.405 291.4 595.748 291.894 C 596.103 292.388 596.553 292.634 597.112 292.634 C 597.455 292.634 597.767 292.613 598.046 292.57 C 598.336 292.527 598.669 292.463 599.066 292.388 L 599.506 295.319 C 599.034 295.512 598.497 295.673 597.896 295.791 C 597.305 295.909 596.693 295.974 596.07 295.974 C 594.46 295.974 593.214 295.437 592.323 294.385 C 591.443 293.332 591.002 291.668 591.002 289.381 L 591.002 275.896 L 588.039 275.896 L 588.039 272.846 L 591.002 272.846 L 591.002 267.209 L 595.233 267.209 Z " fill="rgb(255,255,255)"/><path d=" M 608.751 285.634 C 608.751 287.717 609.126 289.413 609.889 290.745 C 610.64 292.076 611.789 292.742 613.346 292.742 C 614.849 292.742 615.987 292.076 616.75 290.745 C 617.512 289.413 617.888 287.717 617.888 285.634 L 617.888 282.746 C 617.888 280.695 617.512 279.009 616.75 277.667 C 615.987 276.325 614.849 275.659 613.325 275.659 C 611.789 275.659 610.64 276.325 609.889 277.656 C 609.126 278.988 608.751 280.684 608.751 282.746 L 608.751 285.634 Z M 604.499 282.767 C 604.499 279.761 605.283 277.291 606.861 275.348 C 608.428 273.405 610.587 272.428 613.325 272.428 C 616.052 272.428 618.199 273.394 619.777 275.337 C 621.356 277.27 622.14 279.75 622.14 282.767 L 622.14 285.655 C 622.14 288.694 621.356 291.164 619.788 293.085 C 618.221 295.007 616.073 295.963 613.346 295.963 C 610.587 295.963 608.428 295.007 606.861 293.085 C 605.283 291.164 604.499 288.694 604.499 285.655 L 604.499 282.767 Z " fill="rgb(255,255,255)"/></g></g></svg>