<?xml version="1.0" encoding="UTF-8" standalone="no"?>
<!DOCTYPE svg PUBLIC "-//W3C//DTD SVG 1.1//EN" "http://www.w3.org/Graphics/SVG/1.1/DTD/svg11.dtd">
<svg width="100%" height="100%" viewBox="0 0 447 143" version="1.1" xmlns="http://www.w3.org/2000/svg" xmlns:xlink="http://www.w3.org/1999/xlink" xml:space="preserve" xmlns:serif="http://www.serif.com/" style="fill-rule:evenodd;clip-rule:evenodd;stroke-linejoin:round;stroke-miterlimit:2;">
    <g>
        <g transform="matrix(0.909801,0,0,1,0,0)">
            <rect x="0" y="0" width="491.091" height="143" style="fill:none;"/>
        </g>
        <g id="logo_FCT.svg" transform="matrix(0.795043,0,0,0.795043,221.44,74.4656)">
            <g transform="matrix(1,0,0,1,-250,-51.244)">
                <g>
                    <path d="M292.289,22.139L295.398,22.139L295.398,3.98L292.413,3.98L292.413,2.114L307.587,2.114L307.587,6.841L305.721,6.841L305.721,3.98L298.881,3.98L298.881,12.065L304.229,12.065L304.229,9.453L306.095,9.453L306.095,17.04L304.229,17.04L304.229,13.93L298.881,13.93L298.881,22.139L301.866,22.139L301.866,24.005L292.289,24.005L292.289,22.139ZM308.955,8.706L315.05,8.706L315.05,19.154C315.05,21.144 316.169,22.264 317.786,22.264C318.781,22.264 320.149,21.766 321.517,20.647L321.517,10.199L318.781,10.199L318.781,8.706L324.876,8.706L324.876,22.388L327.612,22.388L327.612,23.881L321.517,23.881L321.517,22.015C319.652,23.632 317.786,24.254 316.045,24.254C313.308,24.254 311.692,22.761 311.692,19.652L311.692,10.199L308.955,10.199L308.955,8.706ZM328.856,22.388L331.592,22.388L331.592,10.199L328.856,10.199L328.856,8.706L334.95,8.706L334.95,10.448C336.692,9.204 338.557,8.333 340.547,8.333C342.91,8.333 344.776,9.826 344.776,12.811L344.776,22.388L347.512,22.388L347.512,23.881L339.055,23.881L339.055,22.388L341.418,22.388L341.418,13.433C341.418,11.318 340.299,10.323 338.682,10.323C337.562,10.323 336.194,10.945 334.95,11.94L334.95,22.388L337.438,22.388L337.438,23.881L328.856,23.881L328.856,22.388ZM360.323,22.388L358.831,22.388C355.224,22.388 352.612,20.647 352.612,16.045C352.612,12.313 354.104,10.199 356.716,10.199C357.836,10.199 359.204,10.821 360.323,11.94L360.323,22.388ZM357.711,1.493L360.448,1.493L360.448,10.199C358.955,8.955 357.338,8.209 355.846,8.209C352.114,8.209 349.129,11.692 349.129,16.045C349.129,20.896 352.488,23.881 357.836,23.881L366.542,23.881L366.542,22.388L363.806,22.388L363.806,0L357.711,0L357.711,1.493ZM375.622,16.791L375.622,20.896C374.627,21.642 373.881,22.015 373.134,22.015C372.015,22.015 371.144,21.144 371.144,20.025C371.144,18.408 372.388,17.537 375.622,16.791ZM368.657,11.816C370.522,10.697 371.766,10.199 373.01,10.199C375,10.199 375.622,11.443 375.622,13.184L375.622,15.174L372.264,16.045C369.279,16.791 368.035,18.035 368.035,20.274C368.035,22.512 369.527,24.254 371.517,24.254C372.886,24.254 374.129,23.383 375.995,22.015C376.741,23.632 377.612,24.254 378.731,24.254C379.726,24.254 380.97,23.756 382.09,23.01L382.09,22.015C381.716,22.139 380.846,22.264 380.473,22.264C379.602,22.264 378.856,21.269 378.856,19.776L378.856,13.557C378.856,10.199 376.99,8.209 374.129,8.209C372.264,8.209 370.149,9.08 368.284,10.697L368.657,11.816ZM389.179,24.129C385.821,23.383 383.458,20.149 383.458,15.92C383.458,11.443 386.443,8.209 390.672,8.209C391.915,8.209 392.91,8.458 394.652,9.204L394.9,8.333L395.896,8.333L395.896,13.06L394.9,13.06C394.527,10.821 392.91,9.701 391.169,9.701C388.682,9.701 387.065,11.443 387.065,15.423C387.065,19.9 388.806,22.264 391.915,22.264C394.403,22.264 395.896,20.647 396.269,20.647C396.517,20.647 396.766,21.269 396.766,21.517C396.766,22.139 394.403,24.254 390.547,24.254L390.05,25.249C391.418,25.373 392.537,26.493 392.537,27.985C392.537,29.602 390.92,31.965 386.194,31.592L386.194,30.224C388.557,30.224 389.801,29.726 389.801,28.607C389.801,27.861 389.179,27.363 387.687,27.239L389.179,24.129ZM406.219,16.791L406.219,20.896C405.224,21.642 404.478,22.015 403.731,22.015C402.612,22.015 401.741,21.144 401.741,20.025C401.741,18.408 403.109,17.537 406.219,16.791ZM399.378,11.816C401.244,10.697 402.488,10.199 403.731,10.199C405.721,10.199 406.343,11.443 406.343,13.184L406.343,15.174L402.985,16.045C400,16.791 398.756,18.035 398.756,20.274C398.756,22.512 400.249,24.254 402.239,24.254C403.607,24.254 404.851,23.383 406.716,22.015C407.463,23.632 408.333,24.254 409.453,24.254C410.448,24.254 411.692,23.756 412.811,23.01L412.811,22.015C412.438,22.139 411.567,22.264 411.194,22.264C410.323,22.264 409.577,21.269 409.577,19.776L409.577,13.557C409.577,10.199 407.711,8.209 404.851,8.209C402.985,8.209 400.871,9.08 399.005,10.697L399.378,11.816ZM400.871,4.975C400.995,4.229 401.617,3.607 402.239,3.607C403.358,3.607 405.1,4.975 406.841,4.975C408.582,4.975 409.701,3.607 410.199,0.871L408.955,0.871C408.706,1.866 408.209,2.239 407.463,2.239C406.343,2.239 404.851,0.871 403.109,0.871C401.368,0.871 399.876,2.736 399.876,4.975L400.871,4.975ZM417.91,16.294C417.91,12.189 419.652,9.701 422.512,9.701C425.373,9.701 427.114,12.189 427.114,16.294C427.114,20.398 425.373,22.886 422.512,22.886C419.652,22.886 417.91,20.398 417.91,16.294ZM414.179,16.294C414.179,20.771 417.786,24.378 422.512,24.378C427.239,24.378 430.846,20.896 430.846,16.294C430.846,11.816 427.239,8.209 422.512,8.209C417.786,8.333 414.179,11.816 414.179,16.294ZM298.507,46.02C299.751,44.527 300.622,44.03 301.866,44.03C304.478,44.03 306.095,46.766 306.095,50.995C306.095,54.353 304.726,56.965 302.114,56.965C300.746,56.965 299.378,56.095 298.507,54.726L298.507,46.02ZM292.413,66.915L301.119,66.915L301.119,65.423L298.507,65.423L298.507,57.214C299.627,58.085 300.995,58.458 302.488,58.458C308.085,58.458 309.826,53.856 309.826,50.124C309.826,44.527 306.095,42.413 302.985,42.413C302.114,42.413 301.368,42.537 300.622,42.91C299.876,43.159 299.254,43.657 298.507,44.403L298.507,42.91L292.413,42.91L292.413,44.403L295.149,44.403L295.149,65.547L292.413,65.547L292.413,66.915ZM319.652,50.871L319.652,54.975C318.657,55.721 317.91,56.095 317.164,56.095C316.045,56.095 315.174,55.224 315.174,54.104C315.299,52.612 316.542,51.617 319.652,50.871ZM312.811,46.02C314.677,44.9 315.92,44.403 317.164,44.403C319.154,44.403 319.776,45.647 319.776,47.388L319.776,49.378L316.418,50.249C313.433,50.995 312.189,52.239 312.189,54.478C312.189,56.716 313.682,58.458 315.672,58.458C317.04,58.458 318.284,57.587 320.149,56.219C320.896,57.836 321.766,58.458 322.886,58.458C323.881,58.458 325.124,57.96 326.244,57.214L326.244,56.219C325.871,56.343 325,56.468 324.627,56.468C323.756,56.468 323.01,55.473 323.01,53.98L323.01,47.761C323.01,44.403 321.144,42.413 318.284,42.413C316.418,42.413 314.303,43.284 312.438,44.9L312.811,46.02ZM327.239,56.592L329.975,56.592L329.975,44.403L327.239,44.403L327.239,42.91L333.333,42.91L333.333,45.522L333.458,45.522C335.323,43.284 336.194,42.537 337.189,42.537C338.06,42.537 338.93,43.035 339.801,44.03C339.552,45.522 339.055,46.766 338.433,47.761C337.562,46.144 337.065,45.647 336.07,45.647C335.075,45.647 334.328,46.269 333.458,47.512L333.458,56.841L336.194,56.841L336.194,58.333L327.363,58.333L327.363,56.592L327.239,56.592ZM348.881,50.871L348.881,54.975C347.886,55.721 347.139,56.095 346.393,56.095C345.274,56.095 344.403,55.224 344.403,54.104C344.403,52.612 345.647,51.617 348.881,50.871ZM342.04,46.02C343.905,44.9 345.149,44.403 346.393,44.403C348.383,44.403 349.005,45.647 349.005,47.388L349.005,49.378L345.647,50.249C342.662,50.995 341.418,52.239 341.418,54.478C341.418,56.716 342.91,58.458 344.9,58.458C346.269,58.458 347.512,57.587 349.378,56.219C350.124,57.836 350.995,58.458 352.114,58.458C353.109,58.458 354.353,57.96 355.473,57.214L355.473,56.219C355.1,56.343 354.229,56.468 353.856,56.468C352.985,56.468 352.239,55.473 352.239,53.98L352.239,47.761C352.239,44.403 350.373,42.413 347.512,42.413C345.647,42.413 343.532,43.284 341.667,44.9L342.04,46.02ZM374.751,50.871L374.751,54.975C373.756,55.721 373.01,56.095 372.264,56.095C371.144,56.095 370.274,55.224 370.274,54.104C370.274,52.612 371.517,51.617 374.751,50.871ZM367.91,46.02C369.776,44.9 371.02,44.403 372.264,44.403C374.254,44.403 374.876,45.647 374.876,47.388L374.876,49.378L371.517,50.249C368.532,50.995 367.289,52.239 367.289,54.478C367.289,56.716 368.781,58.458 370.771,58.458C372.139,58.458 373.383,57.587 375.249,56.219C375.995,57.836 376.866,58.458 377.985,58.458C378.98,58.458 380.224,57.96 381.343,57.214L381.343,56.219C380.97,56.343 380.1,56.468 379.726,56.468C378.856,56.468 378.109,55.473 378.109,53.98L378.109,47.761C378.109,44.403 376.244,42.413 373.383,42.413C371.517,42.413 369.403,43.284 367.537,44.9L367.91,46.02ZM412.065,55.846C409.95,57.587 407.214,58.458 404.104,58.458C397.637,58.458 393.035,53.483 393.035,47.388C393.035,40.796 397.761,35.821 404.353,35.821C406.219,35.821 407.96,36.194 409.577,36.816L409.826,35.572L411.194,35.572L411.194,41.915L409.577,41.915C408.955,39.179 406.965,37.687 404.229,37.687C400,37.687 397.264,41.294 397.264,46.891C397.264,52.736 400.373,56.592 405.224,56.592C407.338,56.592 409.577,55.846 412.065,53.98L412.065,55.846ZM413.93,56.592L416.542,56.592L416.542,44.403L413.93,44.403L413.93,42.91L419.901,42.91L419.901,56.592L422.512,56.592L422.512,58.085L413.93,58.085L413.93,56.592ZM419.901,37.438C419.901,38.557 418.905,39.552 417.786,39.552C416.667,39.552 415.672,38.557 415.672,37.438C415.672,36.318 416.667,35.323 417.786,35.323C419.03,35.448 419.901,36.318 419.901,37.438ZM428.234,47.761C428.483,45.149 429.229,43.905 431.343,43.905C433.209,43.905 434.453,45.274 434.701,47.761L428.234,47.761ZM438.308,49.254C437.687,44.9 435.323,42.413 431.592,42.413C427.363,42.413 424.627,45.398 424.627,50C424.627,54.229 427.488,58.458 432.587,58.458C434.701,58.458 435.821,58.085 438.308,56.468L438.557,54.851C436.692,55.97 435.075,56.592 433.458,56.592C430.224,56.592 428.234,53.607 428.234,49.254L438.308,49.254ZM427.488,40.05L431.343,37.189L435.199,40.05L436.567,40.05L432.338,34.204L430.348,34.204L426.119,40.05L427.488,40.05ZM439.925,56.592L442.662,56.592L442.662,44.403L439.925,44.403L439.925,42.91L446.02,42.91L446.02,44.652C447.761,43.408 449.627,42.537 451.617,42.537C453.98,42.537 455.846,44.03 455.846,47.015L455.846,56.716L458.582,56.716L458.582,58.209L450.124,58.209L450.124,56.716L452.488,56.716L452.488,47.761C452.488,45.647 451.368,44.652 449.751,44.652C448.632,44.652 447.264,45.274 446.02,46.269L446.02,56.841L448.507,56.841L448.507,58.333L439.925,58.333L439.925,56.592ZM472.637,47.264L471.642,47.264C471.269,45.025 469.652,43.905 468.035,43.905C465.547,43.905 463.93,45.647 463.93,49.627C463.93,54.104 465.672,56.468 468.781,56.468C471.269,56.468 472.761,54.851 473.134,54.851C473.383,54.851 473.632,55.473 473.632,55.721C473.632,56.343 471.144,58.458 467.662,58.458C463.433,58.458 460.199,54.851 460.199,50.124C460.199,45.647 463.184,42.413 467.413,42.413C468.657,42.413 469.652,42.662 471.269,43.408L471.517,42.537L472.512,42.537L472.512,47.264L472.637,47.264ZM475.249,56.592L477.861,56.592L477.861,44.403L475.249,44.403L475.249,42.91L481.219,42.91L481.219,56.592L483.831,56.592L483.831,58.085L475.249,58.085L475.249,56.592ZM481.343,37.438C481.343,38.557 480.348,39.552 479.229,39.552C478.109,39.552 477.114,38.557 477.114,37.438C477.114,36.318 478.109,35.323 479.229,35.323C480.348,35.448 481.343,36.318 481.343,37.438ZM493.408,50.871L493.408,54.975C492.413,55.721 491.667,56.095 490.92,56.095C489.801,56.095 488.93,55.224 488.93,54.104C488.93,52.612 490.299,51.617 493.408,50.871ZM486.567,46.02C488.433,44.9 489.677,44.403 490.92,44.403C492.91,44.403 493.532,45.647 493.532,47.388L493.532,49.378L490.174,50.249C487.189,50.995 485.945,52.239 485.945,54.478C485.945,56.716 487.438,58.458 489.428,58.458C490.796,58.458 492.04,57.587 493.905,56.219C494.652,57.836 495.522,58.458 496.642,58.458C497.637,58.458 498.881,57.96 500,57.214L500,56.219C499.627,56.343 498.756,56.468 498.383,56.468C497.512,56.468 496.766,55.473 496.766,53.98L496.766,47.761C496.766,44.403 494.9,42.413 492.04,42.413C490.174,42.413 488.06,43.284 486.194,44.9L486.567,46.02ZM296.144,83.085C296.393,80.473 297.139,79.229 299.254,79.229C301.119,79.229 302.363,80.597 302.612,83.085L296.144,83.085ZM306.095,84.453C305.473,80.1 303.109,77.612 299.378,77.612C295.149,77.612 292.413,80.597 292.413,85.199C292.413,89.428 295.274,93.657 300.373,93.657C302.488,93.657 303.607,93.284 306.095,91.667L306.343,90.05C304.478,91.169 302.861,91.791 301.244,91.791C298.01,91.791 296.02,88.806 296.02,84.453L306.095,84.453ZM326.244,86.194L326.244,90.299C325.249,91.045 324.502,91.418 323.756,91.418C322.637,91.418 321.766,90.547 321.766,89.428C321.766,87.811 323.01,86.94 326.244,86.194ZM319.403,81.219C321.269,80.1 322.512,79.602 323.756,79.602C325.746,79.602 326.368,80.846 326.368,82.587L326.368,84.577L323.01,85.448C320.025,86.194 318.781,87.438 318.781,89.677C318.781,91.915 320.274,93.657 322.264,93.657C323.632,93.657 324.876,92.786 326.741,91.418C327.488,93.035 328.358,93.657 329.478,93.657C330.473,93.657 331.716,93.159 332.836,92.413L332.836,91.418C332.463,91.542 331.592,91.667 331.219,91.667C330.348,91.667 329.602,90.672 329.602,89.179L329.602,82.96C329.602,79.602 327.736,77.612 324.876,77.612C323.01,77.612 320.896,78.483 319.03,80.1L319.403,81.219ZM344.776,91.418L347.761,91.418L347.761,74.005L342.164,74.005L342.164,76.99L340.299,76.99L340.299,70.398L342.164,70.398L342.164,71.517L356.965,71.517L356.965,70.398L358.831,70.398L358.831,76.99L356.965,76.99L356.965,74.005L351.368,74.005L351.368,91.418L354.353,91.418L354.353,93.284L344.776,93.284L344.776,91.418ZM360.821,83.085C361.07,80.473 361.816,79.229 363.93,79.229C365.796,79.229 367.04,80.597 367.289,83.085L360.821,83.085ZM370.771,84.453C370.149,80.1 367.786,77.612 364.055,77.612C359.826,77.612 357.09,80.597 357.09,85.199C357.09,89.428 359.95,93.657 365.05,93.657C367.164,93.657 368.284,93.284 370.771,91.667L371.02,90.05C369.154,91.169 367.537,91.791 365.92,91.791C362.687,91.791 360.697,88.806 360.697,84.453L370.771,84.453ZM385.572,82.463L384.577,82.463C384.204,80.224 382.587,79.104 380.97,79.104C378.483,79.104 376.866,80.846 376.866,84.826C376.866,89.303 378.607,91.667 381.716,91.667C384.204,91.667 385.697,90.05 386.07,90.05C386.318,90.05 386.567,90.672 386.567,90.92C386.567,91.542 384.08,93.657 380.597,93.657C376.368,93.657 373.134,90.05 373.134,85.323C373.134,80.846 376.119,77.612 380.348,77.612C381.592,77.612 382.587,77.861 384.204,78.607L384.453,77.736L385.448,77.736L385.448,82.463L385.572,82.463ZM387.562,91.791L390.298,91.791L390.298,79.602L387.562,79.602L387.562,78.109L393.657,78.109L393.657,79.851C395.398,78.607 397.264,77.736 399.254,77.736C401.617,77.736 403.483,79.229 403.483,82.214L403.483,91.915L406.219,91.915L406.219,93.284L397.761,93.284L397.761,91.791L400.124,91.791L400.124,82.836C400.124,80.721 399.005,79.726 397.388,79.726C396.269,79.726 394.9,80.348 393.657,81.343L393.657,91.915L396.144,91.915L396.144,93.284L387.562,93.284L387.562,91.791ZM411.567,85.697C411.567,81.592 413.308,79.104 416.169,79.104C419.03,79.104 420.771,81.592 420.771,85.697C420.771,89.801 419.03,92.289 416.169,92.289C413.308,92.289 411.567,89.801 411.567,85.697ZM407.836,85.697C407.836,90.174 411.443,93.781 416.169,93.781C420.896,93.781 424.502,90.299 424.502,85.697C424.502,81.219 420.896,77.612 416.169,77.612C411.443,77.612 407.836,81.219 407.836,85.697ZM426.493,91.791L429.229,91.791L429.229,70.896L426.493,70.896L426.493,69.403L432.587,69.403L432.587,91.791L435.199,91.791L435.199,93.284L426.617,93.284L426.617,91.791L426.493,91.791ZM440.672,85.697C440.672,81.592 442.413,79.104 445.274,79.104C448.134,79.104 449.876,81.592 449.876,85.697C449.876,89.801 448.134,92.289 445.274,92.289C442.413,92.289 440.672,89.801 440.672,85.697ZM436.94,85.697C436.94,90.174 440.547,93.781 445.274,93.781C450,93.781 453.607,90.299 453.607,85.697C453.607,81.219 450,77.612 445.274,77.612C440.672,77.612 436.94,81.219 436.94,85.697ZM459.577,83.458C459.577,80.721 460.821,79.104 462.935,79.104C464.925,79.104 466.169,80.846 466.169,83.706C466.169,86.443 464.925,88.184 462.935,88.184C460.821,88.06 459.577,86.318 459.577,83.458ZM470.771,78.109L466.045,78.109C465.547,78.109 465.174,77.985 464.677,77.861C464.179,77.736 463.557,77.612 462.562,77.612C458.831,77.612 456.095,79.975 456.095,83.458C456.095,86.318 457.836,88.308 461.07,89.179L461.07,89.303L460.572,89.428C458.831,89.925 457.96,90.796 457.96,91.791C457.96,92.662 458.582,93.532 459.826,94.403C456.841,95.398 455.348,96.766 455.348,98.259C455.348,100.124 458.085,102.488 462.811,102.488C467.413,102.488 470.398,100.498 470.398,97.512C470.398,96.517 470.149,95.896 469.403,95.025C467.04,92.662 461.07,92.786 461.07,90.92C461.07,90.672 461.194,90.672 461.318,90.423C462.438,89.303 465.174,90.174 467.91,87.438C468.905,86.443 469.527,84.826 469.527,83.458C469.527,82.09 469.03,80.846 468.035,79.726L470.771,79.726L470.771,78.109ZM461.194,94.901C466.045,96.269 467.786,97.015 467.786,98.383C467.786,99.005 467.289,99.627 466.542,99.876C465.796,100.124 464.303,100.373 463.06,100.373C460.448,100.373 458.706,99.378 458.706,97.886C458.706,96.766 459.328,96.02 461.194,94.901ZM472.139,91.791L474.751,91.791L474.751,79.602L472.139,79.602L472.139,78.109L478.109,78.109L478.109,91.791L480.721,91.791L480.721,93.284L472.139,93.284L472.139,91.791ZM478.234,72.761C478.234,73.881 477.239,74.876 476.119,74.876C475,74.876 474.005,73.881 474.005,72.761C474.005,71.642 475,70.647 476.119,70.647C477.239,70.647 478.234,71.517 478.234,72.761ZM490.423,86.194L490.423,90.299C489.428,91.045 488.682,91.418 487.935,91.418C486.816,91.418 485.945,90.547 485.945,89.428C485.945,87.811 487.189,86.94 490.423,86.194ZM483.458,81.219C485.323,80.1 486.567,79.602 487.811,79.602C489.801,79.602 490.423,80.846 490.423,82.587L490.423,84.577L487.065,85.448C484.08,86.194 482.836,87.438 482.836,89.677C482.836,91.915 484.328,93.657 486.318,93.657C487.687,93.657 488.93,92.786 490.796,91.418C491.542,93.035 492.413,93.657 493.532,93.657C494.527,93.657 495.771,93.159 496.891,92.413L496.891,91.418C496.517,91.542 495.647,91.667 495.274,91.667C494.403,91.667 493.657,90.672 493.657,89.179L493.657,82.96C493.657,79.602 491.791,77.612 488.93,77.612C487.065,77.612 484.95,78.483 483.085,80.1L483.458,81.219Z"/>
                    <path d="M64.925,2.612L64.925,20.771L27.363,20.771L27.363,38.433L64.925,38.433L64.925,56.592L27.363,56.592L27.363,93.284L0,93.284L0,2.612L64.925,2.612ZM164.303,86.443C152.363,92.537 140.547,94.527 128.607,94.527C96.642,94.527 77.363,75.622 77.363,47.886C77.363,15.796 101.617,1.244 128.98,1.244C144.279,1.244 156.716,5.473 163.93,8.085L163.93,32.214C158.831,29.104 148.632,22.388 135.199,22.388C119.652,22.388 105.224,32.214 105.224,48.134C105.1,62.065 116.915,73.383 133.582,73.383C148.134,73.383 158.831,66.915 164.179,63.557L164.179,86.443L164.303,86.443ZM269.527,2.612L269.527,24.627L236.318,24.627L236.318,93.159L208.955,93.159L208.955,24.627L175.746,24.627L175.746,2.612L269.527,2.612Z" style="fill:rgb(0,98,93);"/>
                </g>
            </g>
        </g>
    </g>
</svg>
